<svg width="41" height="105" viewBox="0 0 41 105" fill="none" xmlns="http://www.w3.org/2000/svg">
    <g clip-path="url(#clip0_1951_11116)">
        <path d="M20.5898 81.2956C29.6392 50.1666 34.6575 32.8106 35.6447 29.2275C37.1254 23.853 39.6691 4.08984 20.7914 4.08984" stroke="#849FAD" stroke-width="2" stroke-linecap="round" stroke-linejoin="round"/>
        <path d="M20.417 81.6693C11.4688 50.2912 6.50116 32.8106 5.51399 29.2275C4.03324 23.853 1.4895 4.08984 20.3673 4.08984" stroke="#849FAD" stroke-width="2" stroke-linecap="round" stroke-linejoin="round"/>
        <path d="M20.4322 81.6077C23.8556 51.483 25.9943 31.7197 26.8483 22.3179C27.7024 12.9161 25.2656 6.84009 19.5381 4.08984" stroke="#849FAD" stroke-width="2" stroke-linecap="round" stroke-linejoin="round"/>
        <path d="M20.6616 81.5397C16.5907 51.7686 14.1767 32.1149 13.4197 22.5786C12.6627 13.0424 14.8226 6.87943 19.8993 4.08984" stroke="#849FAD" stroke-width="2" stroke-linecap="round" stroke-linejoin="round"/>
        <path d="M20.5 33.7475C28.7843 33.7475 35.5 31.3162 35.5 28.3171C35.5 25.318 28.7843 22.8867 20.5 22.8867C12.2157 22.8867 5.5 25.318 5.5 28.3171C5.5 31.3162 12.2157 33.7475 20.5 33.7475Z" stroke="#849FAD" stroke-width="2" stroke-linecap="round" stroke-linejoin="round"/>
        <path d="M36.5 30.3398C37.7426 30.3398 38.75 29.3325 38.75 28.0898C38.75 26.8472 37.7426 25.8398 36.5 25.8398C35.2574 25.8398 34.25 26.8472 34.25 28.0898C34.25 29.3325 35.2574 30.3398 36.5 30.3398Z" fill="black" stroke="#5DA2DF" stroke-width="1.5"/>
        <path d="M36.5 31.0898C38.1569 31.0898 39.5 29.7467 39.5 28.0898C39.5 26.433 38.1569 25.0898 36.5 25.0898C34.8431 25.0898 33.5 26.433 33.5 28.0898C33.5 29.7467 34.8431 31.0898 36.5 31.0898Z" stroke="#5DA2DF"/>
        <path d="M4.5 30.3398C5.74264 30.3398 6.75 29.3325 6.75 28.0898C6.75 26.8472 5.74264 25.8398 4.5 25.8398C3.25736 25.8398 2.25 26.8472 2.25 28.0898C2.25 29.3325 3.25736 30.3398 4.5 30.3398Z" fill="black" stroke="#5DA2DF" stroke-width="1.5"/>
        <path d="M4.5 31.0898C6.15685 31.0898 7.5 29.7467 7.5 28.0898C7.5 26.433 6.15685 25.0898 4.5 25.0898C2.84315 25.0898 1.5 26.433 1.5 28.0898C1.5 29.7467 2.84315 31.0898 4.5 31.0898Z" stroke="#5DA2DF"/>
        <path d="M20 6.33984C21.2426 6.33984 22.25 5.33248 22.25 4.08984C22.25 2.8472 21.2426 1.83984 20 1.83984C18.7574 1.83984 17.75 2.8472 17.75 4.08984C17.75 5.33248 18.7574 6.33984 20 6.33984Z" fill="black" stroke="#5DA2DF" stroke-width="1.5"/>
        <path d="M20 7.08984C21.6569 7.08984 23 5.7467 23 4.08984C23 2.43299 21.6569 1.08984 20 1.08984C18.3431 1.08984 17 2.43299 17 4.08984C17 5.7467 18.3431 7.08984 20 7.08984Z" stroke="#5DA2DF"/>
        <path d="M20.291 81.7852C23.9959 81.7852 26.2969 81.7852 27.1942 81.7852C28.5401 81.7852 29.3906 83.1928 29.6872 84.3779C29.9837 85.563 32.6477 95.6503 33.1093 97.4001C33.5709 99.1499 32.1515 99.739 30.9545 100.454C29.7576 101.17 26.317 102.954 20.291 102.954" stroke="#849FAD" stroke-width="2" stroke-linecap="round" stroke-linejoin="round"/>
        <path d="M20.667 81.7852C16.9622 81.7852 14.6611 81.7852 13.7638 81.7852C12.4179 81.7852 11.5674 83.1928 11.2708 84.3779C10.9743 85.563 8.31031 95.6503 7.84871 97.4001C7.38711 99.1499 8.80655 99.739 10.0035 100.454C11.2004 101.17 14.641 102.954 20.667 102.954" stroke="#849FAD" stroke-width="2" stroke-linecap="round" stroke-linejoin="round"/>
        <path d="M20.3658 95.508C22.8975 95.508 24.9499 93.4556 24.9499 90.9239C24.9499 88.3922 22.8975 86.3398 20.3658 86.3398C17.8341 86.3398 15.7817 88.3922 15.7817 90.9239C15.7817 93.4556 17.8341 95.508 20.3658 95.508Z" stroke="#849FAD" stroke-linecap="round" stroke-linejoin="round"/>
        <path d="M20.25 93.0898C21.4926 93.0898 22.5 92.0825 22.5 90.8398C22.5 89.5972 21.4926 88.5898 20.25 88.5898C19.0074 88.5898 18 89.5972 18 90.8398C18 92.0825 19.0074 93.0898 20.25 93.0898Z" fill="black" stroke="#5DA2DF" stroke-width="1.5"/>
        <path d="M20.25 93.8398C21.9069 93.8398 23.25 92.4967 23.25 90.8398C23.25 89.183 21.9069 87.8398 20.25 87.8398C18.5931 87.8398 17.25 89.183 17.25 90.8398C17.25 92.4967 18.5931 93.8398 20.25 93.8398Z" stroke="#5DA2DF"/>
    </g>
    <defs>
        <clipPath id="clip0_1951_11116">
            <rect width="40" height="104" fill="white" transform="translate(0.5 0.0898438)"/>
        </clipPath>
    </defs>
</svg>
