<svg width="102" height="97" viewBox="0 0 102 97" fill="none" xmlns="http://www.w3.org/2000/svg">
    <path d="M35.5 30.5C40.2204 34.381 46.2178 34.5496 53.492 31.0058C58.974 32.9397 62.5823 34.2011 64.3167 34.7899L84.8841 55.5L98.0514 49.1658" stroke="#94BFD6" stroke-width="2" stroke-linecap="round" stroke-linejoin="round"/>
    <path d="M50.2037 19.2871L31.2031 22.5134L22.5922 28.5008L10.8687 23.6393" stroke="#94BFD6" stroke-width="2" stroke-linecap="round" stroke-linejoin="round"/>
    <path fill-rule="evenodd" clip-rule="evenodd" d="M28.825 46.8902C30.9525 48.8392 31.0689 52.1136 29.0849 54.2037L25.6196 57.8545C23.6356 59.9446 20.3026 60.0589 18.175 58.1098C16.0475 56.1608 15.9311 52.8864 17.9151 50.7963L21.3804 47.1456C23.3644 45.0554 26.6974 44.9411 28.825 46.8902Z" stroke="#94BFD6" stroke-width="2" stroke-linecap="round" stroke-linejoin="round"/>
    <path fill-rule="evenodd" clip-rule="evenodd" d="M41.858 48.9135C43.9436 50.8952 44.0577 54.2245 42.1128 56.3497L33.4398 65.8268C31.4949 67.952 28.2276 68.0683 26.142 66.0865C24.0564 64.1048 23.9423 60.7755 25.8872 58.6503L34.5602 49.1732C36.5051 47.048 39.7724 46.9317 41.858 48.9135Z" stroke="#94BFD6" stroke-width="2" stroke-linecap="round" stroke-linejoin="round"/>
    <path fill-rule="evenodd" clip-rule="evenodd" d="M50.4708 56.4403C52.7091 58.9214 53.2426 61.8831 51.3156 63.9983L43.5477 72.5249C41.6207 74.6401 38.3093 75.0668 35.759 72.6058C33.2088 70.1448 32.9476 66.8063 34.8746 64.6911L42.6425 56.1646C44.5695 54.0494 48.2325 53.9592 50.4708 56.4403Z" stroke="#94BFD6" stroke-width="2" stroke-linecap="round" stroke-linejoin="round"/>
    <path fill-rule="evenodd" clip-rule="evenodd" d="M57.8285 64.8779C59.9516 66.8097 60.0677 70.0552 58.0879 72.1268L52.6004 77.869C50.6206 79.9406 47.2946 80.054 45.1715 78.1221C43.0484 76.1903 42.9323 72.9448 44.9121 70.8732L50.3996 65.131C52.3794 63.0594 55.7054 62.946 57.8285 64.8779Z" stroke="#94BFD6" stroke-width="2" stroke-linecap="round" stroke-linejoin="round"/>
    <path fill-rule="evenodd" clip-rule="evenodd" d="M62.0948 54.948C64.1698 52.9686 67.4763 53.0257 69.48 55.0754L75.0341 60.7567C77.0379 62.8064 76.9802 66.0726 74.9052 68.052C72.8302 70.0314 69.5237 69.9743 67.52 67.9246L61.9659 62.2433C59.9621 60.1936 60.0198 56.9274 62.0948 54.948Z" stroke="#94BFD6" stroke-width="2" stroke-linecap="round" stroke-linejoin="round"/>
    <path d="M65.5708 66.1328L66.2218 66.8722C67.6478 68.4883 67.8426 71.4339 66.3687 72.9975L66.1238 73.2568C64.5179 74.9572 61.9589 74.9082 60.4081 73.1474L58.5 70.9685" stroke="#94BFD6" stroke-width="2" stroke-linecap="round" stroke-linejoin="round"/>
    <path d="M84.9942 55.6055C86.1483 57.5088 86.72 61.6623 85.1518 63.2208L84.2888 64.0785C82.3346 66.0206 79.2205 65.9647 77.3333 63.9535C77.3304 63.9504 77.0526 63.6521 76.5 63.0586" stroke="#94BFD6" stroke-width="2" stroke-linecap="round" stroke-linejoin="round"/>
    <path d="M90.4999 24.6501L84.1942 27.9613L70.7778 17.5L50.0805 19.1107L35.6343 30.6079" stroke="#94BFD6" stroke-width="2" stroke-linecap="round" stroke-linejoin="round"/>
    <path d="M3.37598 48.4414L16.2875 54.2038" stroke="#94BFD6" stroke-width="2" stroke-linecap="round" stroke-linejoin="round"/>
    <path d="M10.5 25.75C11.7426 25.75 12.75 24.7426 12.75 23.5C12.75 22.2574 11.7426 21.25 10.5 21.25C9.25736 21.25 8.25 22.2574 8.25 23.5C8.25 24.7426 9.25736 25.75 10.5 25.75Z" fill="black" stroke="#E6F7FF" stroke-width="1.5"/>
    <path d="M10.5 26.5C12.1569 26.5 13.5 25.1569 13.5 23.5C13.5 21.8431 12.1569 20.5 10.5 20.5C8.84315 20.5 7.5 21.8431 7.5 23.5C7.5 25.1569 8.84315 26.5 10.5 26.5Z" stroke="#E6F7FF"/>
    <path d="M3.5 49.75C4.74264 49.75 5.75 48.7426 5.75 47.5C5.75 46.2574 4.74264 45.25 3.5 45.25C2.25736 45.25 1.25 46.2574 1.25 47.5C1.25 48.7426 2.25736 49.75 3.5 49.75Z" fill="black" stroke="#E6F7FF" stroke-width="1.5"/>
    <path d="M3.5 50.5C5.15685 50.5 6.5 49.1569 6.5 47.5C6.5 45.8431 5.15685 44.5 3.5 44.5C1.84315 44.5 0.5 45.8431 0.5 47.5C0.5 49.1569 1.84315 50.5 3.5 50.5Z" stroke="#E6F7FF"/>
    <path d="M48.5 21.75C49.7426 21.75 50.75 20.7426 50.75 19.5C50.75 18.2574 49.7426 17.25 48.5 17.25C47.2574 17.25 46.25 18.2574 46.25 19.5C46.25 20.7426 47.2574 21.75 48.5 21.75Z" fill="black" stroke="#E6F7FF" stroke-width="1.5"/>
    <path d="M48.5 22.5C50.1569 22.5 51.5 21.1569 51.5 19.5C51.5 17.8431 50.1569 16.5 48.5 16.5C46.8431 16.5 45.5 17.8431 45.5 19.5C45.5 21.1569 46.8431 22.5 48.5 22.5Z" stroke="#E6F7FF"/>
    <path d="M91.5 26.75C92.7426 26.75 93.75 25.7426 93.75 24.5C93.75 23.2574 92.7426 22.25 91.5 22.25C90.2574 22.25 89.25 23.2574 89.25 24.5C89.25 25.7426 90.2574 26.75 91.5 26.75Z" fill="black" stroke="#E6F7FF" stroke-width="1.5"/>
    <path d="M91.5 27.5C93.1569 27.5 94.5 26.1569 94.5 24.5C94.5 22.8431 93.1569 21.5 91.5 21.5C89.8431 21.5 88.5 22.8431 88.5 24.5C88.5 26.1569 89.8431 27.5 91.5 27.5Z" stroke="#E6F7FF"/>
    <path d="M98.5 51.75C99.7426 51.75 100.75 50.7426 100.75 49.5C100.75 48.2574 99.7426 47.25 98.5 47.25C97.2574 47.25 96.25 48.2574 96.25 49.5C96.25 50.7426 97.2574 51.75 98.5 51.75Z" fill="black" stroke="#E6F7FF" stroke-width="1.5"/>
    <path d="M98.5 52.5C100.157 52.5 101.5 51.1569 101.5 49.5C101.5 47.8431 100.157 46.5 98.5 46.5C96.8431 46.5 95.5 47.8431 95.5 49.5C95.5 51.1569 96.8431 52.5 98.5 52.5Z" stroke="#E6F7FF"/>
    <path d="M58.5 72.75C59.7426 72.75 60.75 71.7426 60.75 70.5C60.75 69.2574 59.7426 68.25 58.5 68.25C57.2574 68.25 56.25 69.2574 56.25 70.5C56.25 71.7426 57.2574 72.75 58.5 72.75Z" fill="black" stroke="#E6F7FF" stroke-width="1.5"/>
    <path d="M58.5 73.5C60.1569 73.5 61.5 72.1569 61.5 70.5C61.5 68.8431 60.1569 67.5 58.5 67.5C56.8431 67.5 55.5 68.8431 55.5 70.5C55.5 72.1569 56.8431 73.5 58.5 73.5Z" stroke="#E6F7FF"/>
</svg>
