<svg width="90" height="93" viewBox="0 0 90 93" fill="none" xmlns="http://www.w3.org/2000/svg">
    <g clip-path="url(#clip0_1951_11031)">
        <g clip-path="url(#clip1_1951_11031)">
            <path fill-rule="evenodd" clip-rule="evenodd" d="M73.75 32.5898C73.75 48.3294 60.9934 61.0898 45.25 61.0898C29.5066 61.0898 16.75 48.3294 16.75 32.5898C16.75 16.8502 29.5066 4.08984 45.25 4.08984C60.9934 4.08984 73.75 16.8502 73.75 32.5898Z" stroke="#849FAD" stroke-width="2" stroke-linecap="round" stroke-linejoin="round"/>
            <path fill-rule="evenodd" clip-rule="evenodd" d="M58.75 62.5898C58.75 78.3294 45.9934 91.0898 30.25 91.0898C14.5066 91.0898 1.75 78.3294 1.75 62.5898C1.75 46.8502 14.5066 34.0898 30.25 34.0898C45.9934 34.0898 58.75 46.8502 58.75 62.5898Z" stroke="#849FAD" stroke-width="2" stroke-linecap="round" stroke-linejoin="round"/>
            <path fill-rule="evenodd" clip-rule="evenodd" d="M88.75 62.5898C88.75 78.3294 75.9934 91.0898 60.25 91.0898C44.5066 91.0898 31.75 78.3294 31.75 62.5898C31.75 46.8502 44.5066 34.0898 60.25 34.0898C75.9934 34.0898 88.75 46.8502 88.75 62.5898Z" stroke="#849FAD" stroke-width="2" stroke-linecap="round" stroke-linejoin="round"/>
            <path d="M35 58.0898C35 56.8472 33.9926 55.8398 32.75 55.8398C31.5074 55.8398 30.5 56.8472 30.5 58.0898C30.5 59.3325 31.5074 60.3398 32.75 60.3398C33.9926 60.3398 35 59.3325 35 58.0898Z" fill="black" stroke="#5DA2DF" stroke-width="1.5"/>
            <path d="M35.75 58.0898C35.75 56.433 34.4069 55.0898 32.75 55.0898C31.0931 55.0898 29.75 56.433 29.75 58.0898C29.75 59.7467 31.0931 61.0898 32.75 61.0898C34.4069 61.0898 35.75 59.7467 35.75 58.0898Z" stroke="#5DA2DF"/>
            <path d="M61 58.0898C61 56.8472 59.9926 55.8398 58.75 55.8398C57.5074 55.8398 56.5 56.8472 56.5 58.0898C56.5 59.3325 57.5074 60.3398 58.75 60.3398C59.9926 60.3398 61 59.3325 61 58.0898Z" fill="black" stroke="#5DA2DF" stroke-width="1.5"/>
            <path d="M61.75 58.0898C61.75 56.433 60.4069 55.0898 58.75 55.0898C57.0931 55.0898 55.75 56.433 55.75 58.0898C55.75 59.7467 57.0931 61.0898 58.75 61.0898C60.4069 61.0898 61.75 59.7467 61.75 58.0898Z" stroke="#5DA2DF"/>
            <path d="M48 38.0898C48 36.8472 46.9926 35.8398 45.75 35.8398C44.5074 35.8398 43.5 36.8472 43.5 38.0898C43.5 39.3325 44.5074 40.3398 45.75 40.3398C46.9926 40.3398 48 39.3325 48 38.0898Z" fill="black" stroke="#5DA2DF" stroke-width="1.5"/>
            <path d="M48.75 38.0898C48.75 36.433 47.4069 35.0898 45.75 35.0898C44.0931 35.0898 42.75 36.433 42.75 38.0898C42.75 39.7467 44.0931 41.0898 45.75 41.0898C47.4069 41.0898 48.75 39.7467 48.75 38.0898Z" stroke="#5DA2DF"/>
            <path d="M47 4.08984C47 2.8472 45.9926 1.83984 44.75 1.83984C43.5074 1.83984 42.5 2.8472 42.5 4.08984C42.5 5.33248 43.5074 6.33984 44.75 6.33984C45.9926 6.33984 47 5.33248 47 4.08984Z" fill="black" stroke="#5DA2DF" stroke-width="1.5"/>
            <path d="M47.75 4.08984C47.75 2.43299 46.4069 1.08984 44.75 1.08984C43.0931 1.08984 41.75 2.43299 41.75 4.08984C41.75 5.7467 43.0931 7.08984 44.75 7.08984C46.4069 7.08984 47.75 5.7467 47.75 4.08984Z" stroke="#5DA2DF"/>
            <path d="M88 75.0898C88 73.8472 86.9926 72.8398 85.75 72.8398C84.5074 72.8398 83.5 73.8472 83.5 75.0898C83.5 76.3325 84.5074 77.3398 85.75 77.3398C86.9926 77.3398 88 76.3325 88 75.0898Z" fill="black" stroke="#5DA2DF" stroke-width="1.5"/>
            <path d="M88.75 75.0898C88.75 73.433 87.4069 72.0898 85.75 72.0898C84.0931 72.0898 82.75 73.433 82.75 75.0898C82.75 76.7467 84.0931 78.0898 85.75 78.0898C87.4069 78.0898 88.75 76.7467 88.75 75.0898Z" stroke="#5DA2DF"/>
            <path d="M7 74.0898C7 72.8472 5.99264 71.8398 4.75 71.8398C3.50736 71.8398 2.5 72.8472 2.5 74.0898C2.5 75.3325 3.50736 76.3398 4.75 76.3398C5.99264 76.3398 7 75.3325 7 74.0898Z" fill="black" stroke="#5DA2DF" stroke-width="1.5"/>
            <path d="M7.75 74.0898C7.75 72.433 6.40685 71.0898 4.75 71.0898C3.09315 71.0898 1.75 72.433 1.75 74.0898C1.75 75.7467 3.09315 77.0898 4.75 77.0898C6.40685 77.0898 7.75 75.7467 7.75 74.0898Z" stroke="#5DA2DF"/>
        </g>
    </g>
    <defs>
        <clipPath id="clip0_1951_11031">
            <rect width="90" height="92" fill="white" transform="translate(0 0.0898438)"/>
        </clipPath>
        <clipPath id="clip1_1951_11031">
            <rect width="89" height="92" fill="white" transform="translate(0.75 0.0898438)"/>
        </clipPath>
    </defs>
</svg>
