<svg width="83" height="71" viewBox="0 0 83 71" fill="none" xmlns="http://www.w3.org/2000/svg">
    <g clip-path="url(#clip0_1951_11093)">
        <path d="M41.186 68.4831C51.5225 60.7442 64.0769 59.0363 78.8494 63.3595C78.8077 48.6214 78.8077 32.7865 78.8494 15.8549C75.4624 14.6116 73.068 13.8299 71.6662 13.5098" stroke="#849FAD" stroke-width="2" stroke-linecap="round" stroke-linejoin="round"/>
        <path d="M41.1136 68.5082C45.6973 57.8539 55.7388 51.6155 71.2381 49.7931C71.2173 38.0892 71.2173 23.0345 71.2381 4.62891C59.0267 5.466 48.975 11.0418 41.083 21.3563" stroke="#849FAD" stroke-width="2" stroke-linecap="round" stroke-linejoin="round"/>
        <path d="M41.0605 68.4831C30.8932 60.7442 18.4233 59.0363 3.65082 63.3595C3.69246 48.6214 3.69246 32.7865 3.65082 15.8549C7.03777 14.6116 9.43217 13.8299 10.834 13.5098" stroke="#849FAD" stroke-width="2" stroke-linecap="round" stroke-linejoin="round"/>
        <path d="M41.1449 68.5082C36.722 57.8539 26.7609 51.6155 11.2616 49.7931C11.2824 38.0892 11.2824 23.0345 11.2616 4.62891C23.2928 5.466 33.2545 11.0418 41.1465 21.3563" stroke="#849FAD" stroke-width="2" stroke-linecap="round" stroke-linejoin="round"/>
        <path d="M41.1113 68.5175V20.9141" stroke="#849FAD" stroke-width="2" stroke-linecap="round" stroke-linejoin="round"/>
        <path d="M73.5 4.08984C73.5 2.8472 72.4926 1.83984 71.25 1.83984C70.0074 1.83984 69 2.8472 69 4.08984C69 5.33248 70.0074 6.33984 71.25 6.33984C72.4926 6.33984 73.5 5.33248 73.5 4.08984Z" fill="black" stroke="#5DA2DF" stroke-width="1.5"/>
        <path d="M74.25 4.08984C74.25 2.43299 72.9069 1.08984 71.25 1.08984C69.5931 1.08984 68.25 2.43299 68.25 4.08984C68.25 5.7467 69.5931 7.08984 71.25 7.08984C72.9069 7.08984 74.25 5.7467 74.25 4.08984Z" stroke="#5DA2DF"/>
        <path d="M13.5 4.08984C13.5 2.8472 12.4926 1.83984 11.25 1.83984C10.0074 1.83984 9 2.8472 9 4.08984C9 5.33248 10.0074 6.33984 11.25 6.33984C12.4926 6.33984 13.5 5.33248 13.5 4.08984Z" fill="black" stroke="#5DA2DF" stroke-width="1.5"/>
        <path d="M14.25 4.08984C14.25 2.43299 12.9069 1.08984 11.25 1.08984C9.59315 1.08984 8.25 2.43299 8.25 4.08984C8.25 5.7467 9.59315 7.08984 11.25 7.08984C12.9069 7.08984 14.25 5.7467 14.25 4.08984Z" stroke="#5DA2DF"/>
        <path d="M6 63.0898C6 61.8472 4.99264 60.8398 3.75 60.8398C2.50736 60.8398 1.5 61.8472 1.5 63.0898C1.5 64.3325 2.50736 65.3398 3.75 65.3398C4.99264 65.3398 6 64.3325 6 63.0898Z" fill="black" stroke="#5DA2DF" stroke-width="1.5"/>
        <path d="M6.75 63.0898C6.75 61.433 5.40685 60.0898 3.75 60.0898C2.09315 60.0898 0.75 61.433 0.75 63.0898C0.75 64.7467 2.09315 66.0898 3.75 66.0898C5.40685 66.0898 6.75 64.7467 6.75 63.0898Z" stroke="#5DA2DF"/>
        <path d="M81 63.0898C81 61.8472 79.9926 60.8398 78.75 60.8398C77.5074 60.8398 76.5 61.8472 76.5 63.0898C76.5 64.3325 77.5074 65.3398 78.75 65.3398C79.9926 65.3398 81 64.3325 81 63.0898Z" fill="black" stroke="#5DA2DF" stroke-width="1.5"/>
        <path d="M81.75 63.0898C81.75 61.433 80.4069 60.0898 78.75 60.0898C77.0931 60.0898 75.75 61.433 75.75 63.0898C75.75 64.7467 77.0931 66.0898 78.75 66.0898C80.4069 66.0898 81.75 64.7467 81.75 63.0898Z" stroke="#5DA2DF"/>
    </g>
    <defs>
        <clipPath id="clip0_1951_11093">
            <rect width="83" height="70" fill="white" transform="translate(0 0.0898438)"/>
        </clipPath>
    </defs>
</svg>
