<svg width="90" height="83" viewBox="0 0 90 83" fill="none" xmlns="http://www.w3.org/2000/svg">
    <g clip-path="url(#clip0_1951_11059)">
        <path d="M2.25 59.0898H88.25" stroke="#849FAD" stroke-width="2" stroke-linecap="round" stroke-linejoin="round"/>
        <path d="M2.25 4.08984H88.25" stroke="#849FAD" stroke-width="2" stroke-linecap="round" stroke-linejoin="round"/>
        <path fill-rule="evenodd" clip-rule="evenodd" d="M10.25 59.0898H81.25V4.08984H10.25V59.0898Z" stroke="#849FAD" stroke-width="2" stroke-linecap="round" stroke-linejoin="round"/>
        <path d="M45.25 59.0898V71.0898" stroke="#849FAD" stroke-width="2" stroke-linecap="round" stroke-linejoin="round"/>
        <path fill-rule="evenodd" clip-rule="evenodd" d="M50.25 76.0898C50.25 78.8532 48.01 81.0898 45.25 81.0898C42.49 81.0898 40.25 78.8532 40.25 76.0898C40.25 73.3298 42.49 71.0898 45.25 71.0898C48.01 71.0898 50.25 73.3298 50.25 76.0898Z" stroke="#849FAD" stroke-width="2" stroke-linecap="round" stroke-linejoin="round"/>
        <path d="M12.5 59.0898C12.5 57.8472 11.4926 56.8398 10.25 56.8398C9.00736 56.8398 8 57.8472 8 59.0898C8 60.3325 9.00736 61.3398 10.25 61.3398C11.4926 61.3398 12.5 60.3325 12.5 59.0898Z" fill="black" stroke="#5DA2DF" stroke-width="1.5"/>
        <path d="M13.25 59.0898C13.25 57.433 11.9069 56.0898 10.25 56.0898C8.59315 56.0898 7.25 57.433 7.25 59.0898C7.25 60.7467 8.59315 62.0898 10.25 62.0898C11.9069 62.0898 13.25 60.7467 13.25 59.0898Z" stroke="#5DA2DF"/>
        <path d="M47.5 76.0898C47.5 74.8472 46.4926 73.8398 45.25 73.8398C44.0074 73.8398 43 74.8472 43 76.0898C43 77.3325 44.0074 78.3398 45.25 78.3398C46.4926 78.3398 47.5 77.3325 47.5 76.0898Z" fill="black" stroke="#5DA2DF" stroke-width="1.5"/>
        <path d="M48.25 76.0898C48.25 74.433 46.9069 73.0898 45.25 73.0898C43.5931 73.0898 42.25 74.433 42.25 76.0898C42.25 77.7467 43.5931 79.0898 45.25 79.0898C46.9069 79.0898 48.25 77.7467 48.25 76.0898Z" stroke="#5DA2DF"/>
        <path d="M12.5 4.08984C12.5 2.8472 11.4926 1.83984 10.25 1.83984C9.00736 1.83984 8 2.8472 8 4.08984C8 5.33248 9.00736 6.33984 10.25 6.33984C11.4926 6.33984 12.5 5.33248 12.5 4.08984Z" fill="black" stroke="#5DA2DF" stroke-width="1.5"/>
        <path d="M13.25 4.08984C13.25 2.43299 11.9069 1.08984 10.25 1.08984C8.59315 1.08984 7.25 2.43299 7.25 4.08984C7.25 5.7467 8.59315 7.08984 10.25 7.08984C11.9069 7.08984 13.25 5.7467 13.25 4.08984Z" stroke="#5DA2DF"/>
        <path d="M83.5 59.0898C83.5 57.8472 82.4926 56.8398 81.25 56.8398C80.0074 56.8398 79 57.8472 79 59.0898C79 60.3325 80.0074 61.3398 81.25 61.3398C82.4926 61.3398 83.5 60.3325 83.5 59.0898Z" fill="black" stroke="#5DA2DF" stroke-width="1.5"/>
        <path d="M84.25 59.0898C84.25 57.433 82.9069 56.0898 81.25 56.0898C79.5931 56.0898 78.25 57.433 78.25 59.0898C78.25 60.7467 79.5931 62.0898 81.25 62.0898C82.9069 62.0898 84.25 60.7467 84.25 59.0898Z" stroke="#5DA2DF"/>
        <path d="M83.5 4.08984C83.5 2.8472 82.4926 1.83984 81.25 1.83984C80.0074 1.83984 79 2.8472 79 4.08984C79 5.33248 80.0074 6.33984 81.25 6.33984C82.4926 6.33984 83.5 5.33248 83.5 4.08984Z" fill="black" stroke="#5DA2DF" stroke-width="1.5"/>
        <path d="M84.25 4.08984C84.25 2.43299 82.9069 1.08984 81.25 1.08984C79.5931 1.08984 78.25 2.43299 78.25 4.08984C78.25 5.7467 79.5931 7.08984 81.25 7.08984C82.9069 7.08984 84.25 5.7467 84.25 4.08984Z" stroke="#5DA2DF"/>
        <path d="M24.75 37.2644L33.688 28.064L42.8869 35.6641L52.4608 30.4768L61.4227 39.9795L68.75 23.0898" stroke="#849FAD" stroke-linecap="round" stroke-linejoin="round"/>
        <path d="M26.5 38.0898C26.5 36.8472 25.4926 35.8398 24.25 35.8398C23.0074 35.8398 22 36.8472 22 38.0898C22 39.3325 23.0074 40.3398 24.25 40.3398C25.4926 40.3398 26.5 39.3325 26.5 38.0898Z" fill="black" stroke="#5DA2DF" stroke-width="1.5"/>
        <path d="M27.25 38.0898C27.25 36.433 25.9069 35.0898 24.25 35.0898C22.5931 35.0898 21.25 36.433 21.25 38.0898C21.25 39.7467 22.5931 41.0898 24.25 41.0898C25.9069 41.0898 27.25 39.7467 27.25 38.0898Z" stroke="#5DA2DF"/>
        <path d="M71.5 22.0898C71.5 20.8472 70.4926 19.8398 69.25 19.8398C68.0074 19.8398 67 20.8472 67 22.0898C67 23.3325 68.0074 24.3398 69.25 24.3398C70.4926 24.3398 71.5 23.3325 71.5 22.0898Z" fill="black" stroke="#5DA2DF" stroke-width="1.5"/>
        <path d="M72.25 22.0898C72.25 20.433 70.9069 19.0898 69.25 19.0898C67.5931 19.0898 66.25 20.433 66.25 22.0898C66.25 23.7467 67.5931 25.0898 69.25 25.0898C70.9069 25.0898 72.25 23.7467 72.25 22.0898Z" stroke="#5DA2DF"/>
    </g>
    <defs>
        <clipPath id="clip0_1951_11059">
            <rect width="89" height="82" fill="white" transform="translate(0.5 0.0898438)"/>
        </clipPath>
    </defs>
</svg>
