<svg width="97" height="97" viewBox="0 0 97 97" fill="none" xmlns="http://www.w3.org/2000/svg">
    <path d="M48.479 78.0242V31.5" stroke="#94BFD6" stroke-width="2" stroke-linecap="round" stroke-linejoin="round"/>
    <path d="M48.479 61.1295L60.979 50.0996" stroke="#94BFD6" stroke-width="2" stroke-linecap="round" stroke-linejoin="round"/>
    <path d="M48.479 32.2377L58.0623 15.7832" stroke="#94BFD6" stroke-width="2" stroke-linecap="round" stroke-linejoin="round"/>
    <path fill-rule="evenodd" clip-rule="evenodd" d="M38.479 15.5L48.479 31.5L38.479 15.5Z" stroke="#94BFD6" stroke-width="2" stroke-linecap="round" stroke-linejoin="round"/>
    <path d="M71.479 19.5L69.479 33.5" stroke="#94BFD6" stroke-width="2" stroke-linecap="round" stroke-linejoin="round"/>
    <path d="M82.479 27.5L69.479 33.5" stroke="#94BFD6" stroke-width="2" stroke-linecap="round" stroke-linejoin="round"/>
    <path d="M69.979 33.084L60.979 50.0007" stroke="#94BFD6" stroke-width="2" stroke-linecap="round" stroke-linejoin="round"/>
    <path d="M85.979 45L60.979 50" stroke="#94BFD6" stroke-width="2" stroke-linecap="round" stroke-linejoin="round"/>
    <path d="M48.479 61.1295L35.979 50.0996" stroke="#94BFD6" stroke-width="2" stroke-linecap="round" stroke-linejoin="round"/>
    <path d="M26.979 33.084L35.979 50.0007" stroke="#94BFD6" stroke-width="2" stroke-linecap="round" stroke-linejoin="round"/>
    <path d="M10.979 45L35.979 50" stroke="#94BFD6" stroke-width="2" stroke-linecap="round" stroke-linejoin="round"/>
    <path d="M85.479 45.479L92.458 38.5" stroke="#94BFD6" stroke-width="2" stroke-linecap="round" stroke-linejoin="round"/>
    <path d="M92.458 52.1113L85.479 45.1113" stroke="#94BFD6" stroke-width="2" stroke-linecap="round" stroke-linejoin="round"/>
    <path d="M25.479 19.5L27.479 33.5" stroke="#94BFD6" stroke-width="2" stroke-linecap="round" stroke-linejoin="round"/>
    <path d="M14.479 27.5L27.479 33.5" stroke="#94BFD6" stroke-width="2" stroke-linecap="round" stroke-linejoin="round"/>
    <path d="M11.479 45.479L4.49997 38.5" stroke="#94BFD6" stroke-width="2" stroke-linecap="round" stroke-linejoin="round"/>
    <path d="M4.5 52.1113L11.479 45.1113" stroke="#94BFD6" stroke-width="2" stroke-linecap="round" stroke-linejoin="round"/>
    <path d="M71.729 33.5C71.729 32.2574 70.7216 31.25 69.479 31.25C68.2364 31.25 67.229 32.2574 67.229 33.5C67.229 34.7426 68.2364 35.75 69.479 35.75C70.7216 35.75 71.729 34.7426 71.729 33.5Z" fill="black" stroke="#E6F7FF" stroke-width="1.5"/>
    <path d="M72.479 33.5C72.479 31.8431 71.1359 30.5 69.479 30.5C67.8221 30.5 66.479 31.8431 66.479 33.5C66.479 35.1569 67.8221 36.5 69.479 36.5C71.1359 36.5 72.479 35.1569 72.479 33.5Z" stroke="#E6F7FF"/>
    <path d="M50.729 29.5C50.729 28.2574 49.7216 27.25 48.479 27.25C47.2364 27.25 46.229 28.2574 46.229 29.5C46.229 30.7426 47.2364 31.75 48.479 31.75C49.7216 31.75 50.729 30.7426 50.729 29.5Z" fill="black" stroke="#E6F7FF" stroke-width="1.5"/>
    <path d="M51.479 29.5C51.479 27.8431 50.1359 26.5 48.479 26.5C46.8221 26.5 45.479 27.8431 45.479 29.5C45.479 31.1569 46.8221 32.5 48.479 32.5C50.1359 32.5 51.479 31.1569 51.479 29.5Z" stroke="#E6F7FF"/>
    <path d="M29.729 33.5C29.729 32.2574 28.7216 31.25 27.479 31.25C26.2364 31.25 25.229 32.2574 25.229 33.5C25.229 34.7426 26.2364 35.75 27.479 35.75C28.7216 35.75 29.729 34.7426 29.729 33.5Z" fill="black" stroke="#E6F7FF" stroke-width="1.5"/>
    <path d="M30.479 33.5C30.479 31.8431 29.1359 30.5 27.479 30.5C25.8221 30.5 24.479 31.8431 24.479 33.5C24.479 35.1569 25.8221 36.5 27.479 36.5C29.1359 36.5 30.479 35.1569 30.479 33.5Z" stroke="#E6F7FF"/>
    <path d="M50.729 78.5C50.729 77.2574 49.7216 76.25 48.479 76.25C47.2364 76.25 46.229 77.2574 46.229 78.5C46.229 79.7426 47.2364 80.75 48.479 80.75C49.7216 80.75 50.729 79.7426 50.729 78.5Z" fill="black" stroke="#E6F7FF" stroke-width="1.5"/>
    <path d="M51.479 78.5C51.479 76.8431 50.1359 75.5 48.479 75.5C46.8221 75.5 45.479 76.8431 45.479 78.5C45.479 80.1569 46.8221 81.5 48.479 81.5C50.1359 81.5 51.479 80.1569 51.479 78.5Z" stroke="#E6F7FF"/>
    <path d="M89.729 45C89.729 43.7574 88.7216 42.75 87.479 42.75C86.2364 42.75 85.229 43.7574 85.229 45C85.229 46.2426 86.2364 47.25 87.479 47.25C88.7216 47.25 89.729 46.2426 89.729 45Z" fill="black" stroke="#E6F7FF" stroke-width="1.5"/>
    <path d="M90.479 45C90.479 43.3431 89.1359 42 87.479 42C85.8221 42 84.479 43.3431 84.479 45C84.479 46.6569 85.8221 48 87.479 48C89.1359 48 90.479 46.6569 90.479 45Z" stroke="#E6F7FF"/>
    <path d="M12.729 45C12.729 43.7574 11.7216 42.75 10.479 42.75C9.23636 42.75 8.229 43.7574 8.229 45C8.229 46.2426 9.23636 47.25 10.479 47.25C11.7216 47.25 12.729 46.2426 12.729 45Z" fill="black" stroke="#E6F7FF" stroke-width="1.5"/>
    <path d="M13.479 45C13.479 43.3431 12.1359 42 10.479 42C8.82215 42 7.479 43.3431 7.479 45C7.479 46.6569 8.82215 48 10.479 48C12.1359 48 13.479 46.6569 13.479 45Z" stroke="#E6F7FF"/>
</svg>
