<svg width="97" height="97" viewBox="0 0 97 97" fill="none" xmlns="http://www.w3.org/2000/svg">
    <path d="M66.0884 31.3284V20.1686L75.3742 10.1699L79.8667 17.3045" stroke="#BE4444" stroke-width="2" stroke-linecap="round" stroke-linejoin="round"/>
    <path d="M65.945 31.2461H77.1048L87.1035 21.9603L79.969 17.4677" stroke="#BE4444" stroke-width="2" stroke-linecap="round" stroke-linejoin="round"/>
    <path d="M48.6568 38.7693C47.7125 38.5572 46.7303 38.4453 45.722 38.4453C38.3582 38.4453 32.3887 44.4148 32.3887 51.7786C32.3887 59.1424 38.3582 65.112 45.722 65.112C53.0858 65.112 59.0553 59.1424 59.0553 51.7786C59.0553 50.8686 58.9642 49.9798 58.7904 49.121" stroke="#BE4444" stroke-width="2" stroke-linecap="round" stroke-linejoin="round"/>
    <path d="M58.5145 29.3931C58.0372 29.1197 57.5503 28.8612 57.0544 28.6181C53.6342 26.9414 49.7881 26 45.7221 26C31.4854 26 19.9443 37.5411 19.9443 51.7778C19.9443 66.0145 31.4854 77.5556 45.7221 77.5556C59.9588 77.5556 71.4999 66.0145 71.4999 51.7778C71.4999 47.3966 70.4069 43.2707 68.4787 39.6579C68.1795 39.0972 67.8602 38.5489 67.5217 38.0139" stroke="#BE4444" stroke-width="2" stroke-linecap="round" stroke-linejoin="round"/>
    <path d="M66.5139 19.699C60.5296 15.8123 53.3896 13.5547 45.7222 13.5547C24.6127 13.5547 7.5 30.6674 7.5 51.7769C7.5 72.8865 24.6127 89.9991 45.7222 89.9991C66.8318 89.9991 83.9444 72.8865 83.9444 51.7769C83.9444 44.0311 81.6404 36.8234 77.6802 30.8019" stroke="#BE4444" stroke-width="2" stroke-linecap="round" stroke-linejoin="round"/>
    <path d="M85.923 11.1543L45.8975 51.8619" stroke="#BE4444" stroke-width="2" stroke-linecap="round" stroke-linejoin="round"/>
    <path d="M48.25 52C48.25 50.7574 47.2426 49.75 46 49.75C44.7574 49.75 43.75 50.7574 43.75 52C43.75 53.2426 44.7574 54.25 46 54.25C47.2426 54.25 48.25 53.2426 48.25 52Z" fill="black" stroke="#F27979" stroke-width="1.5"/>
    <path d="M49 52C49 50.3431 47.6569 49 46 49C44.3431 49 43 50.3431 43 52C43 53.6569 44.3431 55 46 55C47.6569 55 49 53.6569 49 52Z" stroke="#F27979"/>
    <path d="M88.75 11C88.75 9.75736 87.7426 8.75 86.5 8.75C85.2574 8.75 84.25 9.75736 84.25 11C84.25 12.2426 85.2574 13.25 86.5 13.25C87.7426 13.25 88.75 12.2426 88.75 11Z" fill="black" stroke="#F27979" stroke-width="1.5"/>
    <path d="M89.5 11C89.5 9.34315 88.1569 8 86.5 8C84.8431 8 83.5 9.34315 83.5 11C83.5 12.6569 84.8431 14 86.5 14C88.1569 14 89.5 12.6569 89.5 11Z" stroke="#F27979"/>
    <path d="M68.75 20C68.75 18.7574 67.7426 17.75 66.5 17.75C65.2574 17.75 64.25 18.7574 64.25 20C64.25 21.2426 65.2574 22.25 66.5 22.25C67.7426 22.25 68.75 21.2426 68.75 20Z" fill="black" stroke="#F27979" stroke-width="1.5"/>
    <path d="M69.5 20C69.5 18.3431 68.1569 17 66.5 17C64.8431 17 63.5 18.3431 63.5 20C63.5 21.6569 64.8431 23 66.5 23C68.1569 23 69.5 21.6569 69.5 20Z" stroke="#F27979"/>
    <path d="M79.75 31C79.75 29.7574 78.7426 28.75 77.5 28.75C76.2574 28.75 75.25 29.7574 75.25 31C75.25 32.2426 76.2574 33.25 77.5 33.25C78.7426 33.25 79.75 32.2426 79.75 31Z" fill="black" stroke="#F27979" stroke-width="1.5"/>
    <path d="M80.5 31C80.5 29.3431 79.1569 28 77.5 28C75.8431 28 74.5 29.3431 74.5 31C74.5 32.6569 75.8431 34 77.5 34C79.1569 34 80.5 32.6569 80.5 31Z" stroke="#F27979"/>
</svg>
