<svg width="99" height="97" viewBox="0 0 99 97" fill="none" xmlns="http://www.w3.org/2000/svg">
    <path d="M43.4912 66.0093L47.2361 64.5176H53.9999L57.8529 66.0093" stroke="#BE4444" stroke-width="2" stroke-linecap="round" stroke-linejoin="round"/>
    <path d="M43.5117 65.9501C43.5117 57.5832 43.5117 52.7207 43.5117 51.3626C43.5117 49.3255 45.992 46.0703 47.2129 46.0703" stroke="#BE4444" stroke-width="2" stroke-linecap="round" stroke-linejoin="round"/>
    <path d="M47.292 64.5411C47.292 31.1849 47.292 13.8887 47.292 12.6523C47.292 10.7978 50.0657 4 50.5938 4" stroke="#BE4444" stroke-width="2" stroke-linecap="round" stroke-linejoin="round"/>
    <path d="M57.8179 65.9742C57.8179 57.555 57.8179 52.6664 57.8179 51.3083C57.8179 49.2712 55.3267 46.1973 54.3212 46.1973" stroke="#BE4444" stroke-width="2" stroke-linecap="round" stroke-linejoin="round"/>
    <path d="M53.8716 64.5411C53.8716 31.1849 53.8716 13.8887 53.8716 12.6523C53.8716 10.7978 51.0979 4 50.5698 4" stroke="#BE4444" stroke-width="2" stroke-linecap="round" stroke-linejoin="round"/>
    <path d="M47.5083 12.3438H53.3886" stroke="#BE4444" stroke-width="2" stroke-linecap="round" stroke-linejoin="round"/>
    <path d="M47.3384 15.543H53.3889" stroke="#BE4444" stroke-width="2" stroke-linecap="round" stroke-linejoin="round"/>
    <path d="M48.2173 66.4707V72.9594" stroke="#BE4444" stroke-width="2" stroke-linecap="round" stroke-linejoin="round"/>
    <path d="M53.3042 66.4668V73.2436" stroke="#BE4444" stroke-width="2" stroke-linecap="round" stroke-linejoin="round"/>
    <path d="M47.1032 75.4551C45.7979 75.4551 44.539 76.3336 44.1509 77.7184C42.8399 77.3641 41.4479 78.2853 41.1253 79.5224C40.8026 80.7595 41.6986 82.2261 42.7801 82.4983" stroke="#BE4444" stroke-width="2" stroke-linecap="round" stroke-linejoin="round"/>
    <path d="M53.2494 75.4551C54.5547 75.4551 55.8135 76.3336 56.2017 77.7184C57.5126 77.3641 58.9046 78.2853 59.2273 79.5224C59.5499 80.7595 58.6539 82.2261 57.5725 82.4983" stroke="#BE4444" stroke-width="2" stroke-linecap="round" stroke-linejoin="round"/>
    <path d="M41.1446 81.1027C39.2467 80.8488 36.8062 81.2884 36.0791 84.7209" stroke="#BE4444" stroke-width="2" stroke-linecap="round" stroke-linejoin="round"/>
    <path d="M38.4515 88.0529C38.1504 85.9536 36.3015 84.3056 34.2634 84.2989C33.6043 84.2967 32.9995 84.4073 32.4492 84.6307" stroke="#BE4444" stroke-width="2" stroke-linecap="round" stroke-linejoin="round"/>
    <path d="M21.5645 85.6178C21.1994 83.7126 22.5133 80.6685 26.2516 80.1217C29.9899 79.5748 32.9719 82.6831 32.3975 85.6178" stroke="#BE4444" stroke-width="2" stroke-linecap="round" stroke-linejoin="round"/>
    <path d="M22.5151 77.6387C23.7187 77.6924 25.2085 78.5859 25.3135 80.3738" stroke="#BE4444" stroke-width="2" stroke-linecap="round" stroke-linejoin="round"/>
    <path d="M24.0543 77.9153C24.2507 77.3168 24.357 76.6774 24.357 76.0132C24.357 72.6469 21.628 69.918 18.2617 69.918C14.8954 69.918 12.1665 72.6469 12.1665 76.0132C12.1665 77.2524 12.5363 78.4052 13.1716 79.3674" stroke="#BE4444" stroke-width="2" stroke-linecap="round" stroke-linejoin="round"/>
    <path d="M13.8962 71.7406C12.9186 70.6235 11.4823 69.918 9.88119 69.918C6.93567 69.918 4.54785 72.3058 4.54785 75.2513C4.54785 76.1746 4.78249 77.0432 5.19539 77.8005" stroke="#BE4444" stroke-width="2" stroke-linecap="round" stroke-linejoin="round"/>
    <path d="M10.852 79.364C9.87437 78.2444 8.43645 77.5371 6.83333 77.5371C3.88781 77.5371 1.5 79.9249 1.5 82.8704C1.5 85.6244 3.58732 87.8908 6.26621 88.174" stroke="#BE4444" stroke-width="2" stroke-linecap="round" stroke-linejoin="round"/>
    <path d="M6.13721 88.1187V90.2474H94.377V86.9766" stroke="#BE4444" stroke-width="2" stroke-linecap="round" stroke-linejoin="round"/>
    <path d="M54.1393 82.7348C53.3313 81.4442 51.8968 80.5859 50.2619 80.5859C47.9316 80.5859 46.0085 82.3295 45.7261 84.5833C45.7026 84.7713 45.6904 84.9629 45.6904 85.1574" stroke="#BE4444" stroke-width="2" stroke-linecap="round" stroke-linejoin="round"/>
    <path d="M57.8906 82.8282C58.7905 81.6028 59.9721 81.0238 61.4355 81.0912C63.6304 81.1923 64.8679 83.4835 64.027 85.1929" stroke="#BE4444" stroke-width="2" stroke-linecap="round" stroke-linejoin="round"/>
    <path d="M64.0762 85.0465C64.8867 84.4766 65.688 84.2359 66.48 84.3245C67.272 84.4131 67.9227 84.8886 68.4319 85.7511" stroke="#BE4444" stroke-width="2" stroke-linecap="round" stroke-linejoin="round"/>
    <path d="M68.4191 85.7648C68.1726 83.805 68.9046 82.1743 70.6151 80.8727C72.0589 79.774 73.7313 79.6027 75.6323 80.3588" stroke="#BE4444" stroke-width="2" stroke-linecap="round" stroke-linejoin="round"/>
    <path d="M75.1631 80.1355C75.3566 79.1743 75.8144 78.5273 76.5364 78.1946C77.6195 77.6955 79.1901 78.2038 79.2988 79.8956" stroke="#BE4444" stroke-width="2" stroke-linecap="round" stroke-linejoin="round"/>
    <path d="M86.866 72.019C85.7485 70.7319 84.1002 69.918 82.2617 69.918C78.8954 69.918 76.1665 72.6469 76.1665 76.0132C76.1665 76.7942 76.3134 77.5409 76.581 78.2272" stroke="#BE4444" stroke-width="2" stroke-linecap="round" stroke-linejoin="round"/>
    <path d="M94.4522 69.9195C94.4522 66.5531 91.7233 63.8242 88.357 63.8242C84.9906 63.8242 82.2617 66.5531 82.2617 69.9195" stroke="#BE4444" stroke-width="2" stroke-linecap="round" stroke-linejoin="round"/>
    <path d="M96.4065 79.4977C97.0958 78.5101 97.5 77.3089 97.5 76.0132C97.5 72.6469 94.7711 69.918 91.4048 69.918C88.0385 69.918 85.3096 72.6469 85.3096 76.0132C85.3096 77.2105 85.6548 78.3272 86.2511 79.2692" stroke="#BE4444" stroke-width="2" stroke-linecap="round" stroke-linejoin="round"/>
    <path d="M94.374 87.7277C96.2181 86.8883 97.5001 85.0294 97.5001 82.8712C97.5001 81.5742 97.0371 80.3854 96.2675 79.4609" stroke="#BE4444" stroke-width="2" stroke-linecap="round" stroke-linejoin="round"/>
    <path d="M54 48.25C55.2426 48.25 56.25 47.2426 56.25 46C56.25 44.7574 55.2426 43.75 54 43.75C52.7574 43.75 51.75 44.7574 51.75 46C51.75 47.2426 52.7574 48.25 54 48.25Z" fill="black" stroke="#F27979" stroke-width="1.5"/>
    <path d="M54 49C55.6569 49 57 47.6569 57 46C57 44.3431 55.6569 43 54 43C52.3431 43 51 44.3431 51 46C51 47.6569 52.3431 49 54 49Z" stroke="#F27979"/>
    <path d="M47 48.25C48.2426 48.25 49.25 47.2426 49.25 46C49.25 44.7574 48.2426 43.75 47 43.75C45.7574 43.75 44.75 44.7574 44.75 46C44.75 47.2426 45.7574 48.25 47 48.25Z" fill="black" stroke="#F27979" stroke-width="1.5"/>
    <path d="M47 49C48.6569 49 50 47.6569 50 46C50 44.3431 48.6569 43 47 43C45.3431 43 44 44.3431 44 46C44 47.6569 45.3431 49 47 49Z" stroke="#F27979"/>
    <path d="M94.5 92.25C95.7426 92.25 96.75 91.2426 96.75 90C96.75 88.7574 95.7426 87.75 94.5 87.75C93.2574 87.75 92.25 88.7574 92.25 90C92.25 91.2426 93.2574 92.25 94.5 92.25Z" fill="black" stroke="#F27979" stroke-width="1.5"/>
    <path d="M94.5 93C96.1569 93 97.5 91.6569 97.5 90C97.5 88.3431 96.1569 87 94.5 87C92.8431 87 91.5 88.3431 91.5 90C91.5 91.6569 92.8431 93 94.5 93Z" stroke="#F27979"/>
    <path d="M6.5 92.25C7.74264 92.25 8.75 91.2426 8.75 90C8.75 88.7574 7.74264 87.75 6.5 87.75C5.25736 87.75 4.25 88.7574 4.25 90C4.25 91.2426 5.25736 92.25 6.5 92.25Z" fill="black" stroke="#F27979" stroke-width="1.5"/>
    <path d="M6.5 93C8.15685 93 9.5 91.6569 9.5 90C9.5 88.3431 8.15685 87 6.5 87C4.84315 87 3.5 88.3431 3.5 90C3.5 91.6569 4.84315 93 6.5 93Z" stroke="#F27979"/>
</svg>
