<svg width="179" height="32" viewBox="0 0 179 32" fill="none" xmlns="http://www.w3.org/2000/svg">
<path d="M11.7646 4H12.6262C13.0359 4 13.3679 4.33204 13.3679 4.74168C13.3679 5.15132 13.0359 5.48335 12.6262 5.48335H11.7646C11.355 5.48335 11.0229 5.15132 11.0229 4.74168C11.0229 4.33204 11.355 4 11.7646 4Z" fill="#BE9A94"/>
<path d="M13.7042 6.8264H10.0212C9.61157 6.8264 9.27951 7.15861 9.27951 7.56823C9.27951 7.97785 9.61157 8.30991 10.0212 8.30991H13.7042C14.1138 8.30991 14.4458 7.97769 14.4458 7.56807C14.4458 7.15846 14.1138 6.8264 13.7042 6.8264Z" fill="#BE9A94"/>
<path d="M13.4392 9.65279H7.74505C7.33543 9.65279 7.00337 9.98501 7.00337 10.3946C7.00337 10.8042 7.33543 11.1363 7.74505 11.1363H13.4392C13.8488 11.1363 14.1809 10.8041 14.1809 10.3945C14.1809 9.98485 13.8488 9.65279 13.4392 9.65279Z" fill="#BE9A94"/>
<path d="M11.7265 12.479H5.64528C5.23566 12.479 4.9036 12.8113 4.9036 13.2209C4.9036 13.6305 5.23566 13.9625 5.64528 13.9625H11.7265C12.1361 13.9625 12.4682 13.6303 12.4682 13.2207C12.4682 12.8111 12.1361 12.479 11.7265 12.479Z" fill="#BE9A94"/>
<path d="M9.19783 15.3054H5.14158C4.73196 15.3054 4.3999 15.6376 4.3999 16.0473C4.3999 16.4569 4.73196 16.7889 5.14158 16.7889H9.19783C9.60745 16.7889 9.93951 16.4567 9.93951 16.0471C9.93951 15.6375 9.60745 15.3054 9.19783 15.3054Z" fill="#BE9A94"/>
<path d="M7.1581 18.1318H6.2189C5.80928 18.1318 5.47722 18.464 5.47722 18.8737C5.47722 19.2833 5.80928 19.6153 6.2189 19.6153H7.1581C7.56772 19.6153 7.89978 19.2831 7.89978 18.8735C7.89978 18.4639 7.56772 18.1318 7.1581 18.1318Z" fill="#BE9A94"/>
<path d="M16.642 10.2142C16.5909 10.1579 16.4973 10.1825 16.4812 10.257C15.4025 15.202 9.11475 19.0116 9.11475 22.6117C9.11475 24.0746 9.53285 25.49 10.2958 26.7035C10.3462 26.7835 10.4684 26.7625 10.4891 26.6703C11.0405 24.2211 12.3835 22.0087 14.3253 20.3862C14.3624 20.3551 14.4134 20.4025 14.3855 20.442C12.8427 22.6209 12.0001 25.2278 11.7712 27.8923C11.762 28.0006 11.9088 28.0426 11.9584 27.9458C15.0325 21.9536 19.2577 21.0763 19.2588 15.9878V15.9868C19.2588 13.3726 18.144 11.8705 16.642 10.2142Z" fill="#BE9A94"/>
<path d="M34.103 12.7231C34.103 12.811 34.0708 13.0044 34.0063 13.3032C33.9419 13.6021 33.8745 13.9976 33.8042 14.4897C33.7397 14.9819 33.7075 15.5034 33.7075 16.0542C33.7075 16.4819 33.7251 16.8745 33.7603 17.2319C33.7954 17.5835 33.854 17.9468 33.936 18.3218C34.0239 18.6909 34.147 19.0161 34.3052 19.2974C34.4692 19.5786 34.6685 19.8335 34.9028 20.062C35.1372 20.2847 35.4302 20.4575 35.7817 20.5806C36.1333 20.6978 36.5347 20.7563 36.9858 20.7563C37.4019 20.7563 37.7915 20.7095 38.1548 20.6157C38.5181 20.522 38.7935 20.4194 38.981 20.3081C39.1743 20.1909 39.3501 20.0854 39.5083 19.9917C39.6724 19.8979 39.7866 19.8511 39.8511 19.8511C39.9917 19.8511 40.062 19.9243 40.062 20.0708C40.062 20.1587 40.0239 20.2817 39.9478 20.4399C39.8774 20.5981 39.7485 20.7827 39.561 20.9937C39.3735 21.2046 39.145 21.4009 38.8755 21.5825C38.6118 21.7642 38.2544 21.9165 37.8032 22.0396C37.3521 22.1685 36.8569 22.2329 36.3179 22.2329C35.4624 22.2329 34.7417 22.104 34.1558 21.8462C33.5698 21.5884 33.1099 21.2017 32.7759 20.686C32.4478 20.1704 32.2134 19.5757 32.0728 18.9019C31.938 18.228 31.8706 17.4224 31.8706 16.4849C31.8706 15.8228 31.9116 15.2251 31.9937 14.6919C32.0757 14.1587 32.1753 13.7778 32.2925 13.5493C32.439 13.2563 32.6675 13.0015 32.978 12.7847C33.2944 12.562 33.5815 12.4507 33.8394 12.4507C34.0151 12.4507 34.103 12.5415 34.103 12.7231ZM39.8862 10.4028C39.8862 10.6431 39.6694 10.9185 39.2358 11.229C39.0601 11.3755 38.8608 11.4487 38.6382 11.4487C38.5854 11.4487 38.5356 11.4458 38.4888 11.4399C38.4419 11.4282 38.3892 11.4136 38.3306 11.396C38.272 11.3726 38.2251 11.355 38.1899 11.3433C38.1548 11.3315 38.0962 11.3081 38.0142 11.2729C37.938 11.2378 37.8823 11.2114 37.8472 11.1938C37.2261 10.9302 36.6519 10.7983 36.1245 10.7983C35.0698 10.7983 34.0444 11.2378 33.0483 12.1167C33.019 12.1401 32.9751 12.1753 32.9165 12.2222C32.8579 12.269 32.811 12.3071 32.7759 12.3364C32.7466 12.3599 32.7085 12.3892 32.6616 12.4243C32.6206 12.4536 32.5825 12.4771 32.5474 12.4946C32.5181 12.5063 32.4917 12.5122 32.4683 12.5122C32.3335 12.5122 32.2661 12.439 32.2661 12.2925C32.2661 12.105 32.4243 11.812 32.7407 11.4136C33.2798 10.7456 33.9009 10.2358 34.604 9.88428C35.313 9.53271 36.1743 9.35693 37.188 9.35693C37.9673 9.35693 38.6792 9.51514 39.3237 9.83154C39.4351 9.88428 39.5142 9.92529 39.561 9.95459C39.6138 9.97803 39.6812 10.0337 39.7632 10.1216C39.8452 10.2095 39.8862 10.3032 39.8862 10.4028Z" fill="#BE9A94"/>
<path d="M45.4638 19.561V10.7632C45.4638 10.5171 45.5253 10.3208 45.6483 10.1743C45.8007 9.99268 46.0087 9.82861 46.2724 9.68213C46.536 9.52979 46.7528 9.45361 46.9228 9.45361C47.1278 9.45361 47.2304 9.57959 47.2304 9.83154V19.561C47.2304 19.772 47.1571 19.9126 47.0106 19.9829C46.87 20.0474 46.6503 20.0796 46.3515 20.0796C46.0233 20.0796 45.7919 20.0474 45.6571 19.9829C45.5282 19.9126 45.4638 19.772 45.4638 19.561ZM45.8241 20.519H51.7831C52.0351 20.519 52.161 20.6099 52.161 20.7915C52.161 20.8735 52.0995 21.0229 51.9765 21.2397C51.8593 21.4565 51.7216 21.6382 51.5634 21.7847C51.4345 21.9019 51.2206 21.9604 50.9218 21.9604H45.8241C45.5839 21.9604 45.4638 21.8345 45.4638 21.5825V20.897C45.4638 20.645 45.5839 20.519 45.8241 20.519Z" fill="#BE9A94"/>
<path d="M59.0569 9.83154V20.7388C59.0569 21.0259 58.9954 21.2397 58.8724 21.3804C58.7259 21.5562 58.5179 21.7114 58.2483 21.8462C57.9847 21.981 57.7679 22.0483 57.5979 22.0483C57.3929 22.0483 57.2903 21.9224 57.2903 21.6704V10.7632C57.2903 10.5171 57.3519 10.3208 57.4749 10.1743C57.6272 9.99268 57.8353 9.82861 58.0989 9.68213C58.3626 9.52979 58.5794 9.45361 58.7493 9.45361C58.9544 9.45361 59.0569 9.57959 59.0569 9.83154Z" fill="#BE9A94"/>
<path d="M66.4099 15.8081C66.4685 16.0542 66.4978 16.3677 66.4978 16.7485V20.7915C66.4978 21.0728 66.4392 21.2896 66.322 21.4419C66.1813 21.606 66.0026 21.7495 65.7858 21.8726C65.569 21.9897 65.4167 22.0483 65.3288 22.0483C65.1237 22.0483 65.0212 21.9224 65.0212 21.6704V13.3472C65.0212 13.2769 65.0388 13.2212 65.0739 13.1802C65.1091 13.1333 65.153 13.1099 65.2058 13.1099C65.2937 13.1099 65.3815 13.1978 65.4694 13.3735C65.5632 13.5493 65.7272 13.9243 65.9616 14.4985C66.2077 15.1138 66.3571 15.5503 66.4099 15.8081ZM68.572 19.8071L65.0739 10.7104C65.0271 10.5991 65.0036 10.4907 65.0036 10.3853C65.0036 10.2446 65.0593 10.1128 65.1706 9.98975C65.3054 9.82568 65.4841 9.69678 65.7067 9.60303C65.9294 9.50342 66.1022 9.45361 66.2253 9.45361C66.3542 9.45361 66.4538 9.48291 66.5241 9.5415C66.6003 9.6001 66.6706 9.7085 66.7351 9.8667L69.7058 17.856C69.8112 18.1431 69.864 18.3774 69.864 18.5591C69.864 18.7056 69.8288 18.8813 69.7585 19.0864C69.6179 19.4438 69.4802 19.7251 69.3454 19.9302C69.2224 20.1235 69.0905 20.2202 68.9499 20.2202C68.8796 20.2202 68.8151 20.1909 68.7565 20.1323C68.698 20.0737 68.6364 19.9653 68.572 19.8071ZM73.2653 15.6938L71.4284 20.4663C71.2351 20.9468 70.9304 21.3306 70.5144 21.6177C70.1101 21.9048 69.7966 22.0483 69.5739 22.0483C69.3981 22.0483 69.3103 21.9663 69.3103 21.8022C69.3103 21.7319 69.3396 21.6294 69.3981 21.4946L72.9929 11.9673C73.0983 11.7505 73.1833 11.6274 73.2478 11.5981C73.2829 11.5806 73.3181 11.5718 73.3532 11.5718C73.488 11.5718 73.573 11.686 73.6081 11.9146C73.6433 12.1196 73.6608 12.5942 73.6608 13.3384C73.6608 13.8013 73.6345 14.2085 73.5817 14.5601C73.5349 14.9058 73.4294 15.2837 73.2653 15.6938ZM75.9548 9.83154V20.7388C75.9548 21.0259 75.8962 21.2397 75.779 21.3804C75.6325 21.5562 75.4216 21.7114 75.1462 21.8462C74.8767 21.981 74.6569 22.0483 74.487 22.0483C74.2878 22.0483 74.1882 21.9224 74.1882 21.6704V10.7632C74.1882 10.5171 74.2468 10.3208 74.364 10.1743C74.5163 9.99268 74.7272 9.82861 74.9968 9.68213C75.2663 9.52979 75.4831 9.45361 75.6472 9.45361C75.8522 9.45361 75.9548 9.57959 75.9548 9.83154Z" fill="#BE9A94"/>
<path d="M83.4044 19.2534L82.9122 20.7388C82.7892 21.1138 82.5753 21.4272 82.2706 21.6792C81.9659 21.9253 81.6231 22.0483 81.2423 22.0483C81.1485 22.0483 81.0694 22.022 81.005 21.9692C80.9464 21.9224 80.9171 21.8521 80.9171 21.7583C80.9171 21.7231 80.9288 21.6704 80.9522 21.6001L81.796 19.1831C81.837 19.0601 81.881 18.9663 81.9278 18.9019C81.9747 18.8315 82.0392 18.7817 82.1212 18.7524C82.2091 18.7231 82.2853 18.7056 82.3497 18.6997C82.42 18.6938 82.5372 18.6909 82.7013 18.6909C82.836 18.6909 82.9356 18.6938 83.0001 18.6997C83.0646 18.6997 83.1378 18.7085 83.2198 18.7261C83.3077 18.7437 83.3692 18.7759 83.4044 18.8228C83.4396 18.8638 83.4571 18.9224 83.4571 18.9985C83.4571 19.0513 83.4396 19.1362 83.4044 19.2534ZM86.296 9.73486L90.0401 20.6245C90.0812 20.812 90.1017 20.9175 90.1017 20.9409C90.1017 21.1929 89.9552 21.4419 89.6622 21.688C89.3692 21.9282 89.1114 22.0483 88.8888 22.0483C88.6954 22.0483 88.546 21.8989 88.4405 21.6001L84.7843 10.9302C84.7257 10.6665 84.6964 10.5259 84.6964 10.5083C84.6964 10.2505 84.8575 9.99561 85.1798 9.74365C85.5079 9.48584 85.7599 9.35693 85.9356 9.35693C86.0353 9.35693 86.1056 9.3833 86.1466 9.43604C86.1935 9.48291 86.2433 9.58252 86.296 9.73486ZM86.1378 18.1636H82.5694C82.3468 18.1636 82.2355 18.0669 82.2355 17.8735C82.2355 17.8208 82.2472 17.7622 82.2706 17.6978L84.0724 12.3101C84.1544 12.0815 84.2481 11.9673 84.3536 11.9673C84.4474 11.9673 84.5294 12.0259 84.5997 12.1431C84.67 12.2544 84.7462 12.436 84.8282 12.688C84.9806 13.1626 85.0567 13.5171 85.0567 13.7515C85.0567 13.9155 85.0274 14.0884 84.9688 14.27L84.2833 16.3618C84.2716 16.3911 84.2657 16.4321 84.2657 16.4849C84.2657 16.6431 84.3565 16.7222 84.5382 16.7222H85.4522C85.7511 16.7222 85.9532 16.7368 86.0587 16.7661C86.1642 16.7954 86.2491 16.8774 86.3136 17.0122C86.3722 17.1294 86.419 17.2817 86.4542 17.4692C86.4952 17.6509 86.5157 17.7856 86.5157 17.8735C86.5157 18.0669 86.3897 18.1636 86.1378 18.1636Z" fill="#BE9A94"/>
<path d="M101.559 11.0708H94.3608C94.1089 11.0708 93.9829 10.98 93.9829 10.7983C93.9829 10.7163 94.0415 10.5669 94.1587 10.3501C94.2759 10.1333 94.4136 9.95459 94.5718 9.81396C94.7065 9.69092 94.9233 9.62939 95.2222 9.62939H102.42C102.672 9.62939 102.798 9.72021 102.798 9.90186C102.798 9.98389 102.74 10.1333 102.623 10.3501C102.505 10.5669 102.368 10.7456 102.209 10.8862C102.075 11.0093 101.858 11.0708 101.559 11.0708ZM97.3491 21.6704L97.3403 12.1255C97.3403 11.9146 97.4106 11.7769 97.5513 11.7124C97.6978 11.6421 97.9204 11.6069 98.2192 11.6069C98.5474 11.6069 98.7759 11.6421 98.9048 11.7124C99.0396 11.7769 99.1069 11.9146 99.1069 12.1255V20.7388C99.1069 20.9907 99.0483 21.187 98.9312 21.3276C98.7788 21.5093 98.5679 21.6763 98.2983 21.8286C98.0347 21.9751 97.8208 22.0483 97.6567 22.0483C97.4517 22.0483 97.3491 21.9224 97.3491 21.6704Z" fill="#BE9A94"/>
<path d="M109.369 9.62939H114.106C114.358 9.62939 114.484 9.72021 114.484 9.90186C114.484 9.98389 114.426 10.1333 114.308 10.3501C114.191 10.561 114.051 10.7397 113.887 10.8862C113.752 11.0093 113.538 11.0708 113.245 11.0708H108.2C108.112 11.0708 108.048 11.0679 108.007 11.062C107.966 11.0503 107.928 11.0239 107.892 10.9829C107.863 10.9419 107.849 10.8833 107.849 10.8071C107.849 10.5903 108.018 10.3413 108.358 10.0601C108.704 9.77295 109.041 9.62939 109.369 9.62939ZM107.857 21.5825V17.2495C107.857 17.0386 107.928 16.9009 108.068 16.8364C108.215 16.7661 108.44 16.731 108.745 16.731C109.073 16.731 109.302 16.7661 109.431 16.8364C109.559 16.9009 109.624 17.0386 109.624 17.2495V20.1587C109.624 20.3989 109.744 20.519 109.984 20.519H114.282C114.534 20.519 114.66 20.6099 114.66 20.7915C114.66 20.8735 114.601 21.0259 114.484 21.2485C114.367 21.4653 114.229 21.644 114.071 21.7847C113.936 21.9019 113.72 21.9604 113.421 21.9604H108.165C107.96 21.9604 107.857 21.8345 107.857 21.5825ZM107.857 15.8433V12.1255C107.857 11.9146 107.928 11.7739 108.068 11.7036C108.215 11.6333 108.44 11.5981 108.745 11.5981C109.073 11.5981 109.302 11.6333 109.431 11.7036C109.559 11.7681 109.624 11.9087 109.624 12.1255V14.4019C109.624 14.6421 109.744 14.7622 109.984 14.7622H113.561C113.813 14.7622 113.939 14.853 113.939 15.0347C113.939 15.1167 113.881 15.2661 113.764 15.4829C113.646 15.6938 113.509 15.8726 113.35 16.019C113.216 16.1421 112.999 16.2036 112.7 16.2036H108.218C107.977 16.2036 107.857 16.0835 107.857 15.8433Z" fill="#BE9A94"/>
<path d="M134.086 11.0708H126.887C126.635 11.0708 126.509 10.98 126.509 10.7983C126.509 10.7163 126.568 10.5669 126.685 10.3501C126.802 10.1333 126.94 9.95459 127.098 9.81396C127.233 9.69092 127.45 9.62939 127.749 9.62939H134.947C135.199 9.62939 135.325 9.72021 135.325 9.90186C135.325 9.98389 135.266 10.1333 135.149 10.3501C135.032 10.5669 134.894 10.7456 134.736 10.8862C134.601 11.0093 134.384 11.0708 134.086 11.0708ZM129.876 21.6704L129.867 12.1255C129.867 11.9146 129.937 11.7769 130.078 11.7124C130.224 11.6421 130.447 11.6069 130.746 11.6069C131.074 11.6069 131.302 11.6421 131.431 11.7124C131.566 11.7769 131.633 11.9146 131.633 12.1255V20.7388C131.633 20.9907 131.575 21.187 131.458 21.3276C131.305 21.5093 131.094 21.6763 130.825 21.8286C130.561 21.9751 130.347 22.0483 130.183 22.0483C129.978 22.0483 129.876 21.9224 129.876 21.6704Z" fill="#BE9A94"/>
<path d="M141.896 9.62939H146.633C146.885 9.62939 147.011 9.72021 147.011 9.90186C147.011 9.98389 146.952 10.1333 146.835 10.3501C146.718 10.561 146.577 10.7397 146.413 10.8862C146.278 11.0093 146.065 11.0708 145.772 11.0708H140.727C140.639 11.0708 140.574 11.0679 140.533 11.062C140.492 11.0503 140.454 11.0239 140.419 10.9829C140.39 10.9419 140.375 10.8833 140.375 10.8071C140.375 10.5903 140.545 10.3413 140.885 10.0601C141.231 9.77295 141.567 9.62939 141.896 9.62939ZM140.384 21.5825V17.2495C140.384 17.0386 140.454 16.9009 140.595 16.8364C140.741 16.7661 140.967 16.731 141.272 16.731C141.6 16.731 141.828 16.7661 141.957 16.8364C142.086 16.9009 142.15 17.0386 142.15 17.2495V20.1587C142.15 20.3989 142.271 20.519 142.511 20.519H146.809C147.061 20.519 147.187 20.6099 147.187 20.7915C147.187 20.8735 147.128 21.0259 147.011 21.2485C146.894 21.4653 146.756 21.644 146.598 21.7847C146.463 21.9019 146.246 21.9604 145.947 21.9604H140.691C140.486 21.9604 140.384 21.8345 140.384 21.5825ZM140.384 15.8433V12.1255C140.384 11.9146 140.454 11.7739 140.595 11.7036C140.741 11.6333 140.967 11.5981 141.272 11.5981C141.6 11.5981 141.828 11.6333 141.957 11.7036C142.086 11.7681 142.15 11.9087 142.15 12.1255V14.4019C142.15 14.6421 142.271 14.7622 142.511 14.7622H146.088C146.34 14.7622 146.466 14.853 146.466 15.0347C146.466 15.1167 146.407 15.2661 146.29 15.4829C146.173 15.6938 146.035 15.8726 145.877 16.019C145.742 16.1421 145.525 16.2036 145.227 16.2036H140.744C140.504 16.2036 140.384 16.0835 140.384 15.8433Z" fill="#BE9A94"/>
<path d="M154.548 12.7231C154.548 12.811 154.516 13.0044 154.452 13.3032C154.387 13.6021 154.32 13.9976 154.25 14.4897C154.185 14.9819 154.153 15.5034 154.153 16.0542C154.153 16.4819 154.17 16.8745 154.206 17.2319C154.241 17.5835 154.299 17.9468 154.381 18.3218C154.469 18.6909 154.592 19.0161 154.75 19.2974C154.915 19.5786 155.114 19.8335 155.348 20.062C155.583 20.2847 155.875 20.4575 156.227 20.5806C156.579 20.6978 156.98 20.7563 157.431 20.7563C157.847 20.7563 158.237 20.7095 158.6 20.6157C158.963 20.522 159.239 20.4194 159.426 20.3081C159.62 20.1909 159.795 20.0854 159.954 19.9917C160.118 19.8979 160.232 19.8511 160.296 19.8511C160.437 19.8511 160.507 19.9243 160.507 20.0708C160.507 20.1587 160.469 20.2817 160.393 20.4399C160.323 20.5981 160.194 20.7827 160.006 20.9937C159.819 21.2046 159.59 21.4009 159.321 21.5825C159.057 21.7642 158.7 21.9165 158.249 22.0396C157.797 22.1685 157.302 22.2329 156.763 22.2329C155.908 22.2329 155.187 22.104 154.601 21.8462C154.015 21.5884 153.555 21.2017 153.221 20.686C152.893 20.1704 152.659 19.5757 152.518 18.9019C152.383 18.228 152.316 17.4224 152.316 16.4849C152.316 15.8228 152.357 15.2251 152.439 14.6919C152.521 14.1587 152.621 13.7778 152.738 13.5493C152.884 13.2563 153.113 13.0015 153.423 12.7847C153.74 12.562 154.027 12.4507 154.285 12.4507C154.46 12.4507 154.548 12.5415 154.548 12.7231ZM160.332 10.4028C160.332 10.6431 160.115 10.9185 159.681 11.229C159.505 11.3755 159.306 11.4487 159.083 11.4487C159.031 11.4487 158.981 11.4458 158.934 11.4399C158.887 11.4282 158.834 11.4136 158.776 11.396C158.717 11.3726 158.67 11.355 158.635 11.3433C158.6 11.3315 158.542 11.3081 158.459 11.2729C158.383 11.2378 158.328 11.2114 158.292 11.1938C157.671 10.9302 157.097 10.7983 156.57 10.7983C155.515 10.7983 154.49 11.2378 153.494 12.1167C153.464 12.1401 153.42 12.1753 153.362 12.2222C153.303 12.269 153.256 12.3071 153.221 12.3364C153.192 12.3599 153.154 12.3892 153.107 12.4243C153.066 12.4536 153.028 12.4771 152.993 12.4946C152.963 12.5063 152.937 12.5122 152.914 12.5122C152.779 12.5122 152.711 12.439 152.711 12.2925C152.711 12.105 152.87 11.812 153.186 11.4136C153.725 10.7456 154.346 10.2358 155.049 9.88428C155.758 9.53271 156.62 9.35693 157.633 9.35693C158.413 9.35693 159.125 9.51514 159.769 9.83154C159.88 9.88428 159.959 9.92529 160.006 9.95459C160.059 9.97803 160.126 10.0337 160.208 10.1216C160.291 10.2095 160.332 10.3032 160.332 10.4028Z" fill="#BE9A94"/>
<path d="M174.566 9.83154V20.7388C174.566 21.0317 174.508 21.2456 174.391 21.3804C174.244 21.5562 174.033 21.7114 173.758 21.8462C173.488 21.981 173.268 22.0483 173.099 22.0483C172.899 22.0483 172.8 21.9224 172.8 21.6704V10.7632C172.8 10.5171 172.858 10.3208 172.975 10.1743C173.122 9.99268 173.33 9.82861 173.6 9.68213C173.869 9.52979 174.089 9.45361 174.259 9.45361C174.464 9.45361 174.566 9.57959 174.566 9.83154ZM171.789 16.1245H166.269C166.029 16.1245 165.909 16.0044 165.909 15.7642V10.7632C165.909 10.5171 165.971 10.3208 166.094 10.1743C166.246 9.99268 166.454 9.82861 166.718 9.68213C166.981 9.52979 167.198 9.45361 167.368 9.45361C167.573 9.45361 167.676 9.57959 167.676 9.83154V14.3228C167.676 14.563 167.796 14.6831 168.036 14.6831H171.789C171.982 14.6831 172.111 14.7358 172.176 14.8413C172.24 14.9409 172.272 15.1226 172.272 15.3862C172.272 15.6616 172.24 15.855 172.176 15.9663C172.111 16.0718 171.982 16.1245 171.789 16.1245ZM165.909 21.6704V17.1704C165.909 16.9595 165.979 16.8218 166.12 16.7573C166.267 16.687 166.489 16.6519 166.788 16.6519C167.116 16.6519 167.345 16.687 167.474 16.7573C167.608 16.8218 167.676 16.9595 167.676 17.1704V20.7388C167.676 21.0259 167.614 21.2397 167.491 21.3804C167.345 21.5562 167.137 21.7114 166.867 21.8462C166.603 21.981 166.387 22.0483 166.217 22.0483C166.012 22.0483 165.909 21.9224 165.909 21.6704Z" fill="#BE9A94"/>
</svg>
