<svg width="219" height="23" viewBox="0 0 219 23" fill="none" xmlns="http://www.w3.org/2000/svg">
<path d="M22.062 18.1829L15.7167 14.8285L15.7401 7.55652L22.086 11.2477L22.062 18.1829Z" fill="#BE9A94"/>
<path d="M15.9482 7.23689L22.2506 4L28.5561 7.27191L22.2165 10.8832L15.9482 7.23689Z" fill="#BE9A94"/>
<path d="M28.7998 14.8333L22.4483 18.1896L22.4344 11.2051L28.7863 7.62457L28.7998 14.8333Z" fill="#BE9A94"/>
<path d="M11.5557 7.55087H8.49778C8.19849 7.55087 7.97289 7.70165 7.97289 7.90127V8.00489C7.97289 8.20452 8.19849 8.3553 8.49778 8.3553H11.5557C11.855 8.3553 12.0806 8.20452 12.0806 8.00489V7.90127C12.0806 7.70137 11.855 7.55087 11.5557 7.55087Z" fill="#BE9A94"/>
<path d="M7.18258 14.0193H5.3247C5.0254 14.0193 4.7998 14.1701 4.7998 14.3697V14.4733C4.7998 14.6729 5.0254 14.8237 5.3247 14.8237H7.18258C7.48188 14.8237 7.70748 14.6729 7.70748 14.4733V14.3697C7.70748 14.1698 7.48188 14.0193 7.18258 14.0193Z" fill="#BE9A94"/>
<path d="M7.7343 10.7849C7.435 10.7849 7.2094 10.9357 7.2094 11.1353V11.239C7.2094 11.4386 7.435 11.5894 7.7343 11.5894H8.82757C9.12686 11.5894 9.35246 11.4386 9.35246 11.239V11.1353C9.35246 10.9354 9.12686 10.7849 8.82757 10.7849H7.7343Z" fill="#BE9A94"/>
<path d="M15.7449 7.55087H13.5451C13.5242 7.55087 13.5042 7.55285 13.4844 7.55652H13.4226C13.1233 7.55652 12.8977 7.70729 12.8977 7.90692V8.01054C12.8977 8.21045 13.1233 8.36094 13.4226 8.36094H13.8681C14.1674 8.36094 14.393 8.51172 14.393 8.71134V8.81497C14.393 9.01459 14.1674 9.16537 13.8681 9.16537H6.7215C6.4222 9.16537 6.1966 9.31614 6.1966 9.51577V9.61939C6.1966 9.81901 6.4222 9.96979 6.7215 9.96979H12.4922C12.7915 9.96979 13.0174 10.1206 13.0174 10.3202V10.4238C13.0174 10.6237 12.7918 10.7742 12.4922 10.7742H11.0508C10.7515 10.7742 10.5259 10.925 10.5259 11.1246V11.2282C10.5259 11.4281 10.7515 11.5786 11.0508 11.5786H14.8668C15.1661 11.5786 15.3917 11.7294 15.3917 11.929V12.0327C15.3917 12.2323 15.1661 12.3831 14.8668 12.3831H6.76893C6.46964 12.3831 6.24404 12.5338 6.24404 12.7335V12.8371C6.24404 13.0367 6.46964 13.1875 6.76893 13.1875H13.4968C13.7961 13.1875 14.0217 13.3383 14.0217 13.5379V13.6415C14.0217 13.8414 13.7961 13.9919 13.4968 13.9919H8.92809C8.62879 13.9919 8.40319 14.1427 8.40319 14.3423V14.4459C8.40319 14.6456 8.62879 14.7963 8.92809 14.7963H9.29289L15.7449 14.8198V7.55087Z" fill="#BE9A94"/>
<path d="M40.3948 13.4649C41.2648 13.4649 41.9648 13.2349 42.4948 12.7749C43.0248 12.3149 43.2898 11.6599 43.2898 10.8099V10.7799C43.2898 9.93992 43.0248 9.28992 42.4948 8.82992C41.9648 8.35992 41.2648 8.12492 40.3948 8.12492H39.2098V13.4649H40.3948ZM36.2998 5.54492H40.3498C41.2898 5.54492 42.1248 5.67492 42.8548 5.93492C43.5948 6.18492 44.2148 6.53992 44.7148 6.99992C45.2248 7.45992 45.6098 8.00992 45.8698 8.64992C46.1398 9.27992 46.2748 9.97492 46.2748 10.7349V10.7649C46.2748 11.5249 46.1398 12.2299 45.8698 12.8799C45.5998 13.5199 45.2098 14.0749 44.6998 14.5449C44.1898 15.0149 43.5598 15.3849 42.8098 15.6549C42.0698 15.9149 41.2298 16.0449 40.2898 16.0449H36.2998V5.54492Z" fill="#BE9A94"/>
<path d="M47.8295 5.54492H50.7545V16.0449H47.8295V5.54492Z" fill="#BE9A94"/>
<path d="M57.5068 10.5849C58.0068 10.5849 58.3918 10.4749 58.6618 10.2549C58.9318 10.0249 59.0668 9.71992 59.0668 9.33992V9.30992C59.0668 8.88992 58.9268 8.57992 58.6468 8.37992C58.3668 8.16992 57.9818 8.06492 57.4918 8.06492H55.5868V10.5849H57.5068ZM52.6768 5.54492H57.6418C58.4518 5.54492 59.1368 5.64492 59.6968 5.84492C60.2568 6.04492 60.7118 6.32492 61.0618 6.68492C61.6818 7.28492 61.9918 8.09992 61.9918 9.12992V9.15992C61.9918 9.96992 61.7968 10.6399 61.4068 11.1699C61.0168 11.6999 60.4918 12.1049 59.8318 12.3849L62.3368 16.0449H58.9768L56.8618 12.8649H55.5868V16.0449H52.6768V5.54492Z" fill="#BE9A94"/>
<path d="M63.458 5.54492H71.903V8.01992H66.338V9.60992H71.378V11.9049H66.338V13.5699H71.978V16.0449H63.458V5.54492Z" fill="#BE9A94"/>
<path d="M78.5179 16.2549C77.7679 16.2549 77.0629 16.1199 76.4029 15.8499C75.7429 15.5799 75.1679 15.2049 74.6779 14.7249C74.1979 14.2349 73.8129 13.6599 73.5229 12.9999C73.2429 12.3299 73.1029 11.6049 73.1029 10.8249V10.7949C73.1029 10.0349 73.2429 9.32492 73.5229 8.66492C73.8029 7.99492 74.1879 7.41492 74.6779 6.92492C75.1679 6.42492 75.7479 6.03492 76.4179 5.75492C77.0979 5.47492 77.8379 5.33492 78.6379 5.33492C79.1779 5.33492 79.6679 5.38992 80.1079 5.49992C80.5479 5.59992 80.9479 5.74992 81.3079 5.94992C81.6779 6.13992 82.0079 6.36992 82.2979 6.63992C82.5979 6.90992 82.8629 7.20492 83.0929 7.52492L80.9029 9.21992C80.6029 8.83992 80.2729 8.53992 79.9129 8.31992C79.5529 8.09992 79.1179 7.98992 78.6079 7.98992C78.2379 7.98992 77.8979 8.06492 77.5879 8.21492C77.2879 8.35492 77.0279 8.54992 76.8079 8.79992C76.5879 9.04992 76.4129 9.34492 76.2829 9.68492C76.1629 10.0249 76.1029 10.3849 76.1029 10.7649V10.7949C76.1029 11.1849 76.1629 11.5549 76.2829 11.9049C76.4129 12.2449 76.5879 12.5399 76.8079 12.7899C77.0279 13.0399 77.2879 13.2399 77.5879 13.3899C77.8979 13.5299 78.2379 13.5999 78.6079 13.5999C78.8779 13.5999 79.1229 13.5699 79.3429 13.5099C79.5729 13.4499 79.7779 13.3649 79.9579 13.2549C80.1479 13.1349 80.3229 12.9999 80.4829 12.8499C80.6529 12.6899 80.8179 12.5149 80.9779 12.3249L83.1679 13.8849C82.9179 14.2249 82.6429 14.5399 82.3429 14.8299C82.0529 15.1199 81.7179 15.3699 81.3379 15.5799C80.9679 15.7899 80.5479 15.9549 80.0779 16.0749C79.6179 16.1949 79.0979 16.2549 78.5179 16.2549Z" fill="#BE9A94"/>
<path d="M86.9849 8.09492H83.8349V5.54492H93.0449V8.09492H89.8949V16.0449H86.9849V8.09492Z" fill="#BE9A94"/>
<path d="M101.047 8.09492H97.8974V5.54492H107.107V8.09492H103.957V16.0449H101.047V8.09492Z" fill="#BE9A94"/>
<path d="M113.695 13.6299C114.095 13.6299 114.46 13.5549 114.79 13.4049C115.12 13.2549 115.4 13.0549 115.63 12.8049C115.86 12.5449 116.04 12.2449 116.17 11.9049C116.3 11.5649 116.365 11.2049 116.365 10.8249V10.7949C116.365 10.4149 116.3 10.0549 116.17 9.71492C116.04 9.37492 115.855 9.07492 115.615 8.81492C115.375 8.55492 115.09 8.34992 114.76 8.19992C114.43 8.03992 114.065 7.95992 113.665 7.95992C113.265 7.95992 112.9 8.03492 112.57 8.18492C112.25 8.33492 111.97 8.53992 111.73 8.79992C111.5 9.04992 111.32 9.34492 111.19 9.68492C111.07 10.0249 111.01 10.3849 111.01 10.7649V10.7949C111.01 11.1749 111.075 11.5349 111.205 11.8749C111.335 12.2149 111.515 12.5149 111.745 12.7749C111.985 13.0349 112.27 13.2449 112.6 13.4049C112.93 13.5549 113.295 13.6299 113.695 13.6299ZM113.665 16.2549C112.855 16.2549 112.105 16.1149 111.415 15.8349C110.725 15.5449 110.13 15.1549 109.63 14.6649C109.13 14.1749 108.735 13.5999 108.445 12.9399C108.165 12.2799 108.025 11.5749 108.025 10.8249V10.7949C108.025 10.0449 108.165 9.33992 108.445 8.67992C108.735 8.00992 109.135 7.42992 109.645 6.93992C110.155 6.43992 110.755 6.04992 111.445 5.76992C112.135 5.47992 112.885 5.33492 113.695 5.33492C114.505 5.33492 115.255 5.47992 115.945 5.76992C116.635 6.04992 117.23 6.43492 117.73 6.92492C118.23 7.41492 118.62 7.98992 118.9 8.64992C119.19 9.30992 119.335 10.0149 119.335 10.7649V10.7949C119.335 11.5449 119.19 12.2549 118.9 12.9249C118.62 13.5849 118.225 14.1649 117.715 14.6649C117.205 15.1549 116.605 15.5449 115.915 15.8349C115.225 16.1149 114.475 16.2549 113.665 16.2549Z" fill="#BE9A94"/>
<path d="M130.066 16.2549C129.316 16.2549 128.611 16.1199 127.951 15.8499C127.291 15.5799 126.716 15.2049 126.226 14.7249C125.746 14.2349 125.361 13.6599 125.071 12.9999C124.791 12.3299 124.651 11.6049 124.651 10.8249V10.7949C124.651 10.0349 124.791 9.32492 125.071 8.66492C125.351 7.99492 125.736 7.41492 126.226 6.92492C126.716 6.42492 127.296 6.03492 127.966 5.75492C128.646 5.47492 129.386 5.33492 130.186 5.33492C130.726 5.33492 131.216 5.38992 131.656 5.49992C132.096 5.59992 132.496 5.74992 132.856 5.94992C133.226 6.13992 133.556 6.36992 133.846 6.63992C134.146 6.90992 134.411 7.20492 134.641 7.52492L132.451 9.21992C132.151 8.83992 131.821 8.53992 131.461 8.31992C131.101 8.09992 130.666 7.98992 130.156 7.98992C129.786 7.98992 129.446 8.06492 129.136 8.21492C128.836 8.35492 128.576 8.54992 128.356 8.79992C128.136 9.04992 127.961 9.34492 127.831 9.68492C127.711 10.0249 127.651 10.3849 127.651 10.7649V10.7949C127.651 11.1849 127.711 11.5549 127.831 11.9049C127.961 12.2449 128.136 12.5399 128.356 12.7899C128.576 13.0399 128.836 13.2399 129.136 13.3899C129.446 13.5299 129.786 13.5999 130.156 13.5999C130.426 13.5999 130.671 13.5699 130.891 13.5099C131.121 13.4499 131.326 13.3649 131.506 13.2549C131.696 13.1349 131.871 12.9999 132.031 12.8499C132.201 12.6899 132.366 12.5149 132.526 12.3249L134.716 13.8849C134.466 14.2249 134.191 14.5399 133.891 14.8299C133.601 15.1199 133.266 15.3699 132.886 15.5799C132.516 15.7899 132.096 15.9549 131.626 16.0749C131.166 16.1949 130.646 16.2549 130.066 16.2549Z" fill="#BE9A94"/>
<path d="M141.278 13.6299C141.678 13.6299 142.043 13.5549 142.373 13.4049C142.703 13.2549 142.983 13.0549 143.213 12.8049C143.443 12.5449 143.623 12.2449 143.753 11.9049C143.883 11.5649 143.948 11.2049 143.948 10.8249V10.7949C143.948 10.4149 143.883 10.0549 143.753 9.71492C143.623 9.37492 143.438 9.07492 143.198 8.81492C142.958 8.55492 142.673 8.34992 142.343 8.19992C142.013 8.03992 141.648 7.95992 141.248 7.95992C140.848 7.95992 140.483 8.03492 140.153 8.18492C139.833 8.33492 139.553 8.53992 139.313 8.79992C139.083 9.04992 138.903 9.34492 138.773 9.68492C138.653 10.0249 138.593 10.3849 138.593 10.7649V10.7949C138.593 11.1749 138.658 11.5349 138.788 11.8749C138.918 12.2149 139.098 12.5149 139.328 12.7749C139.568 13.0349 139.853 13.2449 140.183 13.4049C140.513 13.5549 140.878 13.6299 141.278 13.6299ZM141.248 16.2549C140.438 16.2549 139.688 16.1149 138.998 15.8349C138.308 15.5449 137.713 15.1549 137.213 14.6649C136.713 14.1749 136.318 13.5999 136.028 12.9399C135.748 12.2799 135.608 11.5749 135.608 10.8249V10.7949C135.608 10.0449 135.748 9.33992 136.028 8.67992C136.318 8.00992 136.718 7.42992 137.228 6.93992C137.738 6.43992 138.338 6.04992 139.028 5.76992C139.718 5.47992 140.468 5.33492 141.278 5.33492C142.088 5.33492 142.838 5.47992 143.528 5.76992C144.218 6.04992 144.813 6.43492 145.313 6.92492C145.813 7.41492 146.203 7.98992 146.483 8.64992C146.773 9.30992 146.918 10.0149 146.918 10.7649V10.7949C146.918 11.5449 146.773 12.2549 146.483 12.9249C146.203 13.5849 145.808 14.1649 145.298 14.6649C144.788 15.1549 144.188 15.5449 143.498 15.8349C142.808 16.1149 142.058 16.2549 141.248 16.2549Z" fill="#BE9A94"/>
<path d="M148.434 5.54492H151.149L155.469 11.0949V5.54492H158.349V16.0449H155.799L151.314 10.2849V16.0449H148.434V5.54492Z" fill="#BE9A94"/>
<path d="M164.336 16.2249C163.396 16.2249 162.501 16.0799 161.651 15.7899C160.811 15.4999 160.066 15.0649 159.416 14.4849L161.036 12.5499C162.086 13.3899 163.221 13.8099 164.441 13.8099C164.831 13.8099 165.126 13.7499 165.326 13.6299C165.536 13.4999 165.641 13.3199 165.641 13.0899V13.0599C165.641 12.9499 165.616 12.8549 165.566 12.7749C165.516 12.6849 165.421 12.5999 165.281 12.5199C165.151 12.4399 164.971 12.3649 164.741 12.2949C164.521 12.2149 164.231 12.1349 163.871 12.0549C163.311 11.9249 162.791 11.7849 162.311 11.6349C161.831 11.4749 161.411 11.2749 161.051 11.0349C160.701 10.7849 160.421 10.4799 160.211 10.1199C160.011 9.74992 159.911 9.29492 159.911 8.75492V8.72492C159.911 8.23492 160.001 7.78492 160.181 7.37492C160.371 6.96492 160.641 6.60992 160.991 6.30992C161.351 6.00992 161.781 5.77992 162.281 5.61992C162.781 5.44992 163.346 5.36492 163.976 5.36492C164.876 5.36492 165.676 5.48492 166.376 5.72492C167.086 5.95492 167.726 6.29992 168.296 6.75992L166.841 8.81492C166.361 8.47492 165.866 8.21992 165.356 8.04992C164.856 7.86992 164.371 7.77992 163.901 7.77992C163.551 7.77992 163.286 7.84492 163.106 7.97492C162.936 8.10492 162.851 8.26492 162.851 8.45492V8.48492C162.851 8.60492 162.876 8.70992 162.926 8.79992C162.986 8.88992 163.081 8.97492 163.211 9.05492C163.351 9.12492 163.536 9.19992 163.766 9.27992C164.006 9.34992 164.306 9.42492 164.666 9.50492C165.266 9.63492 165.806 9.78992 166.286 9.96992C166.776 10.1399 167.191 10.3499 167.531 10.5999C167.871 10.8499 168.131 11.1549 168.311 11.5149C168.491 11.8649 168.581 12.2849 168.581 12.7749V12.8049C168.581 13.3449 168.476 13.8249 168.266 14.2449C168.066 14.6649 167.781 15.0249 167.411 15.3249C167.041 15.6149 166.596 15.8399 166.076 15.9999C165.556 16.1499 164.976 16.2249 164.336 16.2249Z" fill="#BE9A94"/>
<path d="M174.721 16.2399C173.971 16.2399 173.296 16.1449 172.696 15.9549C172.096 15.7649 171.586 15.4749 171.166 15.0849C170.746 14.6849 170.421 14.1849 170.191 13.5849C169.971 12.9749 169.861 12.2599 169.861 11.4399V5.54492H172.816V11.3799C172.816 12.1399 172.991 12.7049 173.341 13.0749C173.691 13.4349 174.161 13.6149 174.751 13.6149C175.341 13.6149 175.811 13.4399 176.161 13.0899C176.511 12.7399 176.686 12.1949 176.686 11.4549V5.54492H179.641V11.3649C179.641 12.2149 179.521 12.9499 179.281 13.5699C179.051 14.1799 178.721 14.6849 178.291 15.0849C177.871 15.4749 177.356 15.7649 176.746 15.9549C176.146 16.1449 175.471 16.2399 174.721 16.2399Z" fill="#BE9A94"/>
<path d="M181.363 5.54492H184.438L186.943 9.60992L189.448 5.54492H192.523V16.0449H189.628V10.0149L186.943 14.1249H186.883L184.213 10.0449V16.0449H181.363V5.54492Z" fill="#BE9A94"/>
<path d="M194.386 5.54492H202.831V8.01992H197.266V9.60992H202.306V11.9049H197.266V13.5699H202.906V16.0449H194.386V5.54492Z" fill="#BE9A94"/>
<path d="M209.221 10.5849C209.721 10.5849 210.106 10.4749 210.376 10.2549C210.646 10.0249 210.781 9.71992 210.781 9.33992V9.30992C210.781 8.88992 210.641 8.57992 210.361 8.37992C210.081 8.16992 209.696 8.06492 209.206 8.06492H207.301V10.5849H209.221ZM204.391 5.54492H209.356C210.166 5.54492 210.851 5.64492 211.411 5.84492C211.971 6.04492 212.426 6.32492 212.776 6.68492C213.396 7.28492 213.706 8.09992 213.706 9.12992V9.15992C213.706 9.96992 213.511 10.6399 213.121 11.1699C212.731 11.6999 212.206 12.1049 211.546 12.3849L214.051 16.0449H210.691L208.576 12.8649H207.301V16.0449H204.391V5.54492Z" fill="#BE9A94"/>
</svg>
