<svg width="125" height="29" viewBox="0 0 125 29" fill="none" xmlns="http://www.w3.org/2000/svg">
<path d="M9.7998 8.395C9.8987 8.395 9.99537 8.42432 10.0776 8.47927C10.1598 8.53421 10.2239 8.6123 10.2617 8.70366C10.2996 8.79502 10.3095 8.89555 10.2902 8.99255C10.2709 9.08954 10.2233 9.17863 10.1534 9.24855C10.0834 9.31848 9.99434 9.3661 9.89735 9.38539C9.80036 9.40469 9.69983 9.39478 9.60846 9.35694C9.5171 9.3191 9.43901 9.25501 9.38407 9.17279C9.32913 9.09056 9.2998 8.99389 9.2998 8.895C9.2998 8.76239 9.35248 8.63521 9.44625 8.54145C9.54002 8.44768 9.6672 8.395 9.7998 8.395ZM14.2998 8.895C14.2998 8.79611 14.2705 8.69944 14.2155 8.61722C14.1606 8.53499 14.0825 8.4709 13.9911 8.43306C13.8998 8.39522 13.7992 8.38532 13.7023 8.40461C13.6053 8.4239 13.5162 8.47152 13.4463 8.54145C13.3763 8.61137 13.3287 8.70046 13.3094 8.79745C13.2901 8.89445 13.3 8.99498 13.3379 9.08634C13.3757 9.1777 13.4398 9.25579 13.522 9.31073C13.6042 9.36568 13.7009 9.395 13.7998 9.395C13.9324 9.395 14.0596 9.34232 14.1534 9.24855C14.2471 9.15479 14.2998 9.02761 14.2998 8.895ZM20.6533 21.7485C20.5055 21.9315 20.4249 22.1597 20.4249 22.395C20.4249 22.6303 20.5055 22.8585 20.6533 23.0415L20.7998 23.188V24.395H6.7998C6.26937 24.395 5.76066 24.1843 5.38559 23.8092C5.01052 23.4341 4.7998 22.9254 4.7998 22.395C4.7998 21.8646 5.01052 21.3559 5.38559 20.9808C5.76066 20.6057 6.26937 20.395 6.7998 20.395H12.5873C7.29981 17.649 7.2998 12.0735 7.2998 8.895C7.2716 7.92714 7.53594 6.97328 8.0583 6.158C7.81516 5.93388 7.62195 5.66105 7.49127 5.35729C7.36058 5.05353 7.29534 4.72565 7.2998 4.395H8.2998C8.29685 4.58452 8.33302 4.77261 8.40606 4.94751C8.4791 5.12242 8.58744 5.28037 8.7243 5.4115C9.59332 4.71282 10.6856 4.3518 11.7998 4.395C12.914 4.3518 14.0063 4.71282 14.8753 5.4115C15.0122 5.28037 15.1205 5.12242 15.1935 4.94751C15.2666 4.77261 15.3028 4.58452 15.2998 4.395H16.2998C16.3043 4.72565 16.239 5.05353 16.1083 5.35729C15.9777 5.66105 15.7844 5.93388 15.5413 6.158C16.0637 6.97328 16.328 7.92714 16.2998 8.895V10.6605C16.7774 10.9339 17.1703 11.3339 17.435 11.8165C17.6997 12.299 17.8259 12.8453 17.7998 13.395V19.895H16.6818L16.5763 19.845C13.6273 18.368 11.7998 16.775 11.7998 13.395C11.7777 12.9894 11.8392 12.5835 11.9805 12.2027C12.1218 11.8218 12.3399 11.4741 12.6212 11.1811C12.9025 10.888 13.2411 10.6559 13.6159 10.4992C13.9906 10.3425 14.3936 10.2645 14.7998 10.27C14.9673 10.2707 15.1346 10.2849 15.2998 10.3125V8.895C15.3252 8.15553 15.1389 7.42418 14.7628 6.787C14.6513 6.864 14.5383 6.937 14.4263 7.0135C13.3323 7.7415 12.2998 8.429 12.2998 10.395H11.2998C11.2998 8.429 10.2673 7.7415 9.1733 7.0135C9.0613 6.939 8.9483 6.8635 8.8368 6.787C8.4607 7.42418 8.27439 8.15553 8.2998 8.895C8.2998 12.481 8.2998 18.4755 15.3658 20.395H20.7998V21.602L20.6533 21.7485ZM16.7998 13.395C16.8136 13.0991 16.7653 12.8036 16.6581 12.5274C16.5509 12.2513 16.3871 12.0006 16.1773 11.7915C15.8009 11.4492 15.3085 11.2628 14.7998 11.27C14.5243 11.2624 14.2503 11.3131 13.9958 11.4189C13.7413 11.5247 13.5121 11.6832 13.3232 11.8839C13.1343 12.0846 12.99 12.323 12.8998 12.5834C12.8096 12.8439 12.7755 13.1205 12.7998 13.395C12.7998 15.906 13.8148 17.301 16.7998 18.8345V13.395ZM9.5288 6.045C9.5938 6.089 9.6573 6.1325 9.7288 6.179C10.5799 6.65983 11.2931 7.35148 11.7998 8.1875C12.3072 7.35203 13.0209 6.66107 13.8723 6.181C13.9423 6.1345 14.0058 6.091 14.0723 6.047C13.4051 5.59003 12.6078 5.3613 11.7998 5.395C10.9925 5.36104 10.1959 5.58905 9.5288 6.045ZM19.6788 21.395H6.7998C6.53459 21.395 6.28023 21.5004 6.0927 21.6879C5.90516 21.8754 5.7998 22.1298 5.7998 22.395C5.7998 22.6602 5.90516 22.9146 6.0927 23.1021C6.28023 23.2896 6.53459 23.395 6.7998 23.395H19.6788C19.5119 23.0881 19.4245 22.7443 19.4245 22.395C19.4245 22.0457 19.5119 21.7019 19.6788 21.395Z" fill="#BE9A94"/>
<path d="M48.7278 20.676C48.9478 20.588 49.1311 20.544 49.2778 20.544C49.5125 20.544 49.6885 20.632 49.8058 20.808C49.9231 20.984 49.9818 21.2113 49.9818 21.49C49.9818 21.93 49.8718 22.304 49.6518 22.612C49.4465 22.92 49.0871 23.1987 48.5738 23.448C47.7085 23.8587 46.5865 24.1887 45.2078 24.438C43.8291 24.6727 42.4725 24.79 41.1378 24.79C39.2898 24.79 37.7425 24.5847 36.4958 24.174C35.2491 23.7487 34.3178 23.1693 33.7018 22.436C33.1005 21.7027 32.7998 20.874 32.7998 19.95C32.7998 18.6887 33.2031 17.618 34.0098 16.738C34.8311 15.8433 36.0338 15.198 37.6178 14.802C36.7525 14.5527 36.0851 14.1127 35.6158 13.482C35.1611 12.8513 34.9338 12.1473 34.9338 11.37C34.9338 10.314 35.2638 9.38267 35.9238 8.576C36.5985 7.75467 37.5005 7.124 38.6298 6.684C39.7591 6.244 40.9985 6.024 42.3478 6.024C44.1665 6.024 45.5305 6.42 46.4398 7.212C47.3491 7.98933 47.8038 9.00133 47.8038 10.248C47.8038 11.1133 47.6425 11.8173 47.3198 12.36C47.0118 12.888 46.5645 13.152 45.9778 13.152C45.5671 13.152 45.2445 13.064 45.0098 12.888C44.7751 12.6973 44.6578 12.4187 44.6578 12.052C44.6578 11.8027 44.6945 11.5313 44.7678 11.238C44.8411 10.754 44.8778 10.424 44.8778 10.248C44.8778 9.72 44.6798 9.29467 44.2838 8.972C43.8878 8.63467 43.2278 8.466 42.3038 8.466C41.0571 8.466 40.0598 8.73 39.3118 9.258C38.5638 9.786 38.1898 10.4973 38.1898 11.392C38.1898 12.0813 38.4685 12.6533 39.0258 13.108C39.5978 13.548 40.5218 13.79 41.7978 13.834C42.1205 13.8487 42.3478 13.922 42.4798 14.054C42.6118 14.186 42.6778 14.406 42.6778 14.714C42.6778 15.682 42.2378 16.1733 41.3578 16.188C40.1405 16.2173 39.1285 16.386 38.3218 16.694C37.5298 17.002 36.9505 17.398 36.5838 17.882C36.2318 18.3513 36.0558 18.8573 36.0558 19.4C36.0558 20.3093 36.4811 20.9987 37.3318 21.468C38.1825 21.9227 39.5318 22.15 41.3798 22.15C42.5971 22.15 43.8805 22.0107 45.2298 21.732C46.5938 21.4387 47.7598 21.0867 48.7278 20.676Z" fill="#BE9A94"/>
<path d="M60.3222 19.774C60.5128 19.774 60.6595 19.862 60.7621 20.038C60.8795 20.214 60.9381 20.456 60.9381 20.764C60.9381 21.3507 60.7988 21.8053 60.5201 22.128C59.9188 22.8613 59.2588 23.492 58.5401 24.02C57.8215 24.5333 57.1102 24.79 56.4062 24.79C55.2915 24.79 54.4408 24.1373 53.8541 22.832C53.2381 23.6093 52.6955 24.13 52.2262 24.394C51.7715 24.658 51.2361 24.79 50.6201 24.79C49.7255 24.79 48.9848 24.46 48.3981 23.8C47.8261 23.1253 47.5401 22.2527 47.5401 21.182C47.5401 20.0087 47.7895 18.9233 48.2881 17.926C48.7868 16.914 49.4688 16.0927 50.3341 15.462C51.2141 14.8167 52.1968 14.4353 53.2822 14.318C53.5608 11.4727 54.0888 9.04533 54.8661 7.036C55.6581 5.012 56.6921 4 57.9681 4C58.5988 4 59.1195 4.286 59.5302 4.858C59.9555 5.43 60.1682 6.29533 60.1682 7.454C60.1682 9.09667 59.7648 11.018 58.9581 13.218C58.1515 15.418 57.0735 17.6767 55.7242 19.994C55.7828 20.8447 55.9075 21.4533 56.0982 21.82C56.3035 22.1867 56.5601 22.37 56.8681 22.37C57.2641 22.37 57.6675 22.194 58.0781 21.842C58.4888 21.49 59.0388 20.9033 59.7281 20.082C59.9041 19.8767 60.1022 19.774 60.3222 19.774ZM57.7262 6.156C57.4475 6.156 57.1688 6.65467 56.8902 7.652C56.6115 8.63467 56.3695 9.92533 56.1642 11.524C55.9735 13.1227 55.8341 14.7947 55.7461 16.54C57.3888 12.9613 58.2102 10.0867 58.2102 7.916C58.2102 7.35867 58.1588 6.926 58.0561 6.618C57.9681 6.31 57.8582 6.156 57.7262 6.156ZM51.3902 22.568C51.6688 22.568 51.9475 22.458 52.2262 22.238C52.5048 22.0033 52.8568 21.578 53.2822 20.962C53.1355 20.17 53.0621 19.2827 53.0621 18.3C53.0621 17.948 53.0768 17.376 53.1061 16.584C52.2995 16.8333 51.6248 17.376 51.0821 18.212C50.5541 19.0333 50.2901 19.95 50.2901 20.962C50.2901 22.0327 50.6568 22.568 51.3902 22.568Z" fill="#BE9A94"/>
<path d="M61.3924 24.79C60.7324 24.79 60.1897 24.4893 59.7644 23.888C59.3537 23.272 59.1484 22.5093 59.1484 21.6C59.1484 20.5 59.2217 19.4953 59.3684 18.586C59.5151 17.662 59.7571 16.6867 60.0944 15.66C60.2411 15.22 60.4464 14.9047 60.7104 14.714C60.9744 14.5233 61.3924 14.428 61.9644 14.428C62.2871 14.428 62.5071 14.4793 62.6244 14.582C62.7564 14.6847 62.8224 14.8387 62.8224 15.044C62.8224 15.1613 62.7417 15.5573 62.5804 16.232C62.4337 16.7747 62.3164 17.266 62.2284 17.706C61.9351 19.246 61.7884 20.2727 61.7884 20.786C61.7884 21.094 61.8251 21.314 61.8984 21.446C61.9717 21.5633 62.0891 21.622 62.2504 21.622C62.4704 21.622 62.7417 21.402 63.0644 20.962C63.4017 20.522 63.7537 19.8547 64.1204 18.96C64.5017 18.0653 64.8684 16.9653 65.2204 15.66C65.3377 15.22 65.5138 14.9047 65.7484 14.714C65.9978 14.5233 66.3644 14.428 66.8484 14.428C67.1857 14.428 67.4204 14.472 67.5524 14.56C67.6844 14.6333 67.7504 14.78 67.7504 15C67.7504 15.3667 67.5671 16.3713 67.2004 18.014C66.7897 19.8913 66.5844 21.05 66.5844 21.49C66.5844 21.7687 66.6431 21.9887 66.7604 22.15C66.8777 22.2967 67.0317 22.37 67.2224 22.37C67.5157 22.37 67.8604 22.194 68.2564 21.842C68.6671 21.4753 69.2097 20.8887 69.8844 20.082C70.0604 19.8767 70.2584 19.774 70.4784 19.774C70.6691 19.774 70.8157 19.862 70.9184 20.038C71.0357 20.214 71.0944 20.456 71.0944 20.764C71.0944 21.3507 70.9551 21.8053 70.6764 22.128C70.0457 22.9053 69.3638 23.5433 68.6304 24.042C67.9117 24.5407 67.0904 24.79 66.1664 24.79C65.4624 24.79 64.9417 24.5187 64.6044 23.976C64.2817 23.4333 64.1204 22.6707 64.1204 21.688C63.8711 22.6853 63.4971 23.4553 62.9984 23.998C62.4997 24.526 61.9644 24.79 61.3924 24.79Z" fill="#BE9A94"/>
<path d="M73.5125 24.79C72.0752 24.79 70.9532 24.3867 70.1465 23.58C69.3545 22.7587 68.9585 21.6807 68.9585 20.346C68.9585 19.158 69.1932 18.1167 69.6625 17.222C70.1319 16.3273 70.7405 15.638 71.4885 15.154C72.2365 14.67 73.0212 14.428 73.8425 14.428C74.6492 14.428 75.2725 14.67 75.7125 15.154C76.1672 15.6233 76.3945 16.232 76.3945 16.98C76.3945 17.596 76.2552 18.1167 75.9765 18.542C75.7125 18.9673 75.3605 19.18 74.9205 19.18C74.6419 19.18 74.4145 19.114 74.2385 18.982C74.0772 18.85 73.9965 18.6667 73.9965 18.432C73.9965 18.3293 74.0112 18.212 74.0405 18.08C74.0699 17.948 74.0919 17.8527 74.1065 17.794C74.1799 17.574 74.2165 17.3687 74.2165 17.178C74.2165 16.9873 74.1652 16.8407 74.0625 16.738C73.9745 16.6353 73.8425 16.584 73.6665 16.584C73.3292 16.584 73.0139 16.738 72.7205 17.046C72.4272 17.3393 72.1925 17.7427 72.0165 18.256C71.8405 18.7693 71.7525 19.334 71.7525 19.95C71.7525 21.6513 72.4932 22.502 73.9745 22.502C74.5759 22.502 75.2212 22.304 75.9105 21.908C76.6145 21.4973 77.3039 20.8887 77.9785 20.082C78.1545 19.8767 78.3525 19.774 78.5725 19.774C78.7632 19.774 78.9099 19.862 79.0125 20.038C79.1299 20.214 79.1885 20.456 79.1885 20.764C79.1885 21.3213 79.0492 21.776 78.7705 22.128C78.0812 22.9787 77.2525 23.6387 76.2845 24.108C75.3312 24.5627 74.4072 24.79 73.5125 24.79Z" fill="#BE9A94"/>
<path d="M79.9013 24.79C78.992 24.79 78.266 24.46 77.7233 23.8C77.1806 23.14 76.9093 22.2747 76.9093 21.204C76.9093 20.0307 77.1806 18.9233 77.7233 17.882C78.266 16.826 78.9846 15.9827 79.8793 15.352C80.7886 14.7067 81.7493 14.384 82.7613 14.384C83.084 14.384 83.2966 14.45 83.3993 14.582C83.5166 14.6993 83.612 14.9193 83.6853 15.242C83.9933 15.1833 84.316 15.154 84.6533 15.154C85.372 15.154 85.7313 15.4107 85.7313 15.924C85.7313 16.232 85.6213 16.9653 85.4013 18.124C85.064 19.8107 84.8953 20.984 84.8953 21.644C84.8953 21.864 84.9466 22.04 85.0493 22.172C85.1666 22.304 85.3133 22.37 85.4893 22.37C85.768 22.37 86.1053 22.194 86.5013 21.842C86.8973 21.4753 87.4326 20.8887 88.1073 20.082C88.2833 19.8767 88.4813 19.774 88.7013 19.774C88.892 19.774 89.0386 19.862 89.1413 20.038C89.2586 20.214 89.3173 20.456 89.3173 20.764C89.3173 21.3507 89.178 21.8053 88.8993 22.128C88.298 22.876 87.66 23.5067 86.9853 24.02C86.3106 24.5333 85.658 24.79 85.0273 24.79C84.5433 24.79 84.096 24.6287 83.6853 24.306C83.2893 23.9687 82.9886 23.514 82.7833 22.942C82.0206 24.174 81.06 24.79 79.9013 24.79ZM80.6933 22.568C81.016 22.568 81.324 22.3773 81.6173 21.996C81.9106 21.6147 82.1233 21.1087 82.2553 20.478L83.0693 16.43C82.4533 16.4447 81.8813 16.6793 81.3533 17.134C80.84 17.574 80.4293 18.1607 80.1213 18.894C79.8133 19.6273 79.6593 20.4047 79.6593 21.226C79.6593 21.6807 79.7473 22.018 79.9233 22.238C80.114 22.458 80.3706 22.568 80.6933 22.568Z" fill="#BE9A94"/>
<path d="M97.3413 19.774C97.5319 19.774 97.6786 19.862 97.7813 20.038C97.8986 20.214 97.9573 20.456 97.9573 20.764C97.9573 21.3507 97.8179 21.8053 97.5393 22.128C96.9086 22.9053 96.2193 23.5433 95.4713 24.042C94.7233 24.5407 93.8653 24.79 92.8973 24.79C89.9053 24.79 88.4093 22.6853 88.4093 18.476C88.4093 17.8307 88.4313 17.178 88.4753 16.518H87.6173C87.1773 16.518 86.8766 16.4373 86.7153 16.276C86.5686 16.1147 86.4953 15.858 86.4953 15.506C86.4953 14.6847 86.8253 14.274 87.4853 14.274H88.7393C88.9886 12.6607 89.3699 11.1867 89.8833 9.852C90.3966 8.51733 91.0126 7.454 91.7313 6.662C92.4646 5.87 93.2493 5.474 94.0853 5.474C94.7013 5.474 95.1853 5.74533 95.5373 6.288C95.8893 6.83067 96.0653 7.51267 96.0653 8.334C96.0653 10.6073 95.1119 12.5873 93.2053 14.274H95.6693C95.9039 14.274 96.0726 14.3253 96.1753 14.428C96.2779 14.5307 96.3293 14.7213 96.3293 15C96.3293 16.012 95.5006 16.518 93.8433 16.518H91.1593C91.1299 17.2513 91.1153 17.8233 91.1153 18.234C91.1153 19.7593 91.2913 20.83 91.6433 21.446C92.0099 22.062 92.5819 22.37 93.3593 22.37C93.9899 22.37 94.5473 22.1793 95.0313 21.798C95.5153 21.4167 96.0873 20.8447 96.7473 20.082C96.9233 19.8767 97.1213 19.774 97.3413 19.774ZM93.4913 7.586C93.2713 7.586 93.0219 7.86467 92.7433 8.422C92.4793 8.96467 92.2226 9.72733 91.9733 10.71C91.7386 11.678 91.5406 12.756 91.3793 13.944C92.2446 13.196 92.8899 12.36 93.3153 11.436C93.7553 10.4973 93.9753 9.64667 93.9753 8.884C93.9753 8.01867 93.8139 7.586 93.4913 7.586Z" fill="#BE9A94"/>
<path d="M99.048 12.976C98.432 12.976 97.97 12.8367 97.662 12.558C97.354 12.2647 97.2 11.8613 97.2 11.348C97.2 10.8347 97.398 10.4093 97.794 10.072C98.2047 9.72 98.7107 9.544 99.312 9.544C99.8547 9.544 100.295 9.676 100.632 9.94C100.969 10.204 101.138 10.578 101.138 11.062C101.138 11.6487 100.947 12.118 100.566 12.47C100.185 12.8073 99.6787 12.976 99.048 12.976ZM98.872 24.79C97.9187 24.79 97.222 24.4527 96.782 23.778C96.3567 23.1033 96.144 22.2087 96.144 21.094C96.144 20.434 96.2247 19.5907 96.386 18.564C96.562 17.5227 96.782 16.5547 97.046 15.66C97.178 15.1907 97.354 14.868 97.574 14.692C97.794 14.516 98.146 14.428 98.63 14.428C99.378 14.428 99.752 14.6773 99.752 15.176C99.752 15.5427 99.6127 16.3933 99.334 17.728C98.982 19.3413 98.806 20.434 98.806 21.006C98.806 21.446 98.8647 21.7833 98.982 22.018C99.0993 22.2527 99.2973 22.37 99.576 22.37C99.84 22.37 100.17 22.1867 100.566 21.82C100.962 21.4533 101.49 20.874 102.15 20.082C102.326 19.8767 102.524 19.774 102.744 19.774C102.935 19.774 103.081 19.862 103.184 20.038C103.301 20.214 103.36 20.456 103.36 20.764C103.36 21.3507 103.221 21.8053 102.942 22.128C101.49 23.9027 100.133 24.79 98.872 24.79Z" fill="#BE9A94"/>
<path d="M112.8 17.926C112.991 17.926 113.137 18.0213 113.24 18.212C113.343 18.4027 113.394 18.6447 113.394 18.938C113.394 19.642 113.181 20.06 112.756 20.192C111.876 20.5 110.908 20.676 109.852 20.72C109.573 21.952 109.023 22.942 108.202 23.69C107.381 24.4233 106.449 24.79 105.408 24.79C104.528 24.79 103.773 24.5773 103.142 24.152C102.526 23.7267 102.057 23.162 101.734 22.458C101.411 21.754 101.25 20.9913 101.25 20.17C101.25 19.0553 101.463 18.0653 101.888 17.2C102.313 16.32 102.9 15.638 103.648 15.154C104.396 14.6553 105.225 14.406 106.134 14.406C107.249 14.406 108.143 14.7947 108.818 15.572C109.507 16.3347 109.911 17.2807 110.028 18.41C110.717 18.366 111.539 18.2193 112.492 17.97C112.609 17.9407 112.712 17.926 112.8 17.926ZM105.584 22.458C106.053 22.458 106.457 22.2673 106.794 21.886C107.146 21.5047 107.381 20.9547 107.498 20.236C107.043 19.928 106.691 19.5247 106.442 19.026C106.207 18.5273 106.09 17.9993 106.09 17.442C106.09 17.2073 106.112 16.9727 106.156 16.738H106.046C105.459 16.738 104.968 17.024 104.572 17.596C104.191 18.1533 104 18.9453 104 19.972C104 20.7787 104.154 21.3947 104.462 21.82C104.785 22.2453 105.159 22.458 105.584 22.458Z" fill="#BE9A94"/>
<path d="M113.068 24.79C112.511 24.79 112.115 24.4967 111.88 23.91C111.66 23.3233 111.55 22.3847 111.55 21.094C111.55 19.1873 111.821 17.376 112.364 15.66C112.496 15.2347 112.709 14.9267 113.002 14.736C113.31 14.5307 113.735 14.428 114.278 14.428C114.571 14.428 114.777 14.4647 114.894 14.538C115.011 14.6113 115.07 14.7507 115.07 14.956C115.07 15.1907 114.96 15.7187 114.74 16.54C114.593 17.1267 114.476 17.64 114.388 18.08C114.3 18.52 114.227 19.0627 114.168 19.708C114.652 18.4467 115.195 17.42 115.796 16.628C116.397 15.836 116.984 15.2713 117.556 14.934C118.143 14.5967 118.678 14.428 119.162 14.428C119.631 14.428 119.983 14.5527 120.218 14.802C120.467 15.0367 120.592 15.3887 120.592 15.858C120.592 16.2393 120.511 16.958 120.35 18.014C120.203 18.9087 120.086 19.7593 119.998 20.566C119.91 21.358 119.866 22.2453 119.866 23.228C119.866 23.7853 119.749 24.1887 119.514 24.438C119.294 24.6727 118.927 24.79 118.414 24.79C117.93 24.79 117.578 24.6653 117.358 24.416C117.138 24.1667 117.028 23.7927 117.028 23.294C117.028 22.7073 117.131 21.7393 117.336 20.39C117.512 19.2167 117.6 18.4687 117.6 18.146C117.6 17.9113 117.519 17.794 117.358 17.794C117.167 17.794 116.896 18.0433 116.544 18.542C116.207 19.026 115.855 19.6713 115.488 20.478C115.136 21.2847 114.85 22.1353 114.63 23.03C114.469 23.7193 114.278 24.1887 114.058 24.438C113.853 24.6727 113.523 24.79 113.068 24.79Z" fill="#BE9A94"/>
</svg>
