<svg width="130" height="32" viewBox="0 0 130 32" fill="none" xmlns="http://www.w3.org/2000/svg">
<path d="M9.82137 22.0032V24.5894C9.82137 24.9034 10.0757 25.1577 10.3897 25.1577C10.7038 25.1577 10.9581 24.9034 10.9581 24.5894V22.0032C13.9997 21.9306 16.3796 21.2765 16.3796 20.4798C16.3796 20.4655 16.377 20.4513 16.3757 20.4357H16.3796L16.3731 20.4136C16.3679 20.3799 16.3575 20.3474 16.3445 20.3137L14.7056 14.6768C14.3851 13.5739 14.4318 12.3969 14.8393 11.3238L16.1667 7.8228C16.4029 7.19864 16.133 6.47846 15.5231 6.20855C15.3622 6.13718 15.1844 6.09826 14.9976 6.09826H13.6208C13.0953 6.09826 12.6203 5.78293 12.4192 5.29762L11.9767 4.23617C11.917 4.09343 11.7782 4 11.6225 4H9.24782C9.0934 4 8.95326 4.09213 8.89357 4.23617L8.45108 5.29762C8.24865 5.78293 7.77502 6.09826 7.24948 6.09826H5.78317C5.53273 6.09826 5.29915 6.16962 5.10192 6.2916C4.59455 6.60173 4.3999 7.24535 4.60363 7.80463C4.86315 8.51313 5.4938 10.2338 5.97392 11.5431C6.3684 12.6201 6.40213 13.7958 6.07124 14.8935L4.43883 20.3072C4.42326 20.3436 4.41288 20.3786 4.40639 20.4149L4.3999 20.4357H4.4038C4.4025 20.45 4.3999 20.4642 4.3999 20.4798C4.3999 21.2765 6.77974 21.9293 9.82137 22.0032Z" fill="#BE9A94"/>
<path d="M8.51631 24.1778C6.71391 24.3841 4.88166 24.9122 4.88166 26.0334C4.88166 27.5866 8.39952 28.0006 10.477 28.0006C12.5545 28.0006 16.0724 27.5853 16.0724 26.0334C16.0724 24.8759 14.1168 24.3504 12.2612 24.1583C12.1717 24.1492 12.0939 24.2193 12.0939 24.3088V24.5904C12.0939 24.7617 12.0692 24.9278 12.0212 25.0835C11.9926 25.1769 12.0536 25.2743 12.1496 25.2846C13.7379 25.4456 14.6554 25.8141 14.8954 26.0334C14.5814 26.3215 13.1008 26.8639 10.4757 26.8639C7.85063 26.8639 6.37134 26.3215 6.05601 26.0334C6.28699 25.8219 7.14991 25.4715 8.63569 25.3028C8.73041 25.2924 8.7927 25.1977 8.76415 25.1082C8.71095 24.9447 8.6837 24.7721 8.6837 24.5917V24.3296C8.6837 24.2388 8.60584 24.1687 8.51501 24.1791L8.51631 24.1778Z" fill="#BE9A94"/>
<path d="M37.2433 9.14941H42.6632V12.8408H41.6476C39.8833 12.8408 38.6789 12.5641 38.0343 12.0107C37.507 11.555 37.2433 10.8193 37.2433 9.80371V9.14941ZM30.3 9.14941H35.5539V14.501H39.4699V17.0498H35.5539V22.4209H30.3V9.14941Z" fill="#BE9A94"/>
<path d="M52.3605 9.14941H53.2394C55.6353 9.14941 57.0643 9.95996 57.5265 11.5811C57.6828 12.1149 57.7609 12.7269 57.7609 13.417V22.4404H52.3605V9.14941ZM45.1535 13.417C45.1535 11.9782 45.4823 10.9235 46.1398 10.2529C46.8625 9.51725 48.0409 9.14941 49.675 9.14941H50.5539V22.4404H45.1535V13.417Z" fill="#BE9A94"/>
<path d="M66.6476 9.14941H72.673V15.8389L66.6476 9.14941ZM60.2707 13.0752H60.2121C60.2121 11.734 60.5767 10.7445 61.3058 10.1064C62.035 9.46842 63.158 9.14941 64.675 9.14941L72.673 18.8564C72.673 20.1455 72.3247 21.0667 71.6281 21.6201C70.951 22.1605 69.8442 22.4307 68.3078 22.4307L60.2707 13.0752ZM60.2414 15.7119L66.0422 22.4404H60.2414V15.7119Z" fill="#BE9A94"/>
<path d="M75.2121 9.14941H80.466V15.7998H82.3703V9.14941H87.6242V22.4209H82.3703V17.2744H80.466V22.4209H75.2121V9.14941Z" fill="#BE9A94"/>
<path d="M90.466 9.14941H95.7199V22.4404H90.466V9.14941Z" fill="#BE9A94"/>
<path d="M105.554 9.14941H106.316C108.731 9.14941 110.326 10.2269 111.101 12.3818C111.413 13.2673 111.569 14.2861 111.569 15.4385C111.569 17.3786 111.195 18.9769 110.446 20.2334C109.561 21.7048 108.184 22.4404 106.316 22.4404H105.554V9.14941ZM103.2 22.4404C100.798 22.4404 99.2062 21.223 98.425 18.7881C98.106 17.7985 97.9464 16.682 97.9464 15.4385C97.9464 12.9059 98.6496 11.1188 100.056 10.0771C100.883 9.45866 101.931 9.14941 103.2 9.14941H103.962V22.4404H103.2Z" fill="#BE9A94"/>
<path d="M120.583 9.14941H121.462C123.858 9.14941 125.287 9.95996 125.749 11.5811C125.905 12.1149 125.984 12.7269 125.984 13.417V22.4404H120.583V9.14941ZM113.493 9.14941H118.747V22.4404H113.493V9.14941Z" fill="#BE9A94"/>
</svg>
