<svg width="193" height="32" viewBox="0 0 193 32" fill="none" xmlns="http://www.w3.org/2000/svg">
<path d="M6.63602 18.9136C3.12133 15.5014 3.12133 9.96922 6.63602 6.5593C10.1509 3.1469 15.8495 3.1469 19.364 6.5593C22.8787 9.9715 22.8787 15.5036 19.364 18.9136L16.818 21.3853H9.18438L9.13219 21.3347C9.11387 20.6265 9.22103 20.0399 9.48519 19.5729C10.0323 18.6037 11.1903 18.1812 13.1733 18.2763C15.1128 18.3272 15.5734 18.0019 15.587 17.5173C15.5938 17.285 15.521 16.9973 15.4458 16.6919C15.3934 16.4772 15.3363 16.2536 15.3022 16.0368L15.2999 16.0282C15.2383 15.6387 15.4775 15.5413 15.7489 15.4327C16.1092 15.289 16.0316 15.0015 15.6601 14.9173C15.4662 14.873 15.2474 14.7535 15.2496 14.6517C15.2472 14.4238 15.8582 14.477 16.1842 14.1783C16.2596 14.1096 16.2958 13.9372 16.2937 13.873C16.2984 13.4945 15.6987 13.4811 15.8288 13.1161C15.8674 13.0054 15.9611 12.8792 16.1228 12.7289C16.3212 12.5452 16.6083 12.4501 16.7907 12.253C16.9935 12.034 16.8271 11.8813 16.6426 11.6844C16.4053 11.4319 16.0796 11.1243 15.8082 10.8679C15.5849 10.6553 15.3955 10.4741 15.2954 10.3566L15.293 10.3543C15.2087 10.2637 15.1222 10.1618 15.0512 10.0381C14.9692 9.89621 14.9192 9.73489 14.9304 9.55557C14.9624 9.07077 14.9941 8.37398 14.7229 7.67243C14.4541 6.97771 13.8889 6.429 13.465 6.13883C13.5834 6.56158 13.6748 6.95992 13.6748 7.36923C13.6748 8.09518 13.456 8.81224 13.0159 9.57791C13.0067 9.59094 13.0114 9.57108 13.0182 9.53137C13.073 9.35226 13.0159 8.66416 12.8495 8.29663C12.7947 10.0958 11.7805 10.4522 11.9104 11.97C11.6893 11.7421 11.5753 11.43 11.5664 11.0296C11.1903 12.176 10.0321 13.1583 11.024 14.6943C10.4287 14.4153 10.0414 13.8246 9.85673 12.9239C9.12282 14.3512 7.85567 15.0416 8.40701 17.0333C7.93066 16.3562 7.65925 15.7233 7.5932 15.1413C7.11216 16.2433 6.45579 17.7723 6.7385 19.0073L6.64263 18.9142L6.63602 18.9136ZM15.8857 22.722H10.1124C9.74063 22.722 9.43769 23.0163 9.43769 23.3771C9.43769 23.7378 9.74063 24.0321 10.1124 24.0321H15.8857C16.2572 24.0321 16.5604 23.7378 16.5604 23.3771C16.5604 23.0163 16.2572 22.722 15.8857 22.722ZM15.8857 24.6916H10.1124C9.74063 24.6916 9.43769 24.9859 9.43769 25.3466C9.43769 25.7073 9.74063 26.0017 10.1124 26.0017H15.8857C16.2572 26.0017 16.5604 25.7073 16.5604 25.3466C16.5604 24.9859 16.2572 24.6916 15.8857 24.6916ZM11.4066 26.69H14.5932C14.4635 27.4445 13.7888 28 13.0001 28C12.2114 28 11.5367 27.4465 11.4066 26.69Z" fill="#BE9A94"/>
<path d="M32.5332 21.155L33.4932 20.915V10.675L32.5332 10.435V10.195H41.0932V13.075H40.6132C40.4105 12.915 40.2345 12.7123 40.0852 12.467C39.7439 11.891 39.5732 11.267 39.5732 10.595H36.1332V15.635H37.9732C38.0479 15.2296 38.1865 14.851 38.3892 14.499C38.4745 14.339 38.5759 14.1843 38.6932 14.035H39.1732V17.635H38.6932C38.5759 17.4856 38.4745 17.331 38.3892 17.171C38.1865 16.819 38.0479 16.4403 37.9732 16.035H36.1332V20.915L37.0932 21.155V21.395H32.5332V21.155Z" fill="#BE9A94"/>
<path d="M42.2988 21.155L43.2588 20.915V10.675L42.2988 10.435V10.195H50.8588V13.075H50.3788C50.1762 12.915 50.0002 12.7123 49.8508 12.467C49.5095 11.891 49.3388 11.267 49.3388 10.595H45.8988V15.635H47.7388C47.8135 15.2296 47.9522 14.851 48.1548 14.499C48.2402 14.339 48.3415 14.1843 48.4588 14.035H48.9388V17.635H48.4588C48.3415 17.4856 48.2402 17.331 48.1548 17.171C47.9522 16.819 47.8135 16.4403 47.7388 16.035H45.8988V20.995H49.6588C49.6588 20.323 49.8295 19.699 50.1708 19.123C50.3202 18.8776 50.4962 18.675 50.6988 18.515H51.1788V21.395H42.2988V21.155Z" fill="#BE9A94"/>
<path d="M54.0513 12.195V20.675L55.3313 21.155V21.395H52.2913V21.155L53.5713 20.675V10.675L52.6113 10.435V10.195H54.6113C55.166 10.195 55.6033 10.3123 55.9233 10.547C56.254 10.771 56.5367 11.107 56.7713 11.555L60.2593 18.227L62.9313 11.555C63.1127 11.0856 63.358 10.7443 63.6673 10.531C63.9767 10.307 64.4513 10.195 65.0913 10.195H66.7713V10.435L65.8113 10.675V20.915L66.7713 21.155V21.395H62.2113V21.155L63.1713 20.915V12.195L59.4113 21.555H58.9313L54.0513 12.195Z" fill="#BE9A94"/>
<path d="M66.7726 21.155L68.0526 20.675L72.4526 10.035H72.9326L77.4926 20.915L78.2926 21.155V21.395H76.3726C75.8179 21.395 75.3646 21.2723 75.0126 21.027C74.6606 20.771 74.3993 20.4403 74.2286 20.035L73.4126 18.115H69.5886L68.5326 20.675L69.7326 21.155V21.395H66.7726V21.155ZM69.7486 17.715H73.2526L71.4926 13.507L69.7486 17.715Z" fill="#BE9A94"/>
<path d="M78.7676 21.155L79.7276 20.915V10.675L78.7676 10.435V10.195H83.3276V10.435L82.3676 10.675V20.995H85.8076C85.8076 20.323 85.9782 19.699 86.3196 19.123C86.4689 18.8776 86.6449 18.675 86.8476 18.515H87.3276V21.395H78.7676V21.155Z" fill="#BE9A94"/>
<path d="M88.5332 21.155L89.4932 20.915V10.675L88.5332 10.435V10.195H97.0932V13.075H96.6132C96.4105 12.915 96.2345 12.7123 96.0852 12.467C95.7439 11.891 95.5732 11.267 95.5732 10.595H92.1332V15.635H93.9732C94.0479 15.2296 94.1865 14.851 94.3892 14.499C94.4745 14.339 94.5759 14.1843 94.6932 14.035H95.1732V17.635H94.6932C94.5759 17.4856 94.4745 17.331 94.3892 17.171C94.1865 16.819 94.0479 16.4403 93.9732 16.035H92.1332V20.995H95.8932C95.8932 20.323 96.0639 19.699 96.4052 19.123C96.5545 18.8776 96.7305 18.675 96.9332 18.515H97.4132V21.395H88.5332V21.155Z" fill="#BE9A94"/>
<path d="M103.33 21.155L104.29 20.915V10.675L103.33 10.435V10.195H111.89V13.075H111.41C111.207 12.915 111.031 12.7123 110.882 12.467C110.541 11.891 110.37 11.267 110.37 10.595H106.93V15.635H108.77C108.845 15.2296 108.983 14.851 109.186 14.499C109.271 14.339 109.373 14.1843 109.49 14.035H109.97V17.635H109.49C109.373 17.4856 109.271 17.331 109.186 17.171C108.983 16.819 108.845 16.4403 108.77 16.035H106.93V20.915L107.89 21.155V21.395H103.33V21.155Z" fill="#BE9A94"/>
<path d="M117.903 21.635C116.858 21.635 115.941 21.411 115.151 20.963C114.373 20.5043 113.77 19.8376 113.343 18.963C112.917 18.0883 112.703 17.0323 112.703 15.795C112.703 14.5576 112.917 13.5016 113.343 12.627C113.77 11.7523 114.373 11.091 115.151 10.643C115.941 10.1843 116.858 9.95496 117.903 9.95496C118.949 9.95496 119.861 10.1843 120.639 10.643C121.429 11.091 122.037 11.7523 122.463 12.627C122.89 13.5016 123.103 14.5576 123.103 15.795C123.103 17.0323 122.89 18.0883 122.463 18.963C122.037 19.8376 121.429 20.5043 120.639 20.963C119.861 21.411 118.949 21.635 117.903 21.635ZM117.903 21.315C118.319 21.315 118.703 21.139 119.055 20.787C119.418 20.435 119.717 19.8483 119.951 19.027C120.186 18.2056 120.303 17.1283 120.303 15.795C120.303 14.4616 120.186 13.3843 119.951 12.563C119.717 11.7416 119.418 11.155 119.055 10.803C118.703 10.451 118.319 10.275 117.903 10.275C117.487 10.275 117.098 10.451 116.735 10.803C116.383 11.155 116.09 11.7416 115.855 12.563C115.621 13.3843 115.503 14.4616 115.503 15.795C115.503 17.1283 115.621 18.2056 115.855 19.027C116.09 19.8483 116.383 20.435 116.735 20.787C117.098 21.139 117.487 21.315 117.903 21.315Z" fill="#BE9A94"/>
<path d="M130.147 21.635C128.568 21.635 127.374 21.267 126.563 20.531C125.752 19.7843 125.347 18.739 125.347 17.395V10.675L124.387 10.435V10.195H128.947V10.435L127.987 10.675V17.395C127.987 18.771 128.2 19.7576 128.627 20.355C129.054 20.9416 129.667 21.235 130.467 21.235C130.958 21.235 131.422 21.0803 131.859 20.771C132.307 20.451 132.664 20.003 132.931 19.427C133.208 18.8403 133.347 18.163 133.347 17.395V10.915L132.067 10.435V10.195H135.107V10.435L133.827 10.915V17.395C133.827 18.259 133.667 19.011 133.347 19.651C133.027 20.291 132.59 20.7816 132.035 21.123C131.48 21.4643 130.851 21.635 130.147 21.635Z" fill="#BE9A94"/>
<path d="M137.426 12.915V20.675L138.706 21.155V21.395H135.666V21.155L136.946 20.675V10.755L135.826 10.435V10.195H137.506C138.072 10.195 138.514 10.2963 138.834 10.499C139.154 10.7016 139.458 10.9736 139.746 11.315L144.866 17.315V10.915L143.586 10.435V10.195H146.626V10.435L145.346 10.915V21.635H144.866L137.426 12.915Z" fill="#BE9A94"/>
<path d="M147.674 21.155L148.634 20.915V10.675L147.674 10.435V10.195H151.754C153.663 10.195 155.124 10.6856 156.138 11.667C157.162 12.6483 157.674 14.0243 157.674 15.795C157.674 17.5656 157.162 18.9416 156.138 19.923C155.124 20.9043 153.663 21.395 151.754 21.395H147.674V21.155ZM151.754 20.995C152.746 20.995 153.514 20.595 154.058 19.795C154.602 18.9843 154.874 17.651 154.874 15.795C154.874 13.939 154.602 12.611 154.058 11.811C153.514 11.0003 152.746 10.595 151.754 10.595H151.274V20.995H151.754Z" fill="#BE9A94"/>
<path d="M159.111 21.155L160.071 20.915V10.675L159.111 10.435V10.195H167.671V13.075H167.191C166.989 12.915 166.813 12.7123 166.663 12.467C166.322 11.891 166.151 11.267 166.151 10.595H162.711V15.635H164.551C164.626 15.2296 164.765 14.851 164.967 14.499C165.053 14.339 165.154 14.1843 165.271 14.035H165.751V17.635H165.271C165.154 17.4856 165.053 17.331 164.967 17.171C164.765 16.819 164.626 16.4403 164.551 16.035H162.711V20.995H166.471C166.471 20.323 166.642 19.699 166.983 19.123C167.133 18.8776 167.309 18.675 167.511 18.515H167.991V21.395H159.111V21.155Z" fill="#BE9A94"/>
<path d="M169.424 21.155L170.384 20.915V10.675L169.424 10.435V10.195H173.664C175.477 10.195 176.784 10.4723 177.584 11.027C178.384 11.571 178.784 12.3336 178.784 13.315C178.784 13.9763 178.608 14.515 178.256 14.931C177.904 15.3363 177.45 15.6403 176.896 15.843C176.309 16.067 175.685 16.1843 175.024 16.195V16.275C175.418 16.2963 175.765 16.355 176.064 16.451C176.81 16.6856 177.317 17.107 177.584 17.715L179.024 20.915L179.824 21.155V21.395H177.584C176.709 21.395 176.069 20.9416 175.664 20.035L174.064 16.435H173.024V20.915L174.144 21.155V21.395H169.424V21.155ZM173.664 16.035C174.41 16.035 174.997 15.8003 175.424 15.331C175.85 14.8616 176.064 14.1896 176.064 13.315C176.064 12.4403 175.85 11.7683 175.424 11.299C174.997 10.8296 174.41 10.595 173.664 10.595H173.024V16.035H173.664Z" fill="#BE9A94"/>
<path d="M184.547 21.635C183.79 21.635 183.08 21.4643 182.419 21.123C182.12 20.9736 181.87 20.7976 181.667 20.595C181.518 20.8403 181.331 21.059 181.107 21.251C180.915 21.3896 180.808 21.4643 180.787 21.475H180.387V18.435H181.027C181.187 18.9576 181.411 19.427 181.699 19.843C182.35 20.771 183.192 21.235 184.227 21.235C184.835 21.235 185.32 21.0536 185.683 20.691C186.046 20.3283 186.227 19.843 186.227 19.235C186.227 18.883 186.12 18.5683 185.907 18.291C185.704 18.0136 185.448 17.7683 185.139 17.555C184.83 17.3416 184.398 17.075 183.843 16.755C183.139 16.3603 182.568 16.003 182.131 15.683C181.694 15.363 181.32 14.963 181.011 14.483C180.702 13.9923 180.547 13.4163 180.547 12.755C180.547 12.2323 180.691 11.763 180.979 11.347C181.278 10.9203 181.72 10.5843 182.307 10.339C182.894 10.083 183.614 9.95496 184.467 9.95496C185.086 9.95496 185.704 10.131 186.323 10.483C186.558 10.611 186.792 10.7816 187.027 10.995C187.208 10.7176 187.395 10.499 187.587 10.339C187.779 10.2003 187.886 10.1256 187.907 10.115H188.307V13.155H187.667C187.528 12.643 187.32 12.179 187.043 11.763C186.787 11.3576 186.467 11.0216 186.083 10.755C185.71 10.4883 185.278 10.355 184.787 10.355C184.371 10.355 184.014 10.5203 183.715 10.851C183.416 11.1816 183.267 11.603 183.267 12.115C183.267 12.5096 183.379 12.867 183.603 13.187C183.838 13.4963 184.12 13.7683 184.451 14.003C184.792 14.2376 185.251 14.5203 185.827 14.851C186.499 15.235 187.043 15.5763 187.459 15.875C187.875 16.1736 188.227 16.547 188.515 16.995C188.803 17.4323 188.947 17.939 188.947 18.515C188.947 19.091 188.782 19.619 188.451 20.099C188.12 20.5683 187.624 20.9416 186.963 21.219C186.302 21.4963 185.496 21.635 184.547 21.635Z" fill="#BE9A94"/>
</svg>
