<svg width="110" height="29" viewBox="0 0 110 29" fill="none" xmlns="http://www.w3.org/2000/svg">
<path d="M12.0798 12.6175V15.2175L14.1598 16.4775V13.8775L12.0798 12.6175ZM14.9098 9.98749L12.7698 11.2875L14.9098 12.5775L17.0398 11.2875L14.9098 9.98749ZM15.6598 13.8775V16.4775L17.7398 15.2175V12.6175L15.6598 13.8775ZM15.6598 13.8775V16.4775L17.7398 15.2175V12.6175L15.6598 13.8775ZM14.9098 9.98749L12.7698 11.2875L14.9098 12.5775L17.0398 11.2875L14.9098 9.98749ZM12.0798 15.2175L14.1598 16.4775V13.8775L12.0798 12.6175V15.2175ZM15.6598 13.8775V16.4775L17.7398 15.2175V12.6175L15.6598 13.8775ZM14.9098 9.98749L12.7698 11.2875L14.9098 12.5775L17.0398 11.2875L14.9098 9.98749ZM12.0798 15.2175L14.1598 16.4775V13.8775L12.0798 12.6175V15.2175Z" fill="#BE9A94"/>
<path d="M22.5198 6.8175C21.9798 6.8175 21.4798 7.01751 21.0898 7.33751L15.2698 4.0975C15.0498 3.9675 14.7698 3.9675 14.5398 4.0975L8.58981 7.4075C8.18981 7.0475 7.6598 6.8175 7.0798 6.8175C5.8198 6.8175 4.7998 7.84751 4.7998 9.10751C4.7998 10.1075 5.4398 10.9475 6.3298 11.2575V17.8075C6.3298 18.0875 6.47981 18.3375 6.71981 18.4675L12.5598 21.7175C12.5698 22.9775 13.5898 24.0075 14.8398 24.0075C16.0698 24.0075 17.0698 23.0175 17.1098 21.7975L23.0998 18.4675C23.3398 18.3375 23.4898 18.0875 23.4898 17.8075V11.1775C24.2598 10.8075 24.7998 10.0275 24.7998 9.10751C24.7998 7.84751 23.7798 6.8175 22.5198 6.8175ZM15.2598 18.4675C15.1498 18.5175 15.0398 18.5575 14.9098 18.5575C14.7798 18.5575 14.6598 18.5175 14.5598 18.4675C14.5398 18.4575 14.5298 18.4575 14.5198 18.4575L10.9398 16.2775C10.7198 16.1375 10.5798 15.8975 10.5798 15.6375V11.2875C10.5798 11.2675 10.5898 11.2575 10.5898 11.2375C10.5998 11.1475 10.6198 11.0575 10.6598 10.9675C10.6698 10.9475 10.6698 10.9275 10.6798 10.9075C10.6898 10.9075 10.6898 10.8975 10.6898 10.8975C10.7498 10.7975 10.8298 10.7175 10.9198 10.6575C10.9298 10.6575 10.9298 10.6475 10.9398 10.6375L14.5198 8.46751C14.7598 8.31751 15.0598 8.31751 15.2998 8.46751L18.8798 10.6375C18.8798 10.6475 18.8798 10.6575 18.8898 10.6575C18.9798 10.7175 19.0698 10.7975 19.1298 10.8975V10.9075C19.1398 10.9275 19.1398 10.9475 19.1498 10.9675C19.1998 11.0575 19.2198 11.1475 19.2198 11.2375C19.2298 11.2575 19.2398 11.2675 19.2398 11.2875V15.6375C19.2398 15.8975 19.0998 16.1375 18.8798 16.2775L15.2998 18.4575C15.2798 18.4575 15.2698 18.4575 15.2598 18.4675ZM7.0798 9.89751C6.6498 9.89751 6.2998 9.54751 6.2998 9.10751C6.2998 8.66751 6.6498 8.3175 7.0798 8.3175C7.5098 8.3175 7.8598 8.66751 7.8598 9.10751C7.8598 9.54751 7.5098 9.89751 7.0798 9.89751ZM14.8398 22.5075C14.4098 22.5075 14.0598 22.1475 14.0598 21.7075C14.0598 21.2775 14.4098 20.9175 14.8398 20.9175C15.2698 20.9175 15.6198 21.2775 15.6198 21.7075C15.6198 22.1475 15.2698 22.5075 14.8398 22.5075ZM22.5198 9.89751C22.0898 9.89751 21.7398 9.54751 21.7398 9.10751C21.7398 8.66751 22.0898 8.3175 22.5198 8.3175C22.9498 8.3175 23.2998 8.66751 23.2998 9.10751C23.2998 9.54751 22.9498 9.89751 22.5198 9.89751Z" fill="#BE9A94"/>
<path d="M36.9238 20.3705C36.9238 20.9465 36.5698 21.2345 35.8618 21.2345C35.1538 21.2345 34.7998 20.9465 34.7998 20.3705V7.91451C34.7998 7.63851 34.8778 7.39251 35.0338 7.17651C35.1898 6.94851 35.4898 6.83451 35.9338 6.83451H42.0538C42.4858 6.83451 42.7138 7.13451 42.7378 7.73451C42.7618 8.34651 42.5338 8.65251 42.0538 8.65251H36.9238V20.3705ZM41.5318 13.6925C41.5318 13.8965 41.4898 14.0945 41.4058 14.2865C41.3338 14.4665 41.2258 14.6225 41.0818 14.7545C40.9498 14.8865 40.7938 14.9945 40.6138 15.0785C40.4338 15.1505 40.2358 15.1865 40.0198 15.1865C39.6118 15.1865 39.2638 15.0425 38.9758 14.7545C38.6878 14.4665 38.5438 14.1125 38.5438 13.6925C38.5438 13.2725 38.6878 12.9185 38.9758 12.6305C39.2638 12.3425 39.6118 12.1985 40.0198 12.1985C40.2358 12.1985 40.4338 12.2405 40.6138 12.3245C40.7938 12.3965 40.9498 12.5045 41.0818 12.6485C41.2258 12.7805 41.3338 12.9365 41.4058 13.1165C41.4898 13.2965 41.5318 13.4885 41.5318 13.6925Z" fill="#BE9A94"/>
<path d="M46.9099 20.3705C46.9099 20.9465 46.5499 21.2345 45.8299 21.2345C45.1219 21.2345 44.7679 20.9465 44.7679 20.3705V7.60851C44.7679 7.03251 45.1219 6.74451 45.8299 6.74451C46.5499 6.74451 46.9099 7.03251 46.9099 7.60851V20.3705Z" fill="#BE9A94"/>
<path d="M57.7675 7.60851C57.7675 7.03251 58.1215 6.74451 58.8295 6.74451C59.5375 6.74451 59.8915 7.03251 59.8915 7.60851V20.0285C59.8915 20.4485 59.6695 20.7545 59.2255 20.9465H59.2435C59.0515 21.0305 58.8475 21.0965 58.6315 21.1445C58.4155 21.1925 58.2055 21.2165 58.0015 21.2165C57.8455 21.2165 57.6835 21.1985 57.5155 21.1625C57.3475 21.1385 57.1855 21.0965 57.0295 21.0365C56.8855 20.9645 56.7475 20.8745 56.6155 20.7665C56.4955 20.6465 56.3995 20.5025 56.3275 20.3345L52.4215 10.5965L51.9355 10.6505V20.3705C51.9355 20.9465 51.5755 21.2345 50.8555 21.2345C50.1475 21.2345 49.7935 20.9465 49.7935 20.3705V7.96851C49.7935 7.47651 50.0095 7.14651 50.4415 6.97851C50.8375 6.82251 51.2575 6.74451 51.7015 6.74451C52.0135 6.74451 52.3255 6.81051 52.6375 6.94251C52.9615 7.06251 53.2075 7.29651 53.3755 7.64451L57.2635 17.4005L57.7675 17.3465V7.60851Z" fill="#BE9A94"/>
<path d="M67.3788 20.4065C67.3788 20.9825 67.0188 21.2705 66.2988 21.2705C65.5908 21.2705 65.2368 20.9825 65.2368 20.4065V8.65251H62.0868C61.6548 8.65251 61.4268 8.34651 61.4028 7.73451C61.4028 7.13451 61.6308 6.83451 62.0868 6.83451H70.5288C70.9848 6.83451 71.2008 7.13451 71.1768 7.73451C71.1768 8.34651 70.9608 8.65251 70.5288 8.65251H67.3788V20.4065Z" fill="#BE9A94"/>
<path d="M73.9377 21.1445C73.4937 21.1445 73.1937 21.0305 73.0377 20.8025C72.8817 20.5745 72.8037 20.3225 72.8037 20.0465V7.91451C72.8037 7.63851 72.8817 7.39251 73.0377 7.17651C73.1937 6.94851 73.4937 6.83451 73.9377 6.83451H80.2017C80.6457 6.83451 80.8797 7.13451 80.9037 7.73451C80.9277 8.34651 80.6937 8.65251 80.2017 8.65251H74.9277V19.3265H80.5257C80.9697 19.3265 81.1977 19.6205 81.2097 20.2085C81.2337 20.8325 81.0057 21.1445 80.5257 21.1445H73.9377ZM79.5357 13.6925C79.5357 14.1125 79.3857 14.4665 79.0857 14.7545C78.7977 15.0425 78.4437 15.1865 78.0237 15.1865C77.6157 15.1865 77.2677 15.0425 76.9797 14.7545C76.6917 14.4665 76.5477 14.1125 76.5477 13.6925C76.5477 13.2725 76.6917 12.9185 76.9797 12.6305C77.2677 12.3425 77.6157 12.1985 78.0237 12.1985C78.4437 12.1985 78.7977 12.3425 79.0857 12.6305C79.3857 12.9185 79.5357 13.2725 79.5357 13.6925Z" fill="#BE9A94"/>
<path d="M92.8588 18.2465C92.8588 19.2185 92.5348 19.9445 91.8868 20.4245C91.5748 20.6525 91.2508 20.8325 90.9148 20.9645C90.5908 21.0845 90.2728 21.1445 89.9608 21.1445H86.0368C85.7248 21.1445 85.4008 21.0845 85.0648 20.9645C84.7408 20.8325 84.4228 20.6525 84.1108 20.4245C83.7988 20.1845 83.5588 19.8905 83.3908 19.5425C83.2228 19.1825 83.1388 18.7505 83.1388 18.2465V9.69651C83.1388 9.21651 83.2228 8.79651 83.3908 8.43651C83.5588 8.06451 83.7988 7.76451 84.1108 7.53651H84.0928C84.4048 7.33251 84.7288 7.16451 85.0648 7.03251C85.4008 6.90051 85.7248 6.83451 86.0368 6.83451H89.9608C90.2728 6.83451 90.5968 6.90051 90.9328 7.03251C91.2688 7.16451 91.5928 7.33251 91.9048 7.53651H91.8868C92.1988 7.76451 92.4388 8.06451 92.6068 8.43651C92.7748 8.79651 92.8588 9.21651 92.8588 9.69651V10.9385C92.8588 11.5145 92.4988 11.8025 91.7788 11.8025C91.0708 11.8025 90.7168 11.5145 90.7168 10.9385V9.85851C90.7168 9.55851 90.6268 9.28251 90.4468 9.03051C90.2668 8.77851 89.9548 8.65251 89.5108 8.65251H86.4868C86.0428 8.65251 85.7308 8.77851 85.5508 9.03051C85.3708 9.28251 85.2808 9.55851 85.2808 9.85851V18.1025C85.2808 18.4145 85.3708 18.6965 85.5508 18.9485C85.7308 19.2005 86.0428 19.3265 86.4868 19.3265H89.5108C89.9548 19.3265 90.2668 19.2005 90.4468 18.9485C90.6268 18.6965 90.7168 18.4145 90.7168 18.1025V17.0585C90.7168 16.4945 91.0708 16.2125 91.7788 16.2125C92.4988 16.2125 92.8588 16.4945 92.8588 17.0585V18.2465Z" fill="#BE9A94"/>
<path d="M103.075 7.60851C103.075 7.03251 103.429 6.74451 104.137 6.74451C104.857 6.74451 105.217 7.03251 105.217 7.60851V20.3705C105.217 20.9465 104.857 21.2345 104.137 21.2345C103.429 21.2345 103.075 20.9465 103.075 20.3705V7.60851ZM97.6035 20.3705C97.6035 20.9465 97.2435 21.2345 96.5235 21.2345C95.8155 21.2345 95.4615 20.9465 95.4615 20.3705V7.60851C95.4615 7.03251 95.8155 6.74451 96.5235 6.74451C97.2435 6.74451 97.6035 7.03251 97.6035 7.60851V20.3705ZM101.815 13.6925C101.815 14.1125 101.671 14.4665 101.383 14.7545C101.095 15.0425 100.741 15.1865 100.321 15.1865C99.9135 15.1865 99.5655 15.0425 99.2775 14.7545C98.9895 14.4665 98.8455 14.1125 98.8455 13.6925C98.8455 13.2725 98.9895 12.9185 99.2775 12.6305C99.5655 12.3425 99.9135 12.1985 100.321 12.1985C100.741 12.1985 101.095 12.3425 101.383 12.6305C101.671 12.9185 101.815 13.2725 101.815 13.6925Z" fill="#BE9A94"/>
</svg>
