<svg width="231" height="28" viewBox="0 0 231 28" fill="none" xmlns="http://www.w3.org/2000/svg">
<path d="M22.0996 18.9999H7.09965C5.7206 18.9999 4.59961 20.1209 4.59961 21.5C4.59961 22.879 5.7206 24 7.09965 24H22.0996C23.4786 24 24.5996 22.879 24.5996 21.5C24.5996 20.1209 23.4786 18.9999 22.0996 18.9999ZM7.09965 22.332C6.63878 22.332 6.26759 21.957 6.26759 21.5C6.26759 21.043 6.64264 20.6679 7.09965 20.6679C7.55666 20.6679 7.93171 21.043 7.93171 21.5C7.93171 21.957 7.56052 22.332 7.09965 22.332ZM12.0997 22.332C11.6389 22.332 11.2677 21.957 11.2677 21.5C11.2677 21.043 11.6427 20.6679 12.0997 20.6679C12.5567 20.6679 12.9318 21.043 12.9318 21.5C12.9318 21.957 12.5606 22.332 12.0997 22.332ZM17.0998 22.332C16.6389 22.332 16.2677 21.957 16.2677 21.5C16.2677 21.043 16.6428 20.6679 17.0998 20.6679C17.5568 20.6679 17.9319 21.043 17.9319 21.5C17.9319 21.957 17.5607 22.332 17.0998 22.332ZM22.0999 22.332C21.639 22.332 21.2678 21.957 21.2678 21.5C21.2678 21.043 21.6429 20.6679 22.0999 20.6679C22.5569 20.6679 22.9319 21.043 22.9319 21.5C22.9319 21.957 22.5607 22.332 22.0999 22.332Z" fill="#BE9A94"/>
<path d="M9.80666 14.2071H9.38855C9.04468 14.2071 8.76347 13.9259 8.76347 13.582V12.1249C8.76347 11.781 9.04468 11.4998 9.38855 11.4998H9.80666C10.1505 11.4998 10.4317 11.781 10.4317 12.1249V13.582C10.4317 13.9298 10.1544 14.2071 9.80666 14.2071Z" fill="#BE9A94"/>
<path d="M10.6426 12.75H8.56065C8.21678 12.75 7.93557 12.4688 7.93557 12.1249C7.93557 11.781 8.21678 11.4998 8.56065 11.4998H10.6426C10.9864 11.4998 11.2677 11.781 11.2677 12.1249C11.2677 12.4688 10.9864 12.75 10.6426 12.75Z" fill="#BE9A94"/>
<path d="M14.8067 14.2071H14.3886C14.0448 14.2071 13.7635 13.9259 13.7635 13.582V12.1249C13.7635 11.781 14.0448 11.4998 14.3886 11.4998H14.8067C15.1506 11.4998 15.4318 11.781 15.4318 12.1249V13.582C15.4318 13.9298 15.1545 14.2071 14.8067 14.2071Z" fill="#BE9A94"/>
<path d="M15.6427 12.75H13.5607C13.2169 12.75 12.9356 12.4688 12.9356 12.1249C12.9356 11.781 13.2169 11.4998 13.5607 11.4998H15.6427C15.9865 11.4998 16.2677 11.781 16.2677 12.1249C16.2677 12.4688 15.9865 12.75 15.6427 12.75Z" fill="#BE9A94"/>
<path d="M9.38855 12.957C9.22463 12.957 9.06428 13.0235 8.94728 13.1405C8.29102 13.7967 7.93171 14.6677 7.93171 15.5936V18.3748C7.93171 18.7187 8.21292 18.9999 8.55679 18.9999H10.6387C10.9826 18.9999 11.2638 18.7187 11.2638 18.3748V15.5936C11.2638 14.6677 10.9006 13.7929 10.2482 13.1405C10.1351 13.0232 9.97473 12.957 9.80696 12.957H9.38855Z" fill="#BE9A94"/>
<path d="M14.3886 12.957C14.2247 12.957 14.0644 13.0235 13.9474 13.1405C13.2911 13.7967 12.9318 14.6677 12.9318 15.5936V18.3748C12.9318 18.7187 13.213 18.9999 13.5569 18.9999H15.6388C15.9827 18.9999 16.2639 18.7187 16.2639 18.3748V15.5936C16.2639 14.6677 15.9007 13.7929 15.2483 13.1405C15.1352 13.0232 14.9748 12.957 14.807 12.957H14.3886Z" fill="#BE9A94"/>
<path d="M20.2481 13.1408C20.1308 13.0235 19.9707 12.9573 19.8068 12.9573H19.3887C19.2248 12.9573 19.0644 13.0238 18.9474 13.1408C18.2912 13.797 17.9319 14.668 17.9319 15.5939V18.3751C17.9319 18.719 18.2131 19.0002 18.5569 19.0002H20.6389C20.9827 19.0002 21.264 18.719 21.264 18.3751V15.5939C21.2678 14.668 20.9043 13.797 20.2481 13.1408Z" fill="#BE9A94"/>
<path d="M19.8068 14.2071H19.3887C19.0448 14.2071 18.7636 13.9259 18.7636 13.582V12.1249C18.7636 11.781 19.0448 11.4998 19.3887 11.4998H19.8068C20.1507 11.4998 20.4319 11.781 20.4319 12.1249V13.582C20.4319 13.9298 20.1545 14.2071 19.8068 14.2071Z" fill="#BE9A94"/>
<path d="M20.6427 12.75H18.5608C18.2169 12.75 17.9357 12.4688 17.9357 12.1249C17.9357 11.781 18.2169 11.4998 18.5608 11.4998H20.6427C20.9866 11.4998 21.2678 11.781 21.2678 12.1249C21.2678 12.4688 20.9866 12.75 20.6427 12.75Z" fill="#BE9A94"/>
<path d="M11.4746 12.3322C11.1308 12.3322 10.8496 12.051 10.8496 11.7071V10.5312L9.59968 9.41789L8.34981 10.5312V11.7071C8.34981 12.051 8.0686 12.3322 7.72473 12.3322C7.38086 12.3322 7.09965 12.051 7.09965 11.7071V10.2499C7.09965 10.0703 7.17774 9.90221 7.31048 9.78106L9.18544 8.11308C9.41973 7.90224 9.77904 7.90224 10.0136 8.11308L11.8886 9.78106C12.0213 9.90221 12.0994 10.07 12.0994 10.2499V11.7071C12.0994 12.0548 11.8185 12.3322 11.4746 12.3322Z" fill="#BE9A94"/>
<path d="M9.59968 9.20705C9.02538 9.20705 8.55679 8.73816 8.55679 8.16416C8.55679 7.59015 9.02568 7.12512 9.59968 7.12512C10.1737 7.12512 10.6426 7.59401 10.6426 8.16802C10.6426 8.74202 10.1737 9.20705 9.59968 9.20705ZM9.59968 7.95718C9.48655 7.95718 9.39271 8.05102 9.39271 8.16416C9.39271 8.39459 9.81082 8.39459 9.81082 8.16416C9.80696 8.05102 9.71282 7.95718 9.59968 7.95718Z" fill="#BE9A94"/>
<path d="M9.59968 8.37499C9.25581 8.37499 8.9746 8.09378 8.9746 7.74991V4.62508C8.9746 4.28121 9.25581 4 9.59968 4C9.94355 4 10.2248 4.28121 10.2248 4.62508V7.74991C10.2248 8.09378 9.94355 8.37499 9.59968 8.37499Z" fill="#BE9A94"/>
<path d="M43.6333 9.26592V10.8199H36.6613V13.2559H42.3733V14.7119H36.6613V18.3239H34.7993V9.26592H43.6333Z" fill="#BE9A94"/>
<path d="M52.9014 18.5059C51.6974 18.5059 50.6661 18.3193 49.8074 17.9459C48.9581 17.5633 48.3048 17.0219 47.8474 16.3219C47.3994 15.6219 47.1754 14.7819 47.1754 13.8019C47.1754 12.8126 47.3994 11.9679 47.8474 11.2679C48.3048 10.5679 48.9581 10.0313 49.8074 9.65792C50.6661 9.27526 51.6974 9.08392 52.9014 9.08392C54.1148 9.08392 55.1461 9.27526 55.9954 9.65792C56.8448 10.0313 57.4934 10.5679 57.9414 11.2679C58.3988 11.9679 58.6274 12.8126 58.6274 13.8019C58.6274 14.7819 58.3988 15.6219 57.9414 16.3219C57.4934 17.0219 56.8448 17.5633 55.9954 17.9459C55.1461 18.3193 54.1148 18.5059 52.9014 18.5059ZM52.9014 16.8959C53.6481 16.8959 54.3014 16.7839 54.8614 16.5599C55.4308 16.3359 55.8741 15.9953 56.1914 15.5379C56.5181 15.0806 56.6814 14.5019 56.6814 13.8019C56.6814 13.1019 56.5181 12.5233 56.1914 12.0659C55.8741 11.6086 55.4308 11.2679 54.8614 11.0439C54.3014 10.8106 53.6481 10.6939 52.9014 10.6939C52.1641 10.6939 51.5061 10.8106 50.9274 11.0439C50.3488 11.2679 49.8961 11.6086 49.5694 12.0659C49.2428 12.5233 49.0794 13.1019 49.0794 13.8019C49.0794 14.5019 49.2428 15.0806 49.5694 15.5379C49.8961 15.9953 50.3488 16.3359 50.9274 16.5599C51.5061 16.7839 52.1641 16.8959 52.9014 16.8959Z" fill="#BE9A94"/>
<path d="M68.635 18.5059C67.431 18.5059 66.3997 18.3193 65.541 17.9459C64.6917 17.5633 64.0384 17.0219 63.581 16.3219C63.133 15.6219 62.909 14.7819 62.909 13.8019C62.909 12.8126 63.133 11.9679 63.581 11.2679C64.0384 10.5679 64.6917 10.0313 65.541 9.65792C66.3997 9.27526 67.431 9.08392 68.635 9.08392C69.8484 9.08392 70.8797 9.27526 71.729 9.65792C72.5784 10.0313 73.227 10.5679 73.675 11.2679C74.1324 11.9679 74.361 12.8126 74.361 13.8019C74.361 14.7819 74.1324 15.6219 73.675 16.3219C73.227 17.0219 72.5784 17.5633 71.729 17.9459C70.8797 18.3193 69.8484 18.5059 68.635 18.5059ZM68.635 16.8959C69.3817 16.8959 70.035 16.7839 70.595 16.5599C71.1643 16.3359 71.6077 15.9953 71.925 15.5379C72.2517 15.0806 72.415 14.5019 72.415 13.8019C72.415 13.1019 72.2517 12.5233 71.925 12.0659C71.6077 11.6086 71.1643 11.2679 70.595 11.0439C70.035 10.8106 69.3817 10.6939 68.635 10.6939C67.8977 10.6939 67.2397 10.8106 66.661 11.0439C66.0824 11.2679 65.6297 11.6086 65.303 12.0659C64.9764 12.5233 64.813 13.1019 64.813 13.8019C64.813 14.5019 64.9764 15.0806 65.303 15.5379C65.6297 15.9953 66.0824 16.3359 66.661 16.5599C67.2397 16.7839 67.8977 16.8959 68.635 16.8959Z" fill="#BE9A94"/>
<path d="M84.1586 9.26592C85.1759 9.26592 86.0253 9.38726 86.7066 9.62992C87.388 9.87259 87.9293 10.2039 88.3306 10.6239C88.7413 11.0346 89.0306 11.5106 89.1986 12.0519C89.3759 12.5933 89.4646 13.1626 89.4646 13.7599C89.4646 14.3573 89.3666 14.9313 89.1706 15.4819C88.9839 16.0326 88.6806 16.5226 88.2606 16.9519C87.85 17.3719 87.304 17.7079 86.6226 17.9599C85.9506 18.2026 85.1293 18.3239 84.1586 18.3239H78.9786V9.26592H84.1586ZM80.8406 16.7279H84.1166C84.7886 16.7279 85.3439 16.6486 85.7826 16.4899C86.2306 16.3219 86.5853 16.0979 86.8466 15.8179C87.108 15.5379 87.2946 15.2206 87.4066 14.8659C87.5186 14.5113 87.5746 14.1426 87.5746 13.7599C87.5746 13.3773 87.5186 13.0133 87.4066 12.6679C87.2946 12.3226 87.108 12.0146 86.8466 11.7439C86.5853 11.4733 86.2306 11.2586 85.7826 11.0999C85.3439 10.9413 84.7886 10.8619 84.1166 10.8619H80.8406V16.7279Z" fill="#BE9A94"/>
<path d="M102.864 18.4779C102.435 18.4779 102.024 18.4219 101.632 18.3099C101.25 18.1979 100.914 18.0393 100.624 17.8339C100.335 17.6286 100.106 17.3813 99.9382 17.0919C99.7702 16.7933 99.6862 16.4619 99.6862 16.0979C99.6862 15.6499 99.7936 15.2719 100.008 14.9639C100.223 14.6466 100.517 14.3899 100.89 14.1939C101.273 13.9979 101.712 13.8533 102.206 13.7599C102.701 13.6573 103.228 13.5966 103.788 13.5779L103.844 13.6619C103.312 13.6433 102.813 13.6013 102.346 13.5359C101.889 13.4613 101.488 13.3446 101.142 13.1859C100.806 13.0273 100.54 12.8219 100.344 12.5699C100.158 12.3086 100.064 11.9819 100.064 11.5899C100.064 11.0859 100.223 10.6473 100.54 10.2739C100.858 9.89126 101.315 9.59726 101.912 9.39192C102.51 9.18659 103.219 9.08392 104.04 9.08392C104.61 9.08392 105.128 9.13992 105.594 9.25192C106.07 9.36392 106.476 9.53659 106.812 9.76992C107.158 9.99392 107.424 10.2786 107.61 10.6239C107.797 10.9599 107.89 11.3566 107.89 11.8139H106.182C106.173 11.4313 105.977 11.1419 105.594 10.9459C105.221 10.7406 104.712 10.6379 104.068 10.6379C103.378 10.6379 102.855 10.7499 102.5 10.9739C102.146 11.1886 101.968 11.4873 101.968 11.8699C101.968 12.1406 102.052 12.3739 102.22 12.5699C102.388 12.7659 102.645 12.9153 102.99 13.0179C103.345 13.1206 103.788 13.1719 104.32 13.1719H109.766V14.2219H108.002V18.3239H106.308C106.271 18.0533 106.243 17.7873 106.224 17.5259C106.206 17.2553 106.192 16.9566 106.182 16.6299C106.182 16.2939 106.182 15.8926 106.182 15.4259L106.308 15.8039C106.234 16.1213 106.117 16.4386 105.958 16.7559C105.809 17.0733 105.599 17.3626 105.328 17.6239C105.067 17.8853 104.731 18.0953 104.32 18.2539C103.919 18.4033 103.434 18.4779 102.864 18.4779ZM103.634 17.0779C104.204 17.0779 104.675 16.9799 105.048 16.7839C105.422 16.5786 105.702 16.3173 105.888 15.9999C106.084 15.6733 106.182 15.3373 106.182 14.9919V14.2219H104.32C103.508 14.2219 102.855 14.3433 102.36 14.5859C101.866 14.8193 101.618 15.1926 101.618 15.7059C101.618 16.1073 101.791 16.4386 102.136 16.6999C102.482 16.9519 102.981 17.0779 103.634 17.0779Z" fill="#BE9A94"/>
<path d="M120.147 18.3239V9.26592H125.369C126.583 9.26592 127.502 9.47126 128.127 9.88192C128.762 10.2833 129.079 10.8853 129.079 11.6879C129.079 12.2013 128.953 12.6073 128.701 12.9059C128.449 13.1953 128.09 13.4099 127.623 13.5499C127.166 13.6899 126.625 13.7786 125.999 13.8159L126.055 13.7179C126.513 13.7273 126.942 13.7599 127.343 13.8159C127.754 13.8719 128.113 13.9746 128.421 14.1239C128.729 14.2733 128.972 14.4833 129.149 14.7539C129.327 15.0153 129.415 15.3606 129.415 15.7899C129.415 16.3499 129.266 16.8166 128.967 17.1899C128.669 17.5539 128.253 17.8293 127.721 18.0159C127.189 18.2026 126.573 18.3053 125.873 18.3239H120.147ZM122.009 16.7839H125.677C126.265 16.7839 126.718 16.6906 127.035 16.5039C127.353 16.3079 127.511 15.9999 127.511 15.5799C127.511 15.2719 127.418 15.0479 127.231 14.9079C127.045 14.7679 126.797 14.6839 126.489 14.6559C126.181 14.6186 125.85 14.5999 125.495 14.5999H122.009V16.7839ZM122.009 13.1019H125.299C125.887 13.1019 126.34 13.0179 126.657 12.8499C126.975 12.6726 127.133 12.3739 127.133 11.9539C127.133 11.5339 126.975 11.2399 126.657 11.0719C126.34 10.8946 125.92 10.8059 125.397 10.8059H122.009V13.1019Z" fill="#BE9A94"/>
<path d="M135.733 14.5439V16.7699H142.719V18.3239H133.871V9.26592H142.705V10.8199H135.733V13.0739H141.445V14.5439H135.733Z" fill="#BE9A94"/>
<path d="M150.637 18.3239L146.633 9.26592H148.691L152.121 17.4419H151.477L154.893 9.26592H156.923L152.961 18.3239H150.637Z" fill="#BE9A94"/>
<path d="M162.948 14.5439V16.7699H169.934V18.3239H161.086V9.26592H169.92V10.8199H162.948V13.0739H168.66V14.5439H162.948Z" fill="#BE9A94"/>
<path d="M174.646 18.3239V9.26592H180.792C181.492 9.26592 182.099 9.36392 182.612 9.55992C183.135 9.74659 183.541 10.0453 183.83 10.4559C184.12 10.8573 184.264 11.3753 184.264 12.0099C184.264 12.4393 184.19 12.8033 184.04 13.1019C183.891 13.4006 183.681 13.6433 183.41 13.8299C183.149 14.0166 182.846 14.1613 182.5 14.2639C182.155 14.3573 181.786 14.4179 181.394 14.4459L181.198 14.3339C181.852 14.3433 182.388 14.3993 182.808 14.5019C183.228 14.5953 183.541 14.7726 183.746 15.0339C183.961 15.2859 184.068 15.6639 184.068 16.1679V18.3239H182.206V16.2939C182.206 15.9486 182.146 15.6826 182.024 15.4959C181.903 15.2999 181.684 15.1646 181.366 15.0899C181.058 15.0153 180.61 14.9779 180.022 14.9779H176.508V18.3239H174.646ZM176.508 13.5219H180.792C181.315 13.5219 181.712 13.3959 181.982 13.1439C182.262 12.8919 182.402 12.5513 182.402 12.1219C182.402 11.7113 182.262 11.3986 181.982 11.1839C181.712 10.9693 181.315 10.8619 180.792 10.8619H176.508V13.5219Z" fill="#BE9A94"/>
<path d="M190.427 16.3499V14.7959H196.419V16.3499H190.427ZM188.173 18.3239L192.429 9.26592H194.445L198.743 18.3239H196.713L192.989 10.1619H193.885L190.189 18.3239H188.173Z" fill="#BE9A94"/>
<path d="M207.616 18.5059C206.776 18.5059 206.016 18.4079 205.334 18.2119C204.662 18.0159 204.079 17.7219 203.584 17.3299C203.099 16.9379 202.726 16.4526 202.464 15.8739C202.203 15.2953 202.072 14.6279 202.072 13.8719C202.072 13.1066 202.208 12.4299 202.478 11.8419C202.758 11.2446 203.15 10.7406 203.654 10.3299C204.168 9.91926 204.774 9.61126 205.474 9.40592C206.184 9.19126 206.968 9.08392 207.826 9.08392C208.844 9.08392 209.721 9.22859 210.458 9.51792C211.196 9.79792 211.774 10.1946 212.194 10.7079C212.624 11.2213 212.866 11.8326 212.922 12.5419H211.13C211.009 12.1686 210.808 11.8466 210.528 11.5759C210.258 11.2959 209.898 11.0813 209.45 10.9319C209.002 10.7733 208.461 10.6939 207.826 10.6939C207.014 10.6939 206.319 10.8246 205.74 11.0859C205.171 11.3473 204.737 11.7159 204.438 12.1919C204.14 12.6679 203.99 13.2279 203.99 13.8719C203.99 14.4973 204.121 15.0386 204.382 15.4959C204.644 15.9439 205.045 16.2893 205.586 16.5319C206.137 16.7746 206.837 16.8959 207.686 16.8959C208.34 16.8959 208.914 16.8119 209.408 16.6439C209.912 16.4666 210.332 16.2333 210.668 15.9439C211.004 15.6453 211.242 15.3139 211.382 14.9499L212.11 14.6839C211.989 15.8879 211.532 16.8259 210.738 17.4979C209.954 18.1699 208.914 18.5059 207.616 18.5059ZM211.634 18.3239C211.634 18.0346 211.653 17.7033 211.69 17.3299C211.728 16.9473 211.774 16.5646 211.83 16.1819C211.886 15.7899 211.938 15.4306 211.984 15.1039H207.84V13.9139H213.244V18.3239H211.634Z" fill="#BE9A94"/>
<path d="M219.867 14.5439V16.7699H226.853V18.3239H218.005V9.26592H226.839V10.8199H219.867V13.0739H225.579V14.5439H219.867Z" fill="#BE9A94"/>
</svg>
