<svg width="167" height="28" viewBox="0 0 167 28" fill="none" xmlns="http://www.w3.org/2000/svg">
<path d="M6.92182 16.0651H5.43652V21.4482H6.92182V16.0651Z" fill="#BE9A94"/>
<path d="M9.5429 16.0651H8.05789V21.4482H9.5429V16.0651Z" fill="#BE9A94"/>
<path d="M18.5794 22.5843H4.26386C4.11814 22.5843 4 22.7024 4 22.8482V23.7361C4 23.8819 4.11814 24 4.26386 24H18.5794C18.7251 24 18.8432 23.8819 18.8432 23.7361V22.8482C18.8432 22.7024 18.7251 22.5843 18.5794 22.5843Z" fill="#BE9A94"/>
<path d="M14.7856 16.0651H13.3003V21.4482H14.7856V16.0651Z" fill="#BE9A94"/>
<path d="M12.1643 16.0651H10.679V21.4482H12.1643V16.0651Z" fill="#BE9A94"/>
<path d="M17.1791 13.5133C16.53 11.1546 14.4867 9.37066 11.9899 9.12167V7.24667H14.3501C14.4959 7.24667 14.614 7.12857 14.614 6.98281V5.00815C14.614 4.86239 14.4959 4.74429 14.3501 4.74429H11.9899V4.26386C11.9899 4.1181 11.8718 4 11.7261 4H11.118C10.9723 4 10.8542 4.1181 10.8542 4.26386V9.11334C8.328 9.33793 6.25577 11.1344 5.60102 13.5133H4.26386C4.1181 13.5133 4 13.6314 4 13.7772V14.6649C4 14.8106 4.1181 14.9287 4.26386 14.9287H18.5794C18.7251 14.9287 18.8432 14.8106 18.8432 14.6649V13.7772C18.8432 13.6314 18.7251 13.5133 18.5794 13.5133H17.1791Z" fill="#BE9A94"/>
<path d="M17.407 16.0651H15.9217V21.4482H17.407V16.0651Z" fill="#BE9A94"/>
<path d="M36.4253 19.6602C34.6961 19.6602 33.368 19.194 32.4409 18.2617C31.519 17.3294 31.0581 15.9049 31.0581 13.9883C31.0581 12.0664 31.5399 10.6445 32.5034 9.72266C33.4722 8.79557 34.9227 8.33203 36.855 8.33203H38.5972C39.7482 8.33203 40.7847 8.60807 41.7065 9.16016C42.6336 9.70703 43.0972 10.3919 43.0972 11.2148C43.0972 11.5221 43.006 11.7435 42.8237 11.8789C42.6414 12.0091 42.4644 12.0742 42.2925 12.0742H41.3628C40.9149 12.0742 40.5581 11.819 40.2925 11.3086C40.0269 10.7982 39.3706 10.543 38.3237 10.543H36.9331C35.7925 10.543 35.019 10.7878 34.6128 11.2773C34.2065 11.7669 34.0034 12.668 34.0034 13.9805C34.0034 15.293 34.1857 16.2018 34.5503 16.707C34.9149 17.207 35.5659 17.457 36.5034 17.457H38.105C38.9435 17.457 39.5425 17.2982 39.9019 16.9805C40.2612 16.6576 40.4461 16.1966 40.4565 15.5977H38.6909C38.4878 15.5977 38.3133 15.5273 38.1675 15.3867C38.0269 15.2409 37.9565 15.0664 37.9565 14.8633V14.2539C37.9565 14.0508 38.0269 13.8789 38.1675 13.7383C38.3133 13.5924 38.4878 13.5195 38.6909 13.5195H42.6128C42.8159 13.5195 42.9878 13.5924 43.1284 13.7383C43.2743 13.8789 43.3472 14.0508 43.3472 14.2539V15.1211C43.3472 16.5794 42.9097 17.7018 42.0347 18.4883C41.1597 19.2695 39.8758 19.6602 38.1831 19.6602H36.4253Z" fill="#BE9A94"/>
<path d="M55.2847 18.4414C54.2222 19.3737 52.6597 19.8398 50.5972 19.8398C48.5399 19.8398 46.9774 19.3737 45.9097 18.4414C44.842 17.5039 44.3081 16.0221 44.3081 13.9961C44.3081 11.9701 44.842 10.4909 45.9097 9.55859C46.9774 8.6263 48.5399 8.16016 50.5972 8.16016C52.6597 8.16016 54.2222 8.6263 55.2847 9.55859C56.3524 10.4909 56.8862 11.9701 56.8862 13.9961C56.8862 16.0221 56.3524 17.5039 55.2847 18.4414ZM53.1519 11.207C52.6258 10.582 51.7743 10.2695 50.5972 10.2695C49.4253 10.2695 48.5737 10.582 48.0425 11.207C47.5164 11.832 47.2534 12.7643 47.2534 14.0039C47.2534 15.2383 47.5164 16.168 48.0425 16.793C48.5737 17.4128 49.4253 17.7227 50.5972 17.7227C51.7743 17.7227 52.6258 17.4128 53.1519 16.793C53.6779 16.168 53.9409 15.2383 53.9409 14.0039C53.9409 12.7643 53.6779 11.832 53.1519 11.207Z" fill="#BE9A94"/>
<path d="M57.355 9.05078C57.3237 8.98828 57.3081 8.92057 57.3081 8.84766C57.3081 8.76953 57.355 8.67578 57.4487 8.56641C57.5477 8.45182 57.6857 8.39453 57.8628 8.39453H59.5737C59.98 8.39453 60.2899 8.64193 60.5034 9.13672L63.5269 15.8711L66.5503 9.13672C66.7638 8.64714 67.0737 8.39974 67.48 8.39453H69.1909C69.3732 8.39453 69.5112 8.45182 69.605 8.56641C69.6987 8.67578 69.7456 8.76953 69.7456 8.84766C69.7456 8.92057 69.7326 8.98828 69.7065 9.05078L65.2065 18.8008C64.9618 19.332 64.5894 19.5977 64.0894 19.5977H62.9644C62.4644 19.5977 62.092 19.332 61.8472 18.8008L57.355 9.05078Z" fill="#BE9A94"/>
<path d="M71.0269 18.8477V9.12109C71.0269 8.91797 71.0998 8.74609 71.2456 8.60547C71.3914 8.46484 71.5659 8.39453 71.769 8.39453H80.7769C80.98 8.39453 81.1519 8.46745 81.2925 8.61328C81.4383 8.75911 81.5112 8.93359 81.5112 9.13672V9.87109C81.5112 10.0742 81.4383 10.2487 81.2925 10.3945C81.1519 10.5352 80.98 10.6055 80.7769 10.6055H73.9722V12.8789H79.8315C80.0347 12.8789 80.2065 12.9518 80.3472 13.0977C80.493 13.2383 80.5659 13.4102 80.5659 13.6133V14.3477C80.5659 14.5508 80.493 14.7253 80.3472 14.8711C80.2065 15.0117 80.0347 15.082 79.8315 15.082H73.9722V17.3867H80.7612C80.9591 17.3867 81.1284 17.457 81.269 17.5977C81.4097 17.7383 81.48 17.9102 81.48 18.1133V18.8633C81.48 19.0664 81.4071 19.2409 81.2612 19.3867C81.1154 19.5273 80.9409 19.5977 80.7378 19.5977H71.769C71.5659 19.5977 71.3914 19.5273 71.2456 19.3867C71.0998 19.2409 71.0269 19.0612 71.0269 18.8477Z" fill="#BE9A94"/>
<path d="M94.5815 19.2617C94.5815 19.4857 94.4487 19.5977 94.1831 19.5977H92.3081C92.1102 19.5977 91.8914 19.5273 91.6519 19.3867C91.4175 19.2409 91.2378 19.0664 91.1128 18.8633L89.7847 16.7852C89.2378 15.931 88.5763 15.5039 87.8003 15.5039H85.894V18.8633C85.894 19.0664 85.8211 19.2409 85.6753 19.3867C85.5347 19.5273 85.3628 19.5977 85.1597 19.5977H83.6909C83.4878 19.5977 83.3133 19.5273 83.1675 19.3867C83.0216 19.2409 82.9487 19.0664 82.9487 18.8633V9.13672C82.9487 8.93359 83.019 8.75911 83.1597 8.61328C83.3003 8.46745 83.4722 8.39453 83.6753 8.39453H90.1206C91.3133 8.39453 92.2899 8.71484 93.0503 9.35547C93.8159 9.99609 94.1987 10.8607 94.1987 11.9492C94.1987 13.4648 93.217 14.4154 91.2534 14.8008C91.5659 14.9154 91.855 15.1133 92.1206 15.3945C92.3862 15.6706 92.6909 16.0742 93.0347 16.6055L94.4565 18.8633C94.5399 19.0091 94.5815 19.1419 94.5815 19.2617ZM85.894 13.293H89.2222C89.7586 13.293 90.23 13.1862 90.6362 12.9727C91.0477 12.7591 91.2534 12.418 91.2534 11.9492C91.2534 11.4805 91.0477 11.1393 90.6362 10.9258C90.23 10.7122 89.7586 10.6055 89.2222 10.6055H85.894V13.293Z" fill="#BE9A94"/>
<path d="M95.8862 18.8633V9.13672C95.8862 8.93359 95.9565 8.75911 96.0972 8.61328C96.2378 8.46745 96.4097 8.39453 96.6128 8.39453H98.9097C99.092 8.39453 99.2847 8.46745 99.4878 8.61328C99.6909 8.75911 99.8576 8.93359 99.9878 9.13672L104.707 16.3945V9.12109C104.707 8.91797 104.777 8.74609 104.917 8.60547C105.063 8.46484 105.238 8.39453 105.441 8.39453H106.785C106.988 8.39453 107.16 8.46484 107.3 8.60547C107.446 8.74609 107.519 8.92318 107.519 9.13672V18.8633C107.519 19.0664 107.446 19.2409 107.3 19.3867C107.16 19.5273 106.988 19.5977 106.785 19.5977H104.191C103.988 19.5977 103.779 19.5273 103.566 19.3867C103.352 19.2409 103.183 19.0664 103.058 18.8633L98.7378 12.1602V18.8633C98.7378 19.0664 98.6649 19.2409 98.519 19.3867C98.3784 19.5273 98.2065 19.5977 98.0034 19.5977H96.6284C96.4253 19.5977 96.2508 19.5273 96.105 19.3867C95.9591 19.2409 95.8862 19.0664 95.8862 18.8633Z" fill="#BE9A94"/>
<path d="M109.761 18.8477V9.15234C109.761 8.9388 109.832 8.75911 109.972 8.61328C110.113 8.46745 110.285 8.39453 110.488 8.39453H113.667C113.871 8.39453 114.063 8.46745 114.246 8.61328C114.428 8.75911 114.55 8.93359 114.613 9.13672L116.917 15.8086L119.222 9.13672C119.285 8.93359 119.407 8.75911 119.589 8.61328C119.772 8.46745 119.964 8.39453 120.167 8.39453H123.347C123.55 8.39453 123.72 8.46745 123.855 8.61328C123.996 8.75911 124.066 8.9388 124.066 9.15234V18.8477C124.066 19.0612 123.993 19.2409 123.847 19.3867C123.707 19.5273 123.535 19.5977 123.332 19.5977H121.925C121.722 19.5977 121.548 19.5273 121.402 19.3867C121.261 19.2409 121.191 19.0612 121.191 18.8477V11.2148L118.433 18.8945C118.36 19.0872 118.233 19.2539 118.05 19.3945C117.868 19.5299 117.675 19.5977 117.472 19.5977H116.355C116.152 19.5977 115.959 19.5299 115.777 19.3945C115.6 19.2539 115.472 19.0872 115.394 18.8945L112.644 11.2148V18.8477C112.644 19.0612 112.571 19.2409 112.425 19.3867C112.285 19.5273 112.113 19.5977 111.91 19.5977H110.503C110.3 19.5977 110.126 19.5273 109.98 19.3867C109.834 19.2409 109.761 19.0612 109.761 18.8477Z" fill="#BE9A94"/>
<path d="M126.308 18.8477V9.12109C126.308 8.91797 126.381 8.74609 126.527 8.60547C126.673 8.46484 126.847 8.39453 127.05 8.39453H136.058C136.261 8.39453 136.433 8.46745 136.574 8.61328C136.72 8.75911 136.792 8.93359 136.792 9.13672V9.87109C136.792 10.0742 136.72 10.2487 136.574 10.3945C136.433 10.5352 136.261 10.6055 136.058 10.6055H129.253V12.8789H135.113C135.316 12.8789 135.488 12.9518 135.628 13.0977C135.774 13.2383 135.847 13.4102 135.847 13.6133V14.3477C135.847 14.5508 135.774 14.7253 135.628 14.8711C135.488 15.0117 135.316 15.082 135.113 15.082H129.253V17.3867H136.042C136.24 17.3867 136.41 17.457 136.55 17.5977C136.691 17.7383 136.761 17.9102 136.761 18.1133V18.8633C136.761 19.0664 136.688 19.2409 136.542 19.3867C136.397 19.5273 136.222 19.5977 136.019 19.5977H127.05C126.847 19.5977 126.673 19.5273 126.527 19.3867C126.381 19.2409 126.308 19.0612 126.308 18.8477Z" fill="#BE9A94"/>
<path d="M138.23 18.8633V9.13672C138.23 8.93359 138.3 8.75911 138.441 8.61328C138.582 8.46745 138.753 8.39453 138.957 8.39453H141.253C141.436 8.39453 141.628 8.46745 141.832 8.61328C142.035 8.75911 142.201 8.93359 142.332 9.13672L147.05 16.3945V9.12109C147.05 8.91797 147.121 8.74609 147.261 8.60547C147.407 8.46484 147.582 8.39453 147.785 8.39453H149.128C149.332 8.39453 149.503 8.46484 149.644 8.60547C149.79 8.74609 149.863 8.92318 149.863 9.13672V18.8633C149.863 19.0664 149.79 19.2409 149.644 19.3867C149.503 19.5273 149.332 19.5977 149.128 19.5977H146.535C146.332 19.5977 146.123 19.5273 145.91 19.3867C145.696 19.2409 145.527 19.0664 145.402 18.8633L141.082 12.1602V18.8633C141.082 19.0664 141.009 19.2409 140.863 19.3867C140.722 19.5273 140.55 19.5977 140.347 19.5977H138.972C138.769 19.5977 138.595 19.5273 138.449 19.3867C138.303 19.2409 138.23 19.0664 138.23 18.8633Z" fill="#BE9A94"/>
<path d="M151.144 9.87109V9.13672C151.144 8.92318 151.214 8.74609 151.355 8.60547C151.496 8.46484 151.673 8.39453 151.886 8.39453H161.8C162.014 8.39453 162.191 8.46484 162.332 8.60547C162.472 8.74609 162.542 8.92318 162.542 9.13672V9.87109C162.542 10.0846 162.472 10.2617 162.332 10.4023C162.191 10.5378 162.014 10.6055 161.8 10.6055H158.316V18.8789C158.316 19.082 158.243 19.2539 158.097 19.3945C157.957 19.5299 157.785 19.5977 157.582 19.5977H156.105C155.902 19.5977 155.727 19.5299 155.582 19.3945C155.441 19.2539 155.371 19.082 155.371 18.8789V10.6055H151.886C151.673 10.6055 151.496 10.5378 151.355 10.4023C151.214 10.2617 151.144 10.0846 151.144 9.87109Z" fill="#BE9A94"/>
</svg>
