<svg width="160" height="32" viewBox="0 0 160 32" fill="none" xmlns="http://www.w3.org/2000/svg">
<path d="M16.9815 14.1157C16.7319 14.0128 16.4699 13.9593 16.2011 13.9593C15.374 13.9593 14.6334 14.453 14.3165 15.2183C14.108 15.7216 14.108 16.2757 14.3165 16.779C14.525 17.2823 14.9173 17.6731 15.4206 17.8816C15.6703 17.9845 15.9322 18.0379 16.1997 18.0379C17.0281 18.0379 17.7674 17.5442 18.0843 16.779C18.2927 16.2757 18.2927 15.7216 18.0843 15.2183C17.8758 14.715 17.4835 14.3241 16.9815 14.1157ZM17.7304 16.6322C17.4725 17.2535 16.8732 17.6539 16.2011 17.6539C15.9844 17.6539 15.7704 17.6114 15.5688 17.5278C15.16 17.3591 14.8418 17.0409 14.6731 16.6322C14.5044 16.2235 14.5044 15.7737 14.6731 15.365C14.931 14.7438 15.5304 14.3433 16.2025 14.3433C16.4192 14.3433 16.6331 14.3858 16.8361 14.4695C17.2449 14.6382 17.5631 14.9563 17.7318 15.365C17.9005 15.7737 17.9005 16.2235 17.7318 16.6322H17.7304ZM14.968 8.78217L13.9174 7.73166L14.189 7.46011L15.1834 8.4544H17.2188L18.2132 7.46011L18.4848 7.73166L17.4341 8.78217C17.3985 8.81783 17.3491 8.8384 17.2983 8.8384H15.1038C15.0531 8.8384 15.0037 8.81783 14.968 8.78217ZM16.0091 5.89394V7.45463H16.3931V5.89394C16.5755 5.85691 16.7429 5.76777 16.8773 5.63337C17.2503 5.26034 17.2503 4.6528 16.8773 4.27977C16.6962 4.09874 16.4562 4 16.1997 4C15.9432 4 15.7032 4.10011 15.5221 4.27977C15.3411 4.45943 15.2423 4.7008 15.2423 4.95726C15.2423 5.21371 15.3425 5.45371 15.5221 5.63474C15.6566 5.76914 15.8253 5.85829 16.0077 5.89531L16.0091 5.89394ZM15.7951 4.55131C15.9034 4.44297 16.0475 4.384 16.2011 4.384C16.3547 4.384 16.4987 4.44297 16.6071 4.55131C16.8306 4.77486 16.8306 5.13829 16.6071 5.36183C16.3904 5.57851 16.0132 5.57851 15.7965 5.36183C15.6881 5.25349 15.6291 5.10949 15.6291 4.95589C15.6291 4.80229 15.6881 4.65829 15.7965 4.54994L15.7951 4.55131ZM19.8577 12.0709L21.9028 10.0261L22.1743 10.2976L20.1293 12.3424L19.8577 12.0709ZM16.3931 26.1047V24.544H16.0091V26.1047C15.8266 26.1417 15.6593 26.2309 15.5235 26.3653C15.3425 26.5463 15.2437 26.7863 15.2437 27.0427C15.2437 27.2992 15.3438 27.5392 15.5235 27.7202C15.7046 27.9013 15.9446 28 16.2011 28C16.4576 28 16.6976 27.8999 16.8786 27.7202C17.2517 27.3472 17.2517 26.7397 16.8786 26.3666C16.7442 26.2322 16.5769 26.1431 16.3945 26.1061L16.3931 26.1047ZM16.6057 27.4473C16.389 27.664 16.0118 27.664 15.7951 27.4473C15.6867 27.339 15.6278 27.195 15.6278 27.0414C15.6278 26.8878 15.6867 26.7451 15.7951 26.6354C15.9034 26.5271 16.0475 26.4681 16.2011 26.4681C16.3547 26.4681 16.4987 26.5271 16.6057 26.6354C16.8293 26.859 16.8293 27.2224 16.6057 27.4459V27.4473ZM17.4328 23.2151L18.4834 24.2656L18.2118 24.5371L17.2174 23.5429H15.182L14.1876 24.5371L13.916 24.2656L14.9667 23.2151C15.0023 23.1794 15.0517 23.1589 15.1024 23.1589H17.297C17.3477 23.1589 17.3971 23.1794 17.4328 23.2151ZM12.5431 19.9264L10.498 21.9712L10.2265 21.6997L12.2715 19.6549L12.5431 19.9264ZM23.7448 14.981V17.0162L24.7392 18.0105L24.4676 18.2821L23.417 17.2315C23.3813 17.1959 23.3608 17.1465 23.3608 17.0958V14.9015C23.3608 14.8507 23.3813 14.8014 23.417 14.7657L24.4676 13.7152L24.7392 13.9867L23.7448 14.981ZM24.2468 20.3886C24.0561 20.3886 23.8751 20.4448 23.7201 20.5477L20.0292 16.8571L20.5737 16.779C20.6683 16.7653 20.7383 16.6843 20.7383 16.5883V16.1906H22.952V15.8066H20.7383V15.4089C20.7383 15.3129 20.6683 15.232 20.5737 15.2183L20.0292 15.1401L23.7201 11.4496C23.8751 11.5525 24.0575 11.6073 24.2482 11.6073C24.5047 11.6073 24.7447 11.5072 24.9257 11.3275C25.1068 11.1479 25.2069 10.9065 25.2069 10.6501C25.2069 10.3936 25.1068 10.1536 24.9257 9.97257C24.7447 9.79154 24.5047 9.6928 24.2482 9.6928C23.9917 9.6928 23.7517 9.79292 23.5706 9.97257C23.2442 10.299 23.203 10.805 23.4485 11.1767L19.6808 14.944C19.5971 14.6642 19.4805 14.3954 19.3297 14.1417L19.844 13.456C19.9016 13.3792 19.8934 13.2722 19.8262 13.205L18.9923 12.3712C18.925 12.304 18.8181 12.2958 18.7413 12.3534L18.0555 12.8677C17.8031 12.7168 17.5343 12.6002 17.2531 12.5166L21.0208 8.74926C21.1758 8.85211 21.3582 8.90697 21.5475 8.90697C21.8026 8.90697 22.044 8.80686 22.2251 8.6272C22.5982 8.25417 22.5982 7.64663 22.2251 7.2736C22.044 7.09257 21.804 6.99383 21.5475 6.99383C21.291 6.99383 21.051 7.09394 20.87 7.2736C20.6889 7.45326 20.5902 7.69463 20.5902 7.95109C20.5902 8.14171 20.6464 8.32274 20.7479 8.47909L17.0569 12.1696L16.9788 11.6251C16.9651 11.5305 16.8841 11.4606 16.7881 11.4606H16.3904V9.24709H16.0063V11.4606H15.6086C15.5125 11.4606 15.4316 11.5305 15.4179 11.6251L15.3397 12.1696L11.6488 8.47909C11.8943 8.10743 11.8532 7.60137 11.5267 7.27497C11.3457 7.09394 11.1056 6.9952 10.8492 6.9952C10.5927 6.9952 10.3526 7.09531 10.1716 7.27497C9.79852 7.648 9.79852 8.25554 10.1716 8.62857C10.3526 8.8096 10.5927 8.90834 10.8492 8.90834C11.0398 8.90834 11.2209 8.85212 11.3758 8.75063L15.1436 12.5179C14.8638 12.603 14.595 12.7182 14.3426 12.869L13.6554 12.3547C13.5786 12.2971 13.4716 12.3054 13.4044 12.3726L12.5705 13.2064C12.5033 13.2736 12.4951 13.3806 12.5527 13.4574L13.067 14.1431C12.9161 14.3968 12.8009 14.6656 12.7159 14.9454L8.94814 11.1781C9.19365 10.8064 9.1525 10.3003 8.82606 9.97394C8.64502 9.79292 8.40499 9.69417 8.1485 9.69417C7.89202 9.69417 7.65199 9.79429 7.47094 9.97394C7.09787 10.347 7.09787 10.9545 7.47094 11.3275C7.65199 11.5086 7.89202 11.6073 8.1485 11.6073C8.33915 11.6073 8.5202 11.5511 8.67519 11.4496L12.3661 15.1401L11.8216 15.2183C11.727 15.232 11.657 15.3129 11.657 15.4089V15.8066H9.48031V16.1906H11.657V16.5883C11.657 16.6843 11.727 16.7653 11.8216 16.779L12.3661 16.8571L8.67519 20.5477C8.5202 20.4448 8.33778 20.3899 8.1485 20.3899C7.89339 20.3899 7.65199 20.4901 7.47094 20.6697C7.09787 21.0427 7.09787 21.6503 7.47094 22.0233C7.65199 22.2043 7.89202 22.3045 8.1485 22.3045C8.40499 22.3045 8.64502 22.2043 8.82606 22.0233C9.1525 21.6969 9.19365 21.1909 8.94814 20.8192L12.7159 17.0519C12.7995 17.3317 12.9161 17.6018 13.067 17.8542L12.5527 18.5399C12.4951 18.6167 12.5033 18.7237 12.5705 18.7909L13.4044 19.6247C13.4716 19.6933 13.5786 19.7001 13.6554 19.6425L14.3426 19.1282C14.595 19.2791 14.8638 19.3957 15.1436 19.4793L11.3758 23.2466C11.2209 23.1438 11.0384 23.0875 10.8492 23.0875C10.594 23.0875 10.3526 23.1877 10.1716 23.3687C9.79852 23.7417 9.79852 24.3493 10.1716 24.7223C10.3526 24.9033 10.5927 25.0021 10.8492 25.0021C11.1056 25.0021 11.3457 24.9019 11.5267 24.7223C11.8532 24.3959 11.8943 23.8898 11.6488 23.5182L15.3397 19.8277L15.4179 20.3721C15.4316 20.4667 15.5125 20.5367 15.6086 20.5367H16.0063V22.7131H16.3904V20.5367H16.7881C16.8841 20.5367 16.9651 20.4667 16.9788 20.3721L17.0569 19.8277L20.7479 23.5182C20.645 23.6731 20.5902 23.8555 20.5902 24.0448C20.5902 24.2999 20.6903 24.5413 20.87 24.7223C21.0496 24.9033 21.291 25.0021 21.5475 25.0021C21.804 25.0021 22.044 24.9019 22.2251 24.7223C22.5982 24.3493 22.5982 23.7417 22.2251 23.3687C22.044 23.1877 21.804 23.0875 21.5475 23.0875C21.3569 23.0875 21.1758 23.1438 21.0208 23.2466L17.2531 19.4793C17.5343 19.3957 17.8031 19.2791 18.0555 19.1282L18.7413 19.6425C18.8181 19.7001 18.925 19.6933 18.9923 19.6247L19.8262 18.7909C19.8934 18.7237 19.9016 18.6167 19.844 18.5399L19.3297 17.8542C19.4805 17.6005 19.5971 17.3317 19.6808 17.0519L23.4485 20.8192C23.203 21.1909 23.2442 21.6969 23.5706 22.0233C23.7517 22.2043 23.9917 22.3045 24.2482 22.3045C24.5047 22.3045 24.7447 22.2043 24.9257 22.0233C25.1068 21.8423 25.2069 21.6023 25.2069 21.3458C25.2069 21.0894 25.1068 20.8494 24.9257 20.6683C24.7447 20.4873 24.5047 20.3886 24.2482 20.3886H24.2468ZM23.8408 10.2455C23.9492 10.1371 24.0932 10.0782 24.2468 10.0782C24.4004 10.0782 24.5444 10.1371 24.6528 10.2455C24.7611 10.3538 24.8215 10.4978 24.8215 10.6514C24.8215 10.805 24.7611 10.949 24.6528 11.0574C24.4361 11.2741 24.0589 11.2741 23.8422 11.0574C23.6186 10.8338 23.6186 10.4704 23.8422 10.2469L23.8408 10.2455ZM21.1415 7.54651C21.2499 7.43817 21.3939 7.3792 21.5475 7.3792C21.7011 7.3792 21.8452 7.43817 21.9535 7.54651C22.1771 7.77006 22.1771 8.13349 21.9535 8.35703C21.7368 8.57371 21.3596 8.57371 21.1429 8.35703C21.0345 8.24869 20.9756 8.10469 20.9756 7.95109C20.9756 7.79749 21.0345 7.65349 21.1429 7.54514L21.1415 7.54651ZM10.4459 8.35703C10.2223 8.13349 10.2223 7.77006 10.4459 7.54651C10.5543 7.43817 10.6983 7.3792 10.8519 7.3792C11.0055 7.3792 11.1495 7.43817 11.2579 7.54651C11.4815 7.77006 11.4815 8.13349 11.2579 8.35703C11.0412 8.57371 10.664 8.57371 10.4473 8.35703H10.4459ZM7.74663 11.056C7.52306 10.8325 7.52306 10.469 7.74663 10.2455C7.85498 10.1371 7.999 10.0782 8.15262 10.0782C8.30623 10.0782 8.45025 10.1371 8.55861 10.2455C8.78217 10.469 8.78217 10.8325 8.55861 11.056C8.3419 11.2727 7.96471 11.2727 7.748 11.056H7.74663ZM8.55723 21.7504C8.34052 21.9671 7.96334 21.9671 7.74663 21.7504C7.52306 21.5269 7.52306 21.1634 7.74663 20.9399C7.85498 20.8315 7.999 20.7726 8.15262 20.7726C8.30623 20.7726 8.45025 20.8315 8.55723 20.9399C8.7808 21.1634 8.7808 21.5269 8.55723 21.7504ZM11.2565 24.4494C11.0398 24.6661 10.6626 24.6661 10.4459 24.4494C10.2223 24.2258 10.2223 23.8624 10.4459 23.6389C10.5543 23.5305 10.6983 23.4702 10.8519 23.4702C11.0055 23.4702 11.1495 23.5305 11.2579 23.6389C11.4815 23.8624 11.4815 24.2258 11.2579 24.4494H11.2565ZM21.9521 23.6389C22.1757 23.8624 22.1757 24.2258 21.9521 24.4494C21.7354 24.6661 21.3582 24.6661 21.1415 24.4494C21.0332 24.341 20.9742 24.197 20.9742 24.0434C20.9742 23.8898 21.0332 23.7458 21.1415 23.6375C21.2499 23.5291 21.3939 23.4688 21.5475 23.4688C21.7011 23.4688 21.8438 23.5291 21.9535 23.6375L21.9521 23.6389ZM19.379 16.6885C19.2981 17.0683 19.1486 17.429 18.9346 17.7595C18.8908 17.8267 18.8935 17.9145 18.9429 17.979L19.4353 18.6359L18.8373 19.2338L18.1789 18.7401C18.1144 18.6921 18.0267 18.6894 17.9595 18.7333C17.6316 18.9458 17.2709 19.0953 16.8896 19.1776C16.8101 19.1941 16.7511 19.2585 16.7401 19.3381L16.6235 20.1513H15.7773L15.6607 19.3381C15.6497 19.2585 15.5894 19.1941 15.5112 19.1776C15.1299 19.0967 14.7691 18.9458 14.4413 18.7333C14.3741 18.6894 14.2863 18.6921 14.2219 18.7401L13.5635 19.2338L12.9655 18.6359L13.4579 17.979C13.5018 17.92 13.5087 17.8418 13.4757 17.7774C13.473 17.7705 13.4689 17.765 13.4648 17.7595C13.2522 17.4304 13.1027 17.0697 13.0217 16.6885C13.0053 16.6103 12.9408 16.5499 12.8613 16.539L12.0465 16.4224V15.5762L12.8613 15.4597C12.9436 15.4473 13.0067 15.3856 13.0231 15.3061C13.1054 14.9262 13.2535 14.5669 13.4661 14.2391C13.4703 14.2336 13.473 14.2281 13.4757 14.2213C13.5087 14.1568 13.5032 14.0773 13.4579 14.0183L12.9655 13.3614L13.5635 12.7634L14.2219 13.2571C14.2863 13.3051 14.3741 13.3079 14.4413 13.264C14.7691 13.0501 15.1299 12.9019 15.5112 12.8197C15.5894 12.8032 15.6497 12.7387 15.6607 12.6592L15.7773 11.8459H16.6235L16.7401 12.6592C16.7511 12.7387 16.8114 12.8032 16.8896 12.8197C17.2723 12.9006 17.6316 13.0501 17.9595 13.264C18.0267 13.3079 18.1144 13.3051 18.1789 13.2571L18.8373 12.7634L19.4353 13.3614L18.9429 14.0183C18.8949 14.0827 18.8921 14.1705 18.9346 14.2377C19.1486 14.5682 19.2981 14.9289 19.379 15.3088C19.3832 15.328 19.39 15.3472 19.401 15.365C19.4298 15.4171 19.4819 15.4514 19.5409 15.4597L20.3529 15.5762V16.4224L19.5409 16.539C19.5203 16.5417 19.4997 16.5486 19.4819 16.5568C19.4298 16.5829 19.3914 16.6322 19.3804 16.6885H19.379ZM24.6514 21.7504C24.4347 21.9671 24.0575 21.9671 23.8408 21.7504C23.6172 21.5269 23.6172 21.1634 23.8408 20.9399C23.9492 20.8315 24.0932 20.7726 24.2468 20.7726C24.4004 20.7726 24.5444 20.8315 24.6528 20.9399C24.7611 21.0482 24.8215 21.1922 24.8215 21.3458C24.8215 21.4994 24.7625 21.6434 24.6528 21.7518L24.6514 21.7504ZM27.9199 15.3211C27.7389 15.1401 27.4988 15.0414 27.2423 15.0414C26.9859 15.0414 26.7458 15.1415 26.5648 15.3211C26.4304 15.4555 26.3412 15.6242 26.3042 15.8066H24.7433V16.1906H26.3042C26.3412 16.373 26.4304 16.5403 26.5648 16.6747C26.7458 16.8558 26.9859 16.9545 27.2423 16.9545C27.4988 16.9545 27.7389 16.8544 27.9199 16.6747C28.293 16.3017 28.293 15.6942 27.9199 15.3211ZM27.6483 16.4032C27.4316 16.6199 27.0544 16.6199 26.8377 16.4032C26.7294 16.2949 26.6704 16.1522 26.6704 16V15.9959C26.6704 15.8437 26.7307 15.701 26.8377 15.5927C26.9461 15.4843 27.0901 15.4254 27.2437 15.4254C27.3973 15.4254 27.54 15.4843 27.6497 15.5927C27.8733 15.8162 27.8733 16.1797 27.6497 16.4032H27.6483ZM19.8564 19.9264L20.1279 19.6549L22.173 21.6997L21.9014 21.9712L19.8564 19.9264ZM8.65462 17.0162V14.981L7.66022 13.9867L7.93179 13.7152L8.98243 14.7657C9.01809 14.8014 9.03866 14.8507 9.03866 14.9015V17.0958C9.03866 17.1465 9.01809 17.1959 8.98243 17.2315L7.93179 18.2821L7.66022 18.0105L8.65462 17.0162ZM12.5431 12.0709L12.2715 12.3424L10.2265 10.2976L10.498 10.0261L12.5431 12.0709ZM7.65473 16.1906V15.8066H6.09387C6.05821 15.6283 5.9718 15.4597 5.83464 15.3211C5.65359 15.1401 5.41356 15.0414 5.15707 15.0414C4.90059 15.0414 4.66056 15.1415 4.47951 15.3211C4.10644 15.6942 4.10644 16.3017 4.47951 16.6747C4.66056 16.8558 4.90059 16.9545 5.15707 16.9545C5.41356 16.9545 5.65359 16.8544 5.83464 16.6747C5.9718 16.5376 6.05821 16.3675 6.09387 16.1906H7.6561H7.65473ZM5.56169 16.4032C5.34498 16.6199 4.96779 16.6199 4.75108 16.4032C4.52752 16.1797 4.52752 15.8162 4.75108 15.5927C4.85944 15.4843 5.00346 15.4254 5.15707 15.4254C5.31069 15.4254 5.45471 15.4843 5.56306 15.5927C5.78663 15.8162 5.78663 16.1797 5.56306 16.4032H5.56169Z" fill="#BE9A94"/>
<path d="M35.7993 21.5229V10.0829H38.3593V14.7709H46.4233V10.0829H48.9833V21.5229H46.4233V16.8509H38.3593V21.5229H35.7993Z" fill="#BE9A94"/>
<path d="M50.2612 21.5229L55.4132 10.0829H59.3652L64.5172 21.5229H61.7332L60.6452 19.1069H54.1332L53.0452 21.5229H50.2612ZM55.0612 17.0269H59.7172L57.4932 12.0829H57.2852L55.0612 17.0269Z" fill="#BE9A94"/>
<path d="M65.7993 21.5229V10.0829H75.3833C76.5673 10.0829 77.4846 10.3816 78.1353 10.9789C78.7966 11.5763 79.1273 12.4829 79.1273 13.6989C79.1273 14.7336 78.8873 15.5443 78.4073 16.1309C77.9273 16.7176 77.2446 17.0856 76.3593 17.2349L78.9993 21.5229H76.0873L73.6393 17.3149H68.3593V21.5229H65.7993ZM75.0793 12.1629H68.3593V15.2189L75.0793 15.2349C75.5486 15.2349 75.906 15.1176 76.1513 14.8829C76.4073 14.6483 76.5353 14.2536 76.5353 13.6989C76.5353 13.1336 76.4073 12.7389 76.1513 12.5149C75.906 12.2803 75.5486 12.1629 75.0793 12.1629Z" fill="#BE9A94"/>
<path d="M81.0493 21.5229V10.0829H82.9373L88.0573 10.0669C90.1266 10.0669 91.732 10.5523 92.8733 11.5229C94.0146 12.4936 94.5853 13.9176 94.5853 15.7949C94.5853 17.6723 94.0146 19.0963 92.8733 20.0669C91.732 21.0376 90.1266 21.5229 88.0573 21.5229H81.0493ZM87.8813 12.1469H83.6093V19.4429H87.8813C89.2253 19.4429 90.244 19.1496 90.9373 18.5629C91.6306 17.9763 91.9773 17.0536 91.9773 15.7949C91.9773 14.5256 91.6306 13.6029 90.9373 13.0269C90.244 12.4403 89.2253 12.1469 87.8813 12.1469Z" fill="#BE9A94"/>
<path d="M96.9937 21.5229L95.7137 10.0829H98.2737L99.2177 18.4349L102.402 15.9869V10.0829H104.962V16.0029L108.114 18.4349L109.074 10.0829H111.634L110.354 21.5229H108.21L103.682 17.8589L99.1377 21.5229H96.9937Z" fill="#BE9A94"/>
<path d="M111.949 21.5229L117.101 10.0829H121.053L126.205 21.5229H123.421L122.333 19.1069H115.821L114.733 21.5229H111.949ZM116.749 17.0269H121.405L119.181 12.0829H118.973L116.749 17.0269Z" fill="#BE9A94"/>
<path d="M127.487 21.5229V10.0829H137.071C138.255 10.0829 139.172 10.3816 139.823 10.9789C140.484 11.5763 140.815 12.4829 140.815 13.6989C140.815 14.7336 140.575 15.5443 140.095 16.1309C139.615 16.7176 138.932 17.0856 138.047 17.2349L140.687 21.5229H137.775L135.327 17.3149H130.047V21.5229H127.487ZM136.767 12.1629H130.047V15.2189L136.767 15.2349C137.236 15.2349 137.593 15.1176 137.839 14.8829C138.095 14.6483 138.223 14.2536 138.223 13.6989C138.223 13.1336 138.095 12.7389 137.839 12.5149C137.593 12.2803 137.236 12.1629 136.767 12.1629Z" fill="#BE9A94"/>
<path d="M142.737 21.5229V10.0829H155.281V12.1629H145.297V14.6909H154.353V16.7709H145.297V19.4429H155.281V21.5229H142.737Z" fill="#BE9A94"/>
</svg>
