<svg width="167" height="30" viewBox="0 0 167 30" fill="none" xmlns="http://www.w3.org/2000/svg">
<path fill-rule="evenodd" clip-rule="evenodd" d="M11.9537 4H17.7022V9.72362L22.7711 6.86396L25.6559 11.7463L20.5975 14.6L25.6559 17.4537L22.7711 22.336L17.7022 19.4764V25.2H11.9537V19.4764L6.88482 22.336L4.00005 17.4537L9.0584 14.6L4 11.7463L6.88477 6.86397L11.9537 9.72364V4ZM13.1537 5.2V10.751C13.1537 10.9643 13.0405 11.1616 12.8563 11.2691C12.6721 11.3767 12.4447 11.3784 12.2589 11.2736L7.31957 8.48705L5.65592 11.3027L10.5743 14.0774C10.7629 14.1838 10.8795 14.3835 10.8795 14.6C10.8795 14.8165 10.7629 15.0162 10.5743 15.1226L5.65597 17.8973L7.31962 20.7129L12.2589 17.9264C12.4447 17.8216 12.6721 17.8233 12.8563 17.9309C13.0405 18.0385 13.1537 18.2357 13.1537 18.449V24H16.5022V18.449C16.5022 18.2357 16.6154 18.0385 16.7996 17.9309C16.9838 17.8233 17.2112 17.8216 17.397 17.9264L22.3363 20.713L23.9999 17.8973L19.0816 15.1226C18.893 15.0162 18.7764 14.8165 18.7764 14.6C18.7764 14.3835 18.893 14.1838 19.0816 14.0774L24 11.3027L22.3363 8.48704L17.397 11.2736C17.2112 11.3784 16.9838 11.3767 16.7996 11.2691C16.6154 11.1616 16.5022 10.9643 16.5022 10.751V5.2H13.1537Z" fill="#BE9A94"/>
<path d="M34.828 19.4672V9.74063C34.828 9.53751 34.9009 9.36303 35.0467 9.2172C35.1926 9.07136 35.3723 8.99845 35.5858 8.99845H37.0389C37.2421 8.99845 37.4139 9.07136 37.5546 9.2172C37.7004 9.36303 37.7733 9.53751 37.7733 9.74063V13.2563H43.1483V9.74063C43.1483 9.53751 43.2212 9.36303 43.3671 9.2172C43.5129 9.07136 43.6874 8.99845 43.8905 8.99845H45.3436C45.5572 8.99845 45.7342 9.07136 45.8749 9.2172C46.0207 9.36303 46.0936 9.53751 46.0936 9.74063V19.4672C46.0936 19.6703 46.0181 19.8448 45.8671 19.9906C45.7212 20.1313 45.5467 20.2016 45.3436 20.2016H43.8905C43.6874 20.2016 43.5129 20.1339 43.3671 19.9984C43.2212 19.8578 43.1483 19.6859 43.1483 19.4828V15.4672H37.7733V19.4828C37.7733 19.6859 37.7004 19.8578 37.5546 19.9984C37.4139 20.1339 37.2421 20.2016 37.0389 20.2016H35.5858C35.3827 20.2016 35.2056 20.1313 35.0546 19.9906C34.9035 19.8448 34.828 19.6703 34.828 19.4672Z" fill="#BE9A94"/>
<path d="M48.3436 19.4516V9.72501C48.3436 9.52188 48.4165 9.35001 48.5624 9.20938C48.7082 9.06876 48.8827 8.99845 49.0858 8.99845H58.0936C58.2967 8.99845 58.4686 9.07136 58.6092 9.2172C58.7551 9.36303 58.828 9.53751 58.828 9.74063V10.475C58.828 10.6781 58.7551 10.8526 58.6092 10.9984C58.4686 11.1391 58.2967 11.2094 58.0936 11.2094H51.2889V13.4828H57.1483C57.3514 13.4828 57.5233 13.5557 57.6639 13.7016C57.8098 13.8422 57.8827 14.0141 57.8827 14.2172V14.9516C57.8827 15.1547 57.8098 15.3292 57.6639 15.475C57.5233 15.6156 57.3514 15.6859 57.1483 15.6859H51.2889V17.9906H58.078C58.2759 17.9906 58.4452 18.0609 58.5858 18.2016C58.7264 18.3422 58.7967 18.5141 58.7967 18.7172V19.4672C58.7967 19.6703 58.7238 19.8448 58.578 19.9906C58.4322 20.1313 58.2577 20.2016 58.0546 20.2016H49.0858C48.8827 20.2016 48.7082 20.1313 48.5624 19.9906C48.4165 19.8448 48.3436 19.6651 48.3436 19.4516Z" fill="#BE9A94"/>
<path d="M59.3436 19.4828L61.3046 12.0453C61.8358 10.0193 63.565 9.00366 66.4921 8.99845H70.703C70.8957 8.99845 71.0546 9.07136 71.1796 9.2172C71.3098 9.36303 71.3749 9.5323 71.3749 9.72501V19.4828C71.3749 19.6859 71.302 19.8578 71.1561 19.9984C71.0103 20.1339 70.8358 20.2016 70.6327 20.2016H69.1639C68.9504 20.2016 68.7733 20.1339 68.6327 19.9984C68.4973 19.8578 68.4296 19.6807 68.4296 19.4672V17.4984H62.8749L62.3514 19.4672C62.2994 19.6807 62.1822 19.8578 61.9999 19.9984C61.8176 20.1339 61.6249 20.2016 61.4217 20.2016H59.8827C59.6796 20.2016 59.5337 20.1443 59.4452 20.0297C59.3566 19.9099 59.3124 19.8057 59.3124 19.7172C59.3176 19.6287 59.328 19.5505 59.3436 19.4828ZM63.453 15.2875H68.4296V11.2094H66.203C65.703 11.2094 65.2655 11.3526 64.8905 11.6391C64.5207 11.9203 64.2707 12.3005 64.1405 12.7797L63.453 15.2875Z" fill="#BE9A94"/>
<path d="M73.6093 19.4828V9.75626C73.6093 9.54272 73.6822 9.36303 73.828 9.2172C73.9738 9.07136 74.1483 8.99845 74.3514 8.99845H75.8202C76.0233 8.99845 76.1952 9.07136 76.3358 9.2172C76.4816 9.36303 76.5546 9.54272 76.5546 9.75626V17.9906H83.3593C83.5624 17.9906 83.7343 18.0636 83.8749 18.2094C84.0207 18.3552 84.0936 18.5297 84.0936 18.7328V19.4672C84.0936 19.6703 84.0207 19.8448 83.8749 19.9906C83.7343 20.1313 83.5624 20.2016 83.3593 20.2016H74.3514C74.1483 20.2016 73.9738 20.1339 73.828 19.9984C73.6822 19.8578 73.6093 19.6859 73.6093 19.4828Z" fill="#BE9A94"/>
<path d="M83.0858 10.475V9.74063C83.0858 9.52709 83.1561 9.35001 83.2968 9.20938C83.4374 9.06876 83.6145 8.99845 83.828 8.99845H93.7421C93.9556 8.99845 94.1327 9.06876 94.2733 9.20938C94.4139 9.35001 94.4843 9.52709 94.4843 9.74063V10.475C94.4843 10.6886 94.4139 10.8656 94.2733 11.0063C94.1327 11.1417 93.9556 11.2094 93.7421 11.2094H90.2577V19.4828C90.2577 19.6859 90.1848 19.8578 90.0389 19.9984C89.8983 20.1339 89.7264 20.2016 89.5233 20.2016H88.0468C87.8436 20.2016 87.6691 20.1339 87.5233 19.9984C87.3827 19.8578 87.3124 19.6859 87.3124 19.4828V11.2094H83.828C83.6145 11.2094 83.4374 11.1417 83.2968 11.0063C83.1561 10.8656 83.0858 10.6886 83.0858 10.475Z" fill="#BE9A94"/>
<path d="M95.7655 19.4672V9.74063C95.7655 9.53751 95.8384 9.36303 95.9843 9.2172C96.1301 9.07136 96.3098 8.99845 96.5233 8.99845H97.9764C98.1796 8.99845 98.3514 9.07136 98.4921 9.2172C98.6379 9.36303 98.7108 9.53751 98.7108 9.74063V13.2563H104.086V9.74063C104.086 9.53751 104.159 9.36303 104.305 9.2172C104.45 9.07136 104.625 8.99845 104.828 8.99845H106.281C106.495 8.99845 106.672 9.07136 106.812 9.2172C106.958 9.36303 107.031 9.53751 107.031 9.74063V19.4672C107.031 19.6703 106.956 19.8448 106.805 19.9906C106.659 20.1313 106.484 20.2016 106.281 20.2016H104.828C104.625 20.2016 104.45 20.1339 104.305 19.9984C104.159 19.8578 104.086 19.6859 104.086 19.4828V15.4672H98.7108V19.4828C98.7108 19.6859 98.6379 19.8578 98.4921 19.9984C98.3514 20.1339 98.1796 20.2016 97.9764 20.2016H96.5233C96.3202 20.2016 96.1431 20.1313 95.9921 19.9906C95.841 19.8448 95.7655 19.6703 95.7655 19.4672Z" fill="#BE9A94"/>
<path d="M113.93 10.475V9.74063C113.93 9.52709 114 9.35001 114.141 9.20938C114.281 9.06876 114.458 8.99845 114.672 8.99845H124.586C124.799 8.99845 124.976 9.06876 125.117 9.20938C125.258 9.35001 125.328 9.52709 125.328 9.74063V10.475C125.328 10.6886 125.258 10.8656 125.117 11.0063C124.976 11.1417 124.799 11.2094 124.586 11.2094H121.101V19.4828C121.101 19.6859 121.029 19.8578 120.883 19.9984C120.742 20.1339 120.57 20.2016 120.367 20.2016H118.891C118.687 20.2016 118.513 20.1339 118.367 19.9984C118.226 19.8578 118.156 19.6859 118.156 19.4828V11.2094H114.672C114.458 11.2094 114.281 11.1417 114.141 11.0063C114 10.8656 113.93 10.6886 113.93 10.475Z" fill="#BE9A94"/>
<path d="M126.609 19.4516V9.72501C126.609 9.52188 126.682 9.35001 126.828 9.20938C126.974 9.06876 127.148 8.99845 127.351 8.99845H136.359C136.562 8.99845 136.734 9.07136 136.875 9.2172C137.021 9.36303 137.094 9.53751 137.094 9.74063V10.475C137.094 10.6781 137.021 10.8526 136.875 10.9984C136.734 11.1391 136.562 11.2094 136.359 11.2094H129.555V13.4828H135.414C135.617 13.4828 135.789 13.5557 135.93 13.7016C136.075 13.8422 136.148 14.0141 136.148 14.2172V14.9516C136.148 15.1547 136.075 15.3292 135.93 15.475C135.789 15.6156 135.617 15.6859 135.414 15.6859H129.555V17.9906H136.344C136.542 17.9906 136.711 18.0609 136.851 18.2016C136.992 18.3422 137.062 18.5141 137.062 18.7172V19.4672C137.062 19.6703 136.989 19.8448 136.844 19.9906C136.698 20.1313 136.523 20.2016 136.32 20.2016H127.351C127.148 20.2016 126.974 20.1313 126.828 19.9906C126.682 19.8448 126.609 19.6651 126.609 19.4516Z" fill="#BE9A94"/>
<path d="M139.336 18.8813C138.372 17.9594 137.891 16.5349 137.891 14.6078C137.891 12.6755 138.372 11.2484 139.336 10.3266C140.305 9.39949 141.755 8.93595 143.687 8.93595H145.43C146.612 8.93595 147.656 9.24324 148.562 9.85782C149.474 10.4724 149.93 11.3136 149.93 12.3813C149.93 12.6886 149.838 12.9099 149.656 13.0453C149.474 13.1755 149.297 13.2406 149.125 13.2406H148.195C147.716 13.2406 147.344 12.9542 147.078 12.3813C146.693 11.5583 146.052 11.1469 145.156 11.1469H143.766C142.625 11.1469 141.851 11.3917 141.445 11.8813C141.039 12.3708 140.836 13.2771 140.836 14.6C140.836 15.9229 141.039 16.8318 141.445 17.3266C141.851 17.8162 142.625 18.0609 143.766 18.0609H145.32C146.216 18.0609 146.854 17.6495 147.234 16.8266C147.5 16.2484 147.875 15.9594 148.359 15.9594H149.289C149.534 15.9594 149.726 16.0505 149.867 16.2328C150.013 16.4151 150.086 16.613 150.086 16.8266C150.086 17.8943 149.633 18.7354 148.726 19.35C147.82 19.9594 146.776 20.2641 145.594 20.2641H143.687C141.755 20.2641 140.305 19.8031 139.336 18.8813Z" fill="#BE9A94"/>
<path d="M151.609 19.4672V9.74063C151.609 9.53751 151.682 9.36303 151.828 9.2172C151.974 9.07136 152.154 8.99845 152.367 8.99845H153.82C154.023 8.99845 154.195 9.07136 154.336 9.2172C154.482 9.36303 154.555 9.53751 154.555 9.74063V13.2563H159.93V9.74063C159.93 9.53751 160.002 9.36303 160.148 9.2172C160.294 9.07136 160.469 8.99845 160.672 8.99845H162.125C162.338 8.99845 162.516 9.07136 162.656 9.2172C162.802 9.36303 162.875 9.53751 162.875 9.74063V19.4672C162.875 19.6703 162.799 19.8448 162.648 19.9906C162.502 20.1313 162.328 20.2016 162.125 20.2016H160.672C160.469 20.2016 160.294 20.1339 160.148 19.9984C160.002 19.8578 159.93 19.6859 159.93 19.4828V15.4672H154.555V19.4828C154.555 19.6859 154.482 19.8578 154.336 19.9984C154.195 20.1339 154.023 20.2016 153.82 20.2016H152.367C152.164 20.2016 151.987 20.1313 151.836 19.9906C151.685 19.8448 151.609 19.6703 151.609 19.4672Z" fill="#BE9A94"/>
</svg>
