<svg width="46" height="9" viewBox="0 0 46 9" fill="none" xmlns="http://www.w3.org/2000/svg">
    <path d="M6.40353 5.79192H4.48953V7.74992H2.70753V5.79192H0.793531V4.10892H2.70753V2.13992H4.48953V4.10892H6.40353V5.79192ZM20.8098 1.07292V8.79492H18.9288V4.16392L17.2018 8.79492H15.6838L13.9458 4.15292V8.79492H12.0648V1.07292H14.2868L16.4538 6.41892L18.5988 1.07292H20.8098ZM26.8145 8.87192C26.0885 8.87192 25.4211 8.70326 24.8125 8.36592C24.2111 8.02859 23.7308 7.55926 23.3715 6.95792C23.0195 6.34926 22.8435 5.66726 22.8435 4.91192C22.8435 4.15659 23.0195 3.47825 23.3715 2.87692C23.7308 2.27559 24.2111 1.80626 24.8125 1.46892C25.4211 1.13159 26.0885 0.962922 26.8145 0.962922C27.5405 0.962922 28.2041 1.13159 28.8055 1.46892C29.4141 1.80626 29.8908 2.27559 30.2355 2.87692C30.5875 3.47825 30.7635 4.15659 30.7635 4.91192C30.7635 5.66726 30.5875 6.34926 30.2355 6.95792C29.8835 7.55926 29.4068 8.02859 28.8055 8.36592C28.2041 8.70326 27.5405 8.87192 26.8145 8.87192ZM26.8145 7.15592C27.4305 7.15592 27.9218 6.95059 28.2885 6.53992C28.6625 6.12926 28.8495 5.58659 28.8495 4.91192C28.8495 4.22992 28.6625 3.68725 28.2885 3.28392C27.9218 2.87325 27.4305 2.66792 26.8145 2.66792C26.1911 2.66792 25.6925 2.86959 25.3185 3.27292C24.9518 3.67625 24.7685 4.22259 24.7685 4.91192C24.7685 5.59392 24.9518 6.14026 25.3185 6.55092C25.6925 6.95426 26.1911 7.15592 26.8145 7.15592ZM36.7479 8.79492L35.1419 5.87992H34.6909V8.79492H32.8099V1.07292H35.9669C36.5756 1.07292 37.0926 1.17925 37.5179 1.39192C37.9506 1.60459 38.2733 1.89792 38.4859 2.27192C38.6986 2.63859 38.8049 3.04925 38.8049 3.50392C38.8049 4.01725 38.6583 4.47559 38.3649 4.87892C38.0789 5.28225 37.6536 5.56825 37.0889 5.73692L38.8709 8.79492H36.7479ZM34.6909 4.54892H35.8569C36.2016 4.54892 36.4583 4.46459 36.6269 4.29592C36.8029 4.12726 36.8909 3.88892 36.8909 3.58092C36.8909 3.28759 36.8029 3.05659 36.6269 2.88792C36.4583 2.71926 36.2016 2.63492 35.8569 2.63492H34.6909V4.54892ZM42.8667 2.57992V4.14192H45.3857V5.59392H42.8667V7.28792H45.7157V8.79492H40.9857V1.07292H45.7157V2.57992H42.8667Z" fill="#BE9A94"/>
</svg>
