<svg width="78" height="28" viewBox="0 0 78 28" fill="none" xmlns="http://www.w3.org/2000/svg">
<path d="M23.8058 5.37C23.0258 4.5 21.9158 4 20.7558 4H8.27574C7.11574 4 6.00574 4.5 5.23574 5.37C4.45574 6.23 4.09574 7.39 4.22574 8.55L5.29574 17.76C5.45574 19.12 6.27574 20.3 7.49574 20.92L12.6558 23.56C13.2358 23.85 13.8757 24 14.5157 24C15.1457 24 15.7858 23.85 16.3558 23.56L21.5358 20.92C22.7558 20.3 23.5758 19.12 23.7358 17.76L24.8058 8.55C24.9458 7.39 24.5758 6.23 23.8058 5.37ZM15.7157 15.48L18.5358 12.96L16.4157 11.06L13.4757 16.4C13.3557 16.6 13.1658 16.74 12.9358 16.78C12.7158 16.82 12.4857 16.75 12.3157 16.6L8.87574 13.51C8.71574 13.37 8.62574 13.17 8.62574 12.96C8.62574 12.74 8.71574 12.54 8.87574 12.4L12.3157 9.31C12.6257 9.04 13.0957 9.06 13.3757 9.37C13.6457 9.68 13.6258 10.15 13.3158 10.43L10.4957 12.96L12.6158 14.85L15.5658 9.51C15.6758 9.31 15.8657 9.17 16.0957 9.13C16.3157 9.1 16.5457 9.16 16.7157 9.31L20.1557 12.4C20.3157 12.54 20.4058 12.74 20.4058 12.96C20.4058 13.17 20.3157 13.37 20.1557 13.51L16.7157 16.6C16.5757 16.73 16.3957 16.79 16.2157 16.79C16.0157 16.79 15.8058 16.7 15.6558 16.54C15.3858 16.23 15.4057 15.76 15.7157 15.48Z" fill="#BE9A94"/>
<path d="M38.4997 21.596C37.7957 21.596 37.1318 21.548 36.5078 21.452C35.8998 21.356 35.4118 21.172 35.0438 20.9C34.6918 20.612 34.5158 20.204 34.5158 19.676V16.316L37.1077 16.028V18.596C37.1077 18.884 37.1878 19.116 37.3478 19.292C37.5238 19.452 37.8598 19.532 38.3558 19.532C38.6758 19.532 38.9238 19.492 39.0998 19.412C39.2758 19.316 39.3958 19.188 39.4598 19.028C39.5238 18.868 39.5558 18.668 39.5558 18.428V16.82C39.5558 16.388 39.4518 16.004 39.2438 15.668C39.0518 15.332 38.6917 15.084 38.1637 14.924L36.5078 14.42C35.8038 14.196 35.2918 13.908 34.9718 13.556C34.6678 13.204 34.5158 12.652 34.5158 11.9V8.78C34.5158 8.076 34.6918 7.556 35.0438 7.22C35.3958 6.884 35.8757 6.668 36.4837 6.572C37.0917 6.46 37.7557 6.404 38.4757 6.404C39.1638 6.404 39.7797 6.46 40.3237 6.572C40.8837 6.684 41.3237 6.884 41.6437 7.172C41.9797 7.444 42.1478 7.828 42.1478 8.324V11.684L39.5558 12.044V9.62C39.5558 9.124 39.4678 8.804 39.2918 8.66C39.1318 8.5 38.8277 8.42 38.3797 8.42C37.9157 8.42 37.5877 8.516 37.3957 8.708C37.2037 8.884 37.1077 9.244 37.1077 9.788V11.18C37.1077 11.548 37.1878 11.892 37.3478 12.212C37.5238 12.516 37.8038 12.732 38.1878 12.86L40.0358 13.436C40.7878 13.676 41.3237 13.98 41.6437 14.348C41.9797 14.7 42.1478 15.252 42.1478 16.004V19.148C42.1478 19.836 41.9878 20.356 41.6678 20.708C41.3478 21.06 40.9078 21.3 40.3478 21.428C39.8038 21.54 39.1877 21.596 38.4997 21.596Z" fill="#BE9A94"/>
<path d="M46.6609 21.428C46.0209 21.428 45.5649 21.332 45.2929 21.14C45.0209 20.932 44.8449 20.604 44.7649 20.156C44.7009 19.692 44.6689 19.076 44.6689 18.308V12.836C44.6689 12.212 44.7489 11.708 44.9089 11.324C45.0689 10.924 45.3489 10.628 45.7489 10.436C46.1489 10.244 46.7089 10.148 47.4289 10.148H52.3249V21.428H49.7809V12.188H48.1009C47.8289 12.188 47.6289 12.228 47.5009 12.308C47.3729 12.388 47.2929 12.516 47.2609 12.692C47.2289 12.852 47.2129 13.076 47.2129 13.364V18.14C47.2129 18.508 47.2369 18.78 47.2849 18.956C47.3329 19.132 47.4129 19.252 47.5249 19.316C47.6529 19.364 47.8289 19.388 48.0529 19.388H49.3009L49.0369 21.428H46.6609Z" fill="#BE9A94"/>
<path d="M57.1365 21.428C56.4965 21.428 56.0405 21.332 55.7685 21.14C55.4965 20.932 55.3205 20.604 55.2405 20.156C55.1765 19.692 55.1445 19.076 55.1445 18.308V12.836C55.1445 12.212 55.2245 11.708 55.3845 11.324C55.5445 10.924 55.8245 10.628 56.2245 10.436C56.6245 10.244 57.1845 10.148 57.9045 10.148H62.8005V21.428H60.2565V12.188H58.5765C58.3045 12.188 58.1045 12.228 57.9765 12.308C57.8485 12.388 57.7685 12.516 57.7365 12.692C57.7045 12.852 57.6885 13.076 57.6885 13.364V18.14C57.6885 18.508 57.7125 18.78 57.7605 18.956C57.8085 19.132 57.8885 19.252 58.0005 19.316C58.1285 19.364 58.3045 19.388 58.5285 19.388H59.7765L59.5125 21.428H57.1365Z" fill="#BE9A94"/>
<path d="M69.3641 21.596C68.6601 21.596 67.9961 21.548 67.3721 21.452C66.7641 21.356 66.2761 21.172 65.9081 20.9C65.5561 20.612 65.3801 20.204 65.3801 19.676V16.316L67.9721 16.028V18.596C67.9721 18.884 68.0521 19.116 68.2121 19.292C68.3881 19.452 68.7241 19.532 69.2201 19.532C69.5401 19.532 69.7881 19.492 69.9641 19.412C70.1401 19.316 70.2601 19.188 70.3241 19.028C70.3881 18.868 70.4201 18.668 70.4201 18.428V16.82C70.4201 16.388 70.3161 16.004 70.1081 15.668C69.9161 15.332 69.5561 15.084 69.0281 14.924L67.3721 14.42C66.6681 14.196 66.1561 13.908 65.8361 13.556C65.5321 13.204 65.3801 12.652 65.3801 11.9V8.78C65.3801 8.076 65.5561 7.556 65.9081 7.22C66.2601 6.884 66.7401 6.668 67.3481 6.572C67.9561 6.46 68.6201 6.404 69.3401 6.404C70.0281 6.404 70.6441 6.46 71.1881 6.572C71.7481 6.684 72.1881 6.884 72.5081 7.172C72.8441 7.444 73.0121 7.828 73.0121 8.324V11.684L70.4201 12.044V9.62C70.4201 9.124 70.3321 8.804 70.1561 8.66C69.9961 8.5 69.6921 8.42 69.2441 8.42C68.7801 8.42 68.4521 8.516 68.2601 8.708C68.0681 8.884 67.9721 9.244 67.9721 9.788V11.18C67.9721 11.548 68.0521 11.892 68.2121 12.212C68.3881 12.516 68.6681 12.732 69.0521 12.86L70.9001 13.436C71.6521 13.676 72.1881 13.98 72.5081 14.348C72.8441 14.7 73.0121 15.252 73.0121 16.004V19.148C73.0121 19.836 72.8521 20.356 72.5321 20.708C72.2121 21.06 71.7721 21.3 71.2121 21.428C70.6681 21.54 70.0521 21.596 69.3641 21.596Z" fill="#BE9A94"/>
</svg>
