<svg width="188" height="29" viewBox="0 0 188 29" fill="none" xmlns="http://www.w3.org/2000/svg">
<path fill-rule="evenodd" clip-rule="evenodd" d="M8.56019 5.8842C6.85444 7.10857 5.63407 8.79534 4.97261 10.6702C7.43731 11.13 9.71669 12.5092 11.2607 14.6603L13.0355 13.6356L8.56019 5.8842ZM12.5722 23.8331C14.5266 24.1977 16.5976 23.9842 18.5108 23.1192L14.0355 15.3677L12.2607 16.3924C13.3517 18.8051 13.4064 21.4687 12.5722 23.8331ZM20.2429 22.1192C21.9487 20.8948 23.1691 19.208 23.8305 17.3331C21.3659 16.8733 19.0864 15.4942 17.5424 13.343L15.7675 14.3677L20.2429 22.1192ZM16.2309 4.17026C14.2765 3.8056 12.2055 4.01911 10.2922 4.8842L14.7675 12.6356L16.5424 11.6109C15.4515 9.19823 15.3968 6.5346 16.2309 4.17026ZM18.1544 4.73207C19.86 5.42125 21.3871 6.58334 22.5191 8.16029L18.2853 10.6047C17.476 8.68802 17.4701 6.58959 18.1544 4.73207ZM23.5191 9.89234C24.3188 11.6611 24.5617 13.5648 24.3057 15.3864C22.3549 15.0503 20.5406 13.996 19.2853 12.3367L23.5191 9.89234ZM10.6487 23.2712C8.94314 22.5821 7.41601 21.42 6.28406 19.843L10.5178 17.3986C11.3272 19.3153 11.333 21.4137 10.6487 23.2712ZM5.28406 18.1109C4.48433 16.3422 4.24148 14.4386 4.49746 12.6169C6.44826 12.9531 8.26261 14.0074 9.51783 15.6666L5.28406 18.1109Z" fill="#BE9A94"/>
<path d="M42.9696 15.4302C43.1236 15.6822 43.2006 16.1862 43.2006 16.9422C43.2006 17.6842 43.0466 18.3142 42.7386 18.8322C42.4586 19.2382 41.8636 19.8052 40.9536 20.5332C40.0436 21.2472 39.3716 21.6042 38.9376 21.6042C38.1676 21.6042 37.2856 21.2052 36.2916 20.4072C35.2976 19.5952 34.6676 18.7062 34.4016 17.7402L36.7326 16.1442C36.9566 16.8022 37.3136 17.4042 37.8036 17.9502C38.2936 18.4962 38.6366 18.7692 38.8326 18.7692C39.0426 18.7692 39.2596 18.7062 39.4836 18.5802C39.7216 18.4402 39.9036 18.3002 40.0296 18.1602C40.2116 17.9362 40.3026 17.5862 40.3026 17.1102C40.3026 16.6342 40.1906 16.3402 39.9666 16.2282C39.6866 15.9902 39.1406 15.6752 38.3286 15.2832C37.5306 14.8912 36.7886 14.4712 36.1026 14.0232C35.4166 13.5612 34.9756 13.1132 34.7796 12.6792C34.5976 12.2452 34.5066 11.6852 34.5066 10.9992C34.5066 10.2992 34.6606 9.6902 34.9686 9.1722C35.2486 8.7662 35.8436 8.2062 36.7536 7.4922C37.6636 6.7642 38.3356 6.4002 38.7696 6.4002C39.5396 6.4002 40.4216 6.8062 41.4156 7.6182C42.4096 8.4162 43.0396 9.2982 43.3056 10.2642L40.9746 11.8812C40.7506 11.2232 40.3936 10.6212 39.9036 10.0752C39.4136 9.5152 39.0636 9.2352 38.8536 9.2352C38.6576 9.2352 38.4406 9.2982 38.2026 9.4242C37.9646 9.5502 37.7686 9.7112 37.6146 9.9072C37.4746 10.0892 37.4046 10.4112 37.4046 10.8732C37.4046 11.3212 37.5446 11.6222 37.8246 11.7762C38.0486 11.9722 38.5596 12.2802 39.3576 12.7002C41.4016 13.8202 42.6056 14.7302 42.9696 15.4302Z" fill="#BE9A94"/>
<path d="M49.0359 14.2332H49.4559C49.7219 14.2332 50.0299 14.1072 50.3799 13.8552C50.7439 13.5892 50.9749 13.3022 51.0729 12.9942C51.1709 12.6862 51.2199 12.2732 51.2199 11.7552C51.2199 11.2372 51.1709 10.8102 51.0729 10.4742C50.9749 10.1242 50.7439 9.8232 50.3799 9.5712C50.0299 9.3192 49.6869 9.1932 49.3509 9.1932C49.0289 9.1932 48.5879 9.3752 48.0279 9.7392C48.0699 10.2012 48.0909 10.6702 48.0909 11.1462V21.3522H45.1929V12.3642C45.1929 11.1882 45.1089 10.3622 44.9409 9.8862C44.7869 9.3962 44.4508 8.8292 43.9328 8.1852L46.4529 6.4002C46.8169 6.6522 47.1388 7.0652 47.4188 7.6392C48.5668 6.8132 49.3859 6.4002 49.8759 6.4002C50.3659 6.4002 51.0449 6.7922 51.9129 7.5762C52.7809 8.3602 53.3689 9.0182 53.6769 9.5502C53.8309 9.7462 53.9079 10.4252 53.9079 11.5872C53.9079 12.7492 53.8309 13.4842 53.6769 13.7922C53.3689 14.3242 52.7809 14.9822 51.9129 15.7662C51.0449 16.5502 50.3659 16.9422 49.8759 16.9422H49.0359V14.2332Z" fill="#BE9A94"/>
<path d="M61.5469 20.2392C60.5529 21.1492 59.8039 21.6042 59.2999 21.6042C58.7959 21.6042 58.0399 21.1492 57.0319 20.2392C56.0379 19.3152 55.4219 18.5662 55.1839 17.9922C55.0299 17.6282 54.9529 16.7112 54.9529 15.2412V12.7632C54.9529 11.2932 55.0299 10.3762 55.1839 10.0122C55.4219 9.4382 56.0379 8.6962 57.0319 7.7862C58.0399 6.8622 58.7959 6.4002 59.2999 6.4002C59.8039 6.4002 60.5529 6.8622 61.5469 7.7862C62.5549 8.6962 63.1779 9.4382 63.4159 10.0122C63.5699 10.3762 63.6469 11.2932 63.6469 12.7632V15.2412C63.6469 16.7112 63.5699 17.6282 63.4159 17.9922C63.1779 18.5662 62.5549 19.3152 61.5469 20.2392ZM58.5859 18.1812C58.8659 18.4612 59.1039 18.6012 59.2999 18.6012C59.4959 18.6012 59.7269 18.4612 59.9929 18.1812C60.2729 17.8872 60.4689 17.6142 60.5809 17.3622C60.6929 17.0962 60.7489 16.3892 60.7489 15.2412V12.7632C60.7489 11.6152 60.6929 10.9152 60.5809 10.6632C60.4689 10.3972 60.2729 10.1242 59.9929 9.8442C59.7269 9.5502 59.4959 9.4032 59.2999 9.4032C59.1039 9.4032 58.8659 9.5502 58.5859 9.8442C58.3199 10.1242 58.1309 10.3972 58.0189 10.6632C57.9069 10.9152 57.8509 11.6152 57.8509 12.7632V15.2412C57.8509 16.3892 57.9069 17.0962 58.0189 17.3622C58.1309 17.6142 58.3199 17.8872 58.5859 18.1812Z" fill="#BE9A94"/>
<path d="M67.9491 7.5552C69.0691 6.7852 69.8321 6.4002 70.2381 6.4002C70.6441 6.4002 71.2671 6.7712 72.1071 7.5132C72.9611 8.2412 73.4931 8.7592 73.7031 9.0672C73.9131 9.3612 74.0181 9.7532 74.0181 10.2432C74.0181 11.1952 73.9411 11.7622 73.7871 11.9442C73.4931 12.3922 73.0381 12.9172 72.4221 13.5192C73.2761 14.3312 73.8081 14.9542 74.0181 15.3882C74.1301 15.6822 74.2491 16.5782 74.3751 18.0762C74.5011 19.5602 74.5641 20.6522 74.5641 21.3522H71.4141C71.4141 20.7222 71.3581 19.7352 71.2461 18.3912C71.1341 17.0472 71.0081 16.2352 70.8681 15.9552C70.7421 15.6752 70.5881 15.4302 70.4061 15.2202H68.5371V21.3522H65.6391V12.1542C65.6391 11.0202 65.5551 10.2362 65.3871 9.8022C65.2331 9.3542 64.8971 8.8082 64.3791 8.1642L66.8991 6.4002C67.3471 6.6942 67.6971 7.0792 67.9491 7.5552ZM68.5371 11.1462V12.7632H69.3561C69.5521 12.7632 69.8041 12.6092 70.1121 12.3012C70.4201 11.9932 70.6161 11.7342 70.7001 11.5242C70.7981 11.3002 70.8471 11.0692 70.8471 10.8312C70.8471 10.5932 70.7981 10.3832 70.7001 10.2012C70.6161 10.0052 70.4901 9.7882 70.3221 9.5502C70.1541 9.3122 70.0141 9.1932 69.9021 9.1932C69.5241 9.1932 69.0481 9.2842 68.4741 9.4662C68.5161 10.0122 68.5371 10.5722 68.5371 11.1462Z" fill="#BE9A94"/>
<path d="M83.9969 6.6522V9.1722H81.2669V21.3522H78.3689V9.1722H75.6389V6.6522H83.9969Z" fill="#BE9A94"/>
<path d="M93.2343 15.4302C93.3883 15.6822 93.4653 16.1862 93.4653 16.9422C93.4653 17.6842 93.3113 18.3142 93.0033 18.8322C92.7233 19.2382 92.1283 19.8052 91.2183 20.5332C90.3083 21.2472 89.6363 21.6042 89.2023 21.6042C88.4323 21.6042 87.5503 21.2052 86.5563 20.4072C85.5623 19.5952 84.9323 18.7062 84.6663 17.7402L86.9973 16.1442C87.2213 16.8022 87.5783 17.4042 88.0683 17.9502C88.5583 18.4962 88.9013 18.7692 89.0973 18.7692C89.3073 18.7692 89.5243 18.7062 89.7483 18.5802C89.9863 18.4402 90.1683 18.3002 90.2943 18.1602C90.4763 17.9362 90.5673 17.5862 90.5673 17.1102C90.5673 16.6342 90.4553 16.3402 90.2313 16.2282C89.9513 15.9902 89.4053 15.6752 88.5933 15.2832C87.7953 14.8912 87.0533 14.4712 86.3673 14.0232C85.6813 13.5612 85.2403 13.1132 85.0443 12.6792C84.8623 12.2452 84.7713 11.6852 84.7713 10.9992C84.7713 10.2992 84.9253 9.6902 85.2333 9.1722C85.5133 8.7662 86.1083 8.2062 87.0183 7.4922C87.9283 6.7642 88.6003 6.4002 89.0343 6.4002C89.8043 6.4002 90.6863 6.8062 91.6803 7.6182C92.6743 8.4162 93.3043 9.2982 93.5703 10.2642L91.2393 11.8812C91.0153 11.2232 90.6583 10.6212 90.1683 10.0752C89.6783 9.5152 89.3283 9.2352 89.1183 9.2352C88.9223 9.2352 88.7053 9.2982 88.4673 9.4242C88.2293 9.5502 88.0333 9.7112 87.8793 9.9072C87.7393 10.0892 87.6693 10.4112 87.6693 10.8732C87.6693 11.3212 87.8093 11.6222 88.0893 11.7762C88.3133 11.9722 88.8243 12.2802 89.6223 12.7002C91.6663 13.8202 92.8703 14.7302 93.2343 15.4302Z" fill="#BE9A94"/>
<path d="M105.622 12.6372V14.9682H104.593C104.411 15.0242 104.194 15.1502 103.942 15.3462C103.69 15.5422 103.515 15.7172 103.417 15.8712C103.333 16.0252 103.291 16.3192 103.291 16.7532C103.291 17.1732 103.353 17.4672 103.479 17.6352C103.619 17.8032 103.872 18.0062 104.236 18.2442C104.6 18.4822 104.908 18.6012 105.16 18.6012C105.426 18.6012 105.748 18.4822 106.126 18.2442C106.518 18.0062 106.763 17.7822 106.861 17.5722C107.001 17.2362 107.071 16.5922 107.071 15.6402C107.071 14.6742 107.029 14.0162 106.945 13.6662C106.861 13.3022 106.693 12.8682 106.441 12.3642L108.793 10.7262C109.213 11.1182 109.528 11.7552 109.738 12.6372H112.657V14.9682H109.969V16.9632C109.969 17.2852 110.025 17.5722 110.137 17.8242C110.347 18.3422 110.55 18.6012 110.746 18.6012C110.942 18.6012 111.243 18.3842 111.649 17.9502L113.728 19.3992C113.21 19.9732 112.664 20.4842 112.09 20.9322C111.516 21.3802 111.068 21.6042 110.746 21.6042C110.228 21.6042 109.402 20.9952 108.268 19.7772C106.882 20.9952 105.846 21.6042 105.16 21.6042C104.614 21.6042 103.802 21.1772 102.724 20.3232C101.66 19.4552 100.96 18.7482 100.624 18.2022C100.47 17.9642 100.393 17.4672 100.393 16.7112C100.393 15.9412 100.47 15.4442 100.624 15.2202C100.932 14.7582 101.548 14.1492 102.472 13.3932C101.856 12.7772 101.457 12.3222 101.275 12.0282C101.107 11.7202 101.023 11.1882 101.023 10.4322C101.023 9.6622 101.121 9.1442 101.317 8.8782C101.513 8.5982 102.101 8.1152 103.081 7.4292C104.061 6.7432 104.733 6.4002 105.097 6.4002C105.475 6.4002 106.014 6.6662 106.714 7.1982C107.428 7.7162 107.988 8.1922 108.394 8.6262L106.378 10.0752C106.266 9.9072 106.07 9.7182 105.79 9.5082C105.524 9.2982 105.307 9.1932 105.139 9.1932C104.985 9.1932 104.789 9.2912 104.551 9.4872C104.313 9.6692 104.152 9.8442 104.068 10.0122C103.984 10.1802 103.942 10.4182 103.942 10.7262C103.942 11.0342 103.984 11.2932 104.068 11.5032C104.166 11.7132 104.355 11.9582 104.635 12.2382C104.929 12.5042 105.174 12.6372 105.37 12.6372H105.622Z" fill="#BE9A94"/>
<path d="M121.605 21.3522V12.9732C121.605 11.2512 121.745 10.1452 122.025 9.6552C122.305 9.1652 122.9 8.5002 123.81 7.6602C124.734 6.8202 125.42 6.4002 125.868 6.4002C126.484 6.4002 127.247 6.6452 128.157 7.1352C129.067 7.6252 129.746 8.1782 130.194 8.7942L127.863 10.4112C127.079 9.6272 126.449 9.2352 125.973 9.2352C125.791 9.2352 125.581 9.3542 125.343 9.5922C125.105 9.8162 124.902 10.0612 124.734 10.3272C124.58 10.5792 124.503 11.2302 124.503 12.2802V12.7632H128.262V15.3042H124.503V21.3522H121.605Z" fill="#BE9A94"/>
<path d="M131.319 21.3522V6.6522H134.217V21.3522H131.319Z" fill="#BE9A94"/>
<path d="M144.003 6.6522V9.1722H141.273V21.3522H138.375V9.1722H135.645V6.6522H144.003Z" fill="#BE9A94"/>
<path d="M148.599 10.2432L148.62 11.1462V21.3522H145.722V12.3642C145.722 11.1882 145.638 10.3622 145.47 9.8862C145.316 9.4102 144.98 8.8362 144.462 8.1642L146.982 6.4002C147.388 6.6662 147.766 7.1212 148.116 7.7652C149.222 6.8552 149.971 6.4002 150.363 6.4002C150.755 6.4002 151.371 6.7712 152.211 7.5132C153.065 8.2412 153.597 8.7592 153.807 9.0672C154.017 9.3612 154.122 9.7532 154.122 10.2432V21.3522H151.203V10.6632C151.203 10.5372 151.147 10.3832 151.035 10.2012C150.937 10.0052 150.776 9.7882 150.552 9.5502C150.342 9.3122 150.139 9.1932 149.943 9.1932C149.761 9.1932 149.53 9.3052 149.25 9.5292C148.97 9.7392 148.753 9.9772 148.599 10.2432Z" fill="#BE9A94"/>
<path d="M159.11 12.4062H162.869V14.9472H159.11V18.8112H164.129V21.3522H156.212V8.4162L159.11 6.4002H163.793V8.9622H159.887L159.11 9.5082V12.4062Z" fill="#BE9A94"/>
<path d="M173.645 15.4302C173.799 15.6822 173.876 16.1862 173.876 16.9422C173.876 17.6842 173.722 18.3142 173.414 18.8322C173.134 19.2382 172.539 19.8052 171.629 20.5332C170.719 21.2472 170.047 21.6042 169.613 21.6042C168.843 21.6042 167.961 21.2052 166.967 20.4072C165.973 19.5952 165.343 18.7062 165.077 17.7402L167.408 16.1442C167.632 16.8022 167.989 17.4042 168.479 17.9502C168.969 18.4962 169.312 18.7692 169.508 18.7692C169.718 18.7692 169.935 18.7062 170.159 18.5802C170.397 18.4402 170.579 18.3002 170.705 18.1602C170.887 17.9362 170.978 17.5862 170.978 17.1102C170.978 16.6342 170.866 16.3402 170.642 16.2282C170.362 15.9902 169.816 15.6752 169.004 15.2832C168.206 14.8912 167.464 14.4712 166.778 14.0232C166.092 13.5612 165.651 13.1132 165.455 12.6792C165.273 12.2452 165.182 11.6852 165.182 10.9992C165.182 10.2992 165.336 9.6902 165.644 9.1722C165.924 8.7662 166.519 8.2062 167.429 7.4922C168.339 6.7642 169.011 6.4002 169.445 6.4002C170.215 6.4002 171.097 6.8062 172.091 7.6182C173.085 8.4162 173.715 9.2982 173.981 10.2642L171.65 11.8812C171.426 11.2232 171.069 10.6212 170.579 10.0752C170.089 9.5152 169.739 9.2352 169.529 9.2352C169.333 9.2352 169.116 9.2982 168.878 9.4242C168.64 9.5502 168.444 9.7112 168.29 9.9072C168.15 10.0892 168.08 10.4112 168.08 10.8732C168.08 11.3212 168.22 11.6222 168.5 11.7762C168.724 11.9722 169.235 12.2802 170.033 12.7002C172.077 13.8202 173.281 14.7302 173.645 15.4302Z" fill="#BE9A94"/>
<path d="M183.387 15.4302C183.541 15.6822 183.618 16.1862 183.618 16.9422C183.618 17.6842 183.464 18.3142 183.156 18.8322C182.876 19.2382 182.281 19.8052 181.371 20.5332C180.461 21.2472 179.789 21.6042 179.355 21.6042C178.585 21.6042 177.703 21.2052 176.709 20.4072C175.715 19.5952 175.085 18.7062 174.819 17.7402L177.15 16.1442C177.374 16.8022 177.731 17.4042 178.221 17.9502C178.711 18.4962 179.054 18.7692 179.25 18.7692C179.46 18.7692 179.677 18.7062 179.901 18.5802C180.139 18.4402 180.321 18.3002 180.447 18.1602C180.629 17.9362 180.72 17.5862 180.72 17.1102C180.72 16.6342 180.608 16.3402 180.384 16.2282C180.104 15.9902 179.558 15.6752 178.746 15.2832C177.948 14.8912 177.206 14.4712 176.52 14.0232C175.834 13.5612 175.393 13.1132 175.197 12.6792C175.015 12.2452 174.924 11.6852 174.924 10.9992C174.924 10.2992 175.078 9.6902 175.386 9.1722C175.666 8.7662 176.261 8.2062 177.171 7.4922C178.081 6.7642 178.753 6.4002 179.187 6.4002C179.957 6.4002 180.839 6.8062 181.833 7.6182C182.827 8.4162 183.457 9.2982 183.723 10.2642L181.392 11.8812C181.168 11.2232 180.811 10.6212 180.321 10.0752C179.831 9.5152 179.481 9.2352 179.271 9.2352C179.075 9.2352 178.858 9.2982 178.62 9.4242C178.382 9.5502 178.186 9.7112 178.032 9.9072C177.892 10.0892 177.822 10.4112 177.822 10.8732C177.822 11.3212 177.962 11.6222 178.242 11.7762C178.466 11.9722 178.977 12.2802 179.775 12.7002C181.819 13.8202 183.023 14.7302 183.387 15.4302Z" fill="#BE9A94"/>
</svg>
