<svg width="145" height="32" viewBox="0 0 145 32" fill="none" xmlns="http://www.w3.org/2000/svg">
<path d="M4.19971 12.5067L6.02066 13.7905V4H4.19971V12.5067Z" fill="#BE9A94"/>
<path d="M12.7269 4H10.2843V16.1531L12.7269 14.4312V4Z" fill="#BE9A94"/>
<path d="M15.4569 4H13.6809V13.7585L15.4569 12.5067V4Z" fill="#BE9A94"/>
<path d="M9.33037 4H6.97533V14.4632L9.33037 16.1234V4Z" fill="#BE9A94"/>
<path d="M7.5978 24.048C7.76466 24.1699 7.83475 24.3848 7.77075 24.5813L6.6599 28L9.56809 25.8872C9.6519 25.8263 9.75018 25.7958 9.84847 25.7958C9.94675 25.7958 10.045 25.8263 10.1288 25.8872L13.037 28L11.9262 24.5813C11.8622 24.3848 11.9323 24.1691 12.0991 24.048L15.0073 21.9352H11.4127C11.2062 21.9352 11.0226 21.8019 10.9586 21.6053L9.84771 18.1867L8.73685 21.6053C8.67285 21.8019 8.48999 21.9352 8.28275 21.9352H4.68961L7.5978 24.048Z" fill="#BE9A94"/>
<path d="M40.1994 11.1095L36.4594 20.9095H33.8594L30.1994 11.1095H31.9994L34.9994 19.5495H35.3994L38.3994 11.1095H40.1994Z" fill="#BE9A94"/>
<path d="M53.5908 20.9095H46.5908V13.9095L47.9908 12.5095H46.5908V11.1095H53.5908V12.5095H48.1908V16.5095L49.3908 15.3095H53.5908V16.7095H48.1908V19.5095H53.5908V20.9095Z" fill="#BE9A94"/>
<path d="M66.2908 12.5095H63.3908V20.9095H61.7908V12.5095H58.8908V11.1095H66.2908V12.5095Z" fill="#BE9A94"/>
<path d="M79.1885 20.9095H72.1885V13.9095L73.5885 12.5095H72.1885V11.1095H79.1885V12.5095H73.7885V16.5095L74.9885 15.3095H79.1885V16.7095H73.7885V19.5095H79.1885V20.9095Z" fill="#BE9A94"/>
<path d="M94.7885 20.9095H92.7485L88.5885 16.7095H92.9885V12.5095H87.7885V20.9095H86.1885V13.8895L87.5885 12.5095H86.1885V11.1095H93.1885C93.5618 11.1095 93.8885 11.2495 94.1685 11.5295C94.4485 11.8095 94.5885 12.1362 94.5885 12.5095V16.3095C94.5885 17.3762 94.1218 17.9095 93.1885 17.9095H91.9885V18.1295L94.7885 20.9095Z" fill="#BE9A94"/>
<path d="M110.092 20.9095H108.492V18.1095H103.292V20.9095H101.692V12.5095C101.692 12.1228 101.826 11.7962 102.092 11.5295C102.372 11.2495 102.706 11.1095 103.092 11.1095H110.092V20.9095ZM108.492 16.7095V12.5095H103.292V17.9095L104.492 16.7095H108.492Z" fill="#BE9A94"/>
<path d="M126.085 20.8895H123.285L119.485 12.5895H118.685L119.285 13.5895V20.8895H117.685V11.0895H120.505L124.285 19.3895H125.085L124.485 18.3895V11.0895H126.085V20.8895Z" fill="#BE9A94"/>
<path d="M140.277 19.5095C140.277 19.8962 140.137 20.2295 139.857 20.5095C139.59 20.7762 139.263 20.9095 138.877 20.9095H133.277V19.5095H138.677V16.7095H134.677C134.29 16.7095 133.957 16.5762 133.677 16.3095C133.41 16.0295 133.277 15.6962 133.277 15.3095V12.5095C133.277 12.1228 133.41 11.7962 133.677 11.5295C133.957 11.2495 134.29 11.1095 134.677 11.1095H140.277V12.5095H134.877V15.3095H138.877C139.263 15.3095 139.59 15.4495 139.857 15.7295C140.137 15.9962 140.277 16.3228 140.277 16.7095V19.5095Z" fill="#BE9A94"/>
</svg>
